{
.appVersion = "1230";
DisplayStrings = (
"G/Omega O",
"/mu",
"l/pi l",
"/pi µ",
"/mu µ",
"/florin",
"/integral",
"d/partialdiff",
"/Germandbls BN"
);
copyright = "Creative Zoo";
date = "2019-12-21 12:31:21 +0000";
designer = "René Sørensen";
designerURL = www.czoo.dk;
familyName = "Creative Zoo Sans";
featurePrefixes = (
{
automatic = 1;
code = "languagesystem DFLT dflt;\012languagesystem latn dflt;\012languagesystem latn ROM;\012languagesystem latn MOL;\012languagesystem latn KAZ;\012languagesystem latn TAT;\012languagesystem latn TRK;\012languagesystem latn CRT;\012languagesystem latn AZE;\012";
name = Languagesystems;
}
);
features = (
{
automatic = 1;
code = "feature locl;\012feature numr;\012feature dnom;\012feature frac;\012feature lnum;\012feature pnum;\012feature tnum;\012feature onum;\012feature c2sc;\012feature smcp;\012feature case;\012feature salt;\012feature ss03;\012feature ss04;\012feature subs;\012feature sinf;\012feature sups;\012";
name = aalt;
},
{
automatic = 1;

glyphs = (
{
glyphname = A;
lastChange = "2019-01-09 10:25:31 +0000";
layers = (
{
anchors = (
{
name = bottom;
position = "{300, 0}";
},
{
name = ogonek;
position = "{685, 10}";
},
{
name = top;
position = "{424, 700}";
}
);
background = {
paths = (
{
closed = 1;
nodes = (
"54 122 LINE",
"54 0 LINE",
"181 0 LINE",
"451 700 LINE",
"280 700 LINE"
);
},
{
closed = 1;
nodes = (
"605 144 LINE",
"605 283 LINE",
"145 283 LINE",
"145 144 LINE"
);
},
{
closed = 1;
nodes = (
"275 122 LINE",
"461 122 LINE",
"511 144 LINE",
"225 144 LINE"
);
},
{
closed = 1;
nodes = (
"280 700 LINE",
"550 0 LINE",
"677 0 LINE",
"677 122 LINE",
"451 700 LINE"
);
},
{
closed = 1;
nodes = (
"280 700 LINE",
"54 122 LINE",
"54 0 LINE",
"181 0 LINE",
"235 139 LINE",
"273 122 LINE",
"459 122 LINE",
"497 139 LINE",
"550 0 LINE",
"677 0 LINE",
"677 122 LINE",
"451 700 LINE"
);
},
{
closed = 1;
nodes = (
"291 283 LINE",
"366 478 LINE",
"441 283 LINE"
);
}
);
};
guideLines = (
{
angle = -70.88;
position = "{775, 700}";
},
{
angle = -24.444;
position = "{142, 142}";
}
);
layerId = "631A315E-0C3F-4988-8BF6-333737037850";
paths = (
{
closed = 1;
nodes = (
"104 0 LINE",
"181 147 LINE",
"220 127 LINE",
"426 127 LINE",
"475 147 LINE",
"500 0 LINE",
"634 0 LINE",
"648 89 LINE",
"521 700 LINE",
"323 700 LINE",
"-19 89 LINE",
"-34 0 LINE"
);
},
{
closed = 1;
nodes = (
"417 600 LINE",
"397 600 LINE",
"451 278 LINE",
"251 278 LINE"
);
}
);
width = 724;
},
{
anchors = (
{
name = bottom;
position = "{272, 0}";
},
{
name = ogonek;
position = "{615, 10}";
},
{
name = top;
position = "{396, 700}";
}
);
layerId = "3129A168-24FD-451B-9986-F27775A960CA";
paths = (
{
closed = 1;
nodes = (
"24 0 LINE",
"135 192 LINE",
"174 163 LINE",
"431 163 LINE",
"480 192 LINE",
"522 0 LINE",
"573 0 LINE",
"577 25 LINE",
"433 700 LINE",
"357 700 LINE",
"-25 25 LINE",
"-29 0 LINE"
);
},
{
closed = 1;
nodes = (
"409 681 LINE",
"377 681 LINE",
"476 214 LINE",
"147 214 LINE"
);
}
);
width = 668;
}
);
leftKerningGroup = A;
rightKerningGroup = A;
unicode = 0041;
},
{
glyphname = Aring;
lastChange = "2018-12-19 14:48:38 +0000";
layers = (
{
guideLines = (
{
angle = 250.8803;
position = "{506, 600}";
}
);
layerId = "631A315E-0C3F-4988-8BF6-333737037850";
paths = (
{
closed = 1;
nodes = (
"104 0 LINE",
"181 147 LINE",
"220 127 LINE",
"426 127 LINE",
"475 147 LINE",
"500 0 LINE",
"634 0 LINE",
"648 89 LINE",
"521 700 LINE",
"323 700 LINE",
"-19 89 LINE",
"-34 0 LINE"
);
},
{
closed = 1;
nodes = (
"417 600 LINE",
"397 600 LINE",
"451 278 LINE",
"251 278 LINE"
);
},
{
closed = 1;
nodes = (
"517 728 OFFCURVE",
"590 798 OFFCURVE",
"590 879 CURVE SMOOTH",
"590 948 OFFCURVE",
"539 1001 OFFCURVE",
"468 1001 CURVE SMOOTH",
"387 1001 OFFCURVE",
"316 930 OFFCURVE",
"316 849 CURVE SMOOTH",
"316 780 OFFCURVE",
"367 728 OFFCURVE",
"439 728 CURVE SMOOTH"
);
},
{
closed = 1;
nodes = (
"423 825 OFFCURVE",
"412 836 OFFCURVE",
"412 849 CURVE SMOOTH",
"412 877 OFFCURVE",
"444 904 OFFCURVE",
"470 904 CURVE SMOOTH",
"486 904 OFFCURVE",
"497 890 OFFCURVE",
"495 876 CURVE SMOOTH",
"490 849 OFFCURVE",
"462 825 OFFCURVE",
"437 825 CURVE SMOOTH"
);
}
);
width = 724;
},
{
layerId = "3129A168-24FD-451B-9986-F27775A960CA";
paths = (
{
closed = 1;
nodes = (
"24 0 LINE",
"135 192 LINE",
"174 163 LINE",
"431 163 LINE",
"480 192 LINE",
"522 0 LINE",
"573 0 LINE",
"577 25 LINE",
"433 700 LINE",
"357 700 LINE",
"-25 25 LINE",
"-29 0 LINE"
);
},
{
closed = 1;
nodes = (
"418 696 LINE",
"374 696 LINE",
"475 214 LINE",
"147 214 LINE"
);
},
{
closed = 1;
nodes = (
"458 744 OFFCURVE",
"505 790 OFFCURVE",
"505 842 CURVE SMOOTH",
"505 883 OFFCURVE",
"475 915 OFFCURVE",
"431 915 CURVE SMOOTH",
"381 915 OFFCURVE",
"333 871 OFFCURVE",
"333 819 CURVE SMOOTH",
"333 777 OFFCURVE",
"364 744 OFFCURVE",
"408 744 CURVE SMOOTH"
);
},
{
closed = 1;
nodes = (
"390 789 OFFCURVE",
"377 801 OFFCURVE",
"377 819 CURVE SMOOTH",
"377 846 OFFCURVE",
"403 870 OFFCURVE",
"431 870 CURVE SMOOTH",
"448 870 OFFCURVE",
"460 858 OFFCURVE",
"460 841 CURVE SMOOTH",
"460 813 OFFCURVE",
"433 789 OFFCURVE",
"409 789 CURVE SMOOTH"
);
}
);
width = 668;
}
);
leftKerningGroup = A;
leftMetricsKey = A;
rightKerningGroup = A;
rightMetricsKey = A;
unicode = 00C5;
},
{
glyphname = AE;
lastChange = "2018-12-19 14:48:38 +0000";
layers = (
{
guideLines = (
{
position = "{476, 478}";
},
{
angle = 61.4104;
position = "{-19, 122}";
},
{
position = "{-40, 61}";
},
{
angle = 62.2684;
position = "{-74, 61}";
},
{
position = "{527, 151}";
},
{
position = "{667, 549}";
},
{
angle = 244.359;
position = "{528, 577}";
}
);
layerId = "631A315E-0C3F-4988-8BF6-333737037850";
paths = (
{
closed = 1;
nodes = (
"112 0 LINE",
"210 150 LINE",
"255 128 LINE",
"347 128 LINE",
"400 150 LINE",
"373 0 LINE",
"840 0 LINE",
"867 149 LINE",
"560 149 LINE",
"582 275 LINE",
"755 295 LINE",
"775 406 LINE",
"608 426 LINE",
"630 551 LINE",
"937 551 LINE",
"964 700 LINE",
"418 700 LINE",
"-25 61 LINE",
"-34 0 LINE"
);
},
{
closed = 1;
nodes = (
"489 577 LINE",
"475 582 LINE",
"422 277 LINE",
"293 277 LINE"
);
}
);
width = 953;
},
{
guideLines = (
{
angle = 241.3318;
position = "{-87, 25}";
},
{
angle = 90;
position = "{556, 700}";
},
{
angle = 61.9723;
position = "{-107, 96}";
},
{
position = "{728, 425}";
}
);
layerId = "3129A168-24FD-451B-9986-F27775A960CA";
paths = (
{
closed = 1;
nodes = (
"21 0 LINE",
"160 192 LINE",
"199 163 LINE",
"357 163 LINE",
"406 192 LINE",
"371 0 LINE",
"841 0 LINE",
"851 54 LINE",
"440 54 LINE",
"487 324 LINE",
"728 331 LINE",
"735 371 LINE",
"497 378 LINE",
"544 646 LINE",
"955 646 LINE",
"965 700 LINE",
"463 700 LINE",
"-25 25 LINE",
"-29 0 LINE"
);
},
{
closed = 1;
nodes = (
"523 695 LINE",
"495 700 LINE",
"409 214 LINE",
"176 214 LINE"
);
}
);
width = 964;
}
);
leftMetricsKey = A;
rightKerningGroup = E;
rightMetricsKey = E;
unicode = 00C6;
},
{
glyphname = B;
lastChange = "2018-12-19 14:48:38 +0000";
layers = (
{
anchors = (
{
name = bottom;
position = "{288, 0}";
},
{
name = top;
position = "{412, 700}";
}
);
background = {
paths = (
{
closed = 1;
nodes = (
"429 0 LINE SMOOTH",
"550 0 OFFCURVE",
"649 95 OFFCURVE",
"649 216 CURVE SMOOTH",
"649 288 OFFCURVE",
"614 338 OFFCURVE",
"566 375 CURVE",
"601 409 OFFCURVE",
"619 445 OFFCURVE",
"619 493 CURVE SMOOTH",
"619 604 OFFCURVE",
"525 700 OFFCURVE",
"409 700 CURVE SMOOTH",
"77 700 LINE",
"77 0 LINE"
);
},
{
closed = 1;
nodes = (
"239 286 LINE",
"432 286 LINE SMOOTH",
"463 286 OFFCURVE",
"488 257 OFFCURVE",
"488 221 CURVE SMOOTH",
"488 185 OFFCURVE",
"463 151 OFFCURVE",
"432 151 CURVE SMOOTH",
"239 151 LINE"
);
},
{
closed = 1;
nodes = (
"239 549 LINE",
"411 549 LINE SMOOTH",
"438 549 OFFCURVE",
"460 525 OFFCURVE",
"460 490 CURVE SMOOTH",
"460 454 OFFCURVE",
"438 424 OFFCURVE",
"411 424 CURVE SMOOTH",
"239 424 LINE"
);
}
);
};
guideLines = (
{
position = "{482, 551}";
},
{
angle = 270;
position = "{54, 234}";
},
{
position = "{166, 149}";
}
);
layerId = "631A315E-0C3F-4988-8BF6-333737037850";
paths = (
{
closed = 1;
nodes = (
"372 0 LINE SMOOTH",
"506 0 OFFCURVE",
"626 111 OFFCURVE",
"626 240 CURVE SMOOTH",
"626 315 OFFCURVE",
"586 367 OFFCURVE",
"502 390 CURVE",
"503 350 LINE",
"602 380 OFFCURVE",
"648 449 OFFCURVE",
"648 532 CURVE SMOOTH",
"648 640 OFFCURVE",
"569 700 OFFCURVE",
"466 700 CURVE SMOOTH",
"139 700 LINE",
"15 0 LINE"
);
},
{
closed = 1;
nodes = (
"226 288 LINE",
"426 288 LINE SMOOTH",
"453 288 OFFCURVE",
"468 271 OFFCURVE",
"468 243 CURVE SMOOTH",
"468 197 OFFCURVE",
"426 149 OFFCURVE",
"392 149 CURVE SMOOTH",
"202 149 LINE"
);
},
{
closed = 1;
nodes = (
"272 551 LINE",
"451 551 LINE SMOOTH",
"474 551 OFFCURVE",
"488 537 OFFCURVE",
"488 513 CURVE SMOOTH",
"488 475 OFFCURVE",
"454 422 OFFCURVE",
"419 422 CURVE SMOOTH",
"250 422 LINE"
);
}
);
width = 700;
},
{
anchors = (
{
name = bottom;
position = "{278, 0}";
},
{
name = top;
position = "{402, 700}";
}
);
background = {
paths = (
{
closed = 1;
nodes = (
"399 544 OFFCURVE",
"421 520 OFFCURVE",
"421 490 CURVE SMOOTH",
"421 454 OFFCURVE",
"399 424 OFFCURVE",
"372 424 CURVE",
"337 305 LINE",
"469 305 OFFCURVE",
"577 388 OFFCURVE",
"577 490 CURVE SMOOTH",
"577 606 OFFCURVE",
"483 700 OFFCURVE",
"367 700 CURVE",
"189 700 LINE",
"189 544 LINE",
"372 544 LINE"
);
}
);
};
guideLines = (
{
angle = 90;
position = "{218, -136}";
}
);
layerId = "3129A168-24FD-451B-9986-F27775A960CA";
paths = (
{
closed = 1;
nodes = (
"309 0 LINE SMOOTH",
"444 0 OFFCURVE",
"580 105 OFFCURVE",
"580 232 CURVE SMOOTH",
"580 307 OFFCURVE",
"531 369 OFFCURVE",
"455 394 CURVE",
"456 368 LINE",
"537 398 OFFCURVE",
"602 470 OFFCURVE",
"602 550 CURVE SMOOTH",
"602 635 OFFCURVE",
"528 700 OFFCURVE",
"427 700 CURVE SMOOTH",
"149 700 LINE",
"25 0 LINE"
);
},
{
closed = 1;
nodes = (
"147 353 LINE",
"369 353 LINE SMOOTH",
"457 353 OFFCURVE",
"521 300 OFFCURVE",
"521 228 CURVE SMOOTH",
"521 136 OFFCURVE",
"419 54 OFFCURVE",
"315 54 CURVE SMOOTH",
"94 54 LINE"
);
},
{
closed = 1;
nodes = (
"198 646 LINE",
"421 646 LINE SMOOTH",
"493 646 OFFCURVE",
"542 603 OFFCURVE",
"542 546 CURVE SMOOTH",
"542 473 OFFCURVE",
"461 407 OFFCURVE",
"377 407 CURVE SMOOTH",
"156 407 LINE"
);
}
);
width = 653;
}
);
leftKerningGroup = I;
leftMetricsKey = N;
rightKerningGroup = O;
unicode = 0042;
},
{
glyphname = C;
lastChange = "2018-12-19 14:48:38 +0000";
layers = (
{
anchors = (
{
name = bottom;
position = "{348, 0}";
},
{
name = top;
position = "{472, 700}";
}
);
background = {
paths = (
{
closed = 1;
nodes = (
"544 517 OFFCURVE",
"484 554 OFFCURVE",
"415 554 CURVE",
"305 554 OFFCURVE",
"215 462 OFFCURVE",
"215 350 CURVE",
"215 238 OFFCURVE",
"305 146 OFFCURVE",
"415 146 CURVE",
"497 146 OFFCURVE",
"567 197 OFFCURVE",
"597 269 CURVE",
"770 269 LINE",
"734 107 OFFCURVE",
"588 -15 OFFCURVE",
"415 -15 CURVE",
"213 -15 OFFCURVE",
"48 149 OFFCURVE",
"49 350 CURVE",
"50 551 OFFCURVE",
"215 715 OFFCURVE",
"415 715 CURVE",
"576 715 OFFCURVE",
"714 608 OFFCURVE",
"761 461 CURVE",
"580 461 LINE"
);
}
);
};
guideLines = (
{
position = "{661, 461}";
},
{
angle = -61.5809;
position = "{647, 269}";
},
{
angle = 90;
position = "{687, 701}";
},
{
angle = 61.4293;
position = "{705, 431}";
}
);
layerId = "631A315E-0C3F-4988-8BF6-333737037850";
paths = (
{
closed = 1;
nodes = (
"490 -15 OFFCURVE",
"618 54 OFFCURVE",
"700 163 CURVE",
"660 269 LINE",
"584 274 LINE",
"541 200 OFFCURVE",
"458 142 OFFCURVE",
"369 142 CURVE",
"272 142 OFFCURVE",
"206 210 OFFCURVE",
"206 305 CURVE SMOOTH",
"206 432 OFFCURVE",
"326 558 OFFCURVE",
"461 558 CURVE",
"540 558 OFFCURVE",
"599 512 OFFCURVE",
"616 436 CURVE",
"692 431 LINE",
"762 527 LINE",
"716 636 OFFCURVE",
"610 715 OFFCURVE",
"470 715 CURVE",
"250 715 OFFCURVE",
"45 519 OFFCURVE",
"45 296 CURVE SMOOTH",
"45 118 OFFCURVE",
"176 -15 OFFCURVE",
"360 -15 CURVE"
);
}
);
width = 806;
},
{
anchors = (
{
name = bottom;
position = "{334, 0}";
},
{
name = top;
position = "{458, 700}";
}
);
background = {
paths = (
{
closed = 1;
nodes = (
"669 42 OFFCURVE",
"741 141 CURVE",
"709 198 LINE",
"687 198 LINE",
"636 113 OFFCURVE",
"544 39 OFFCURVE",
"438 39 CURVE SMOOTH",
"277 39 OFFCURVE",
"128 191 OFFCURVE",
"128 350 CURVE SMOOTH",
"128 509 OFFCURVE",
"277 661 OFFCURVE",
"438 661 CURVE SMOOTH",
"544 661 OFFCURVE",
"636 587 OFFCURVE",
"687 502 CURVE",
"709 502 LINE",
"741 559 LINE",
"671 656 OFFCURVE",
"564 713 OFFCURVE",
"437 715 CURVE SMOOTH",
"240 718 OFFCURVE",
"69 547 OFFCURVE",
"69 350 CURVE SMOOTH",
"69 153 OFFCURVE",
"240 -18 OFFCURVE",
"437 -15 CURVE SMOOTH",
"561 -13 OFFCURVE"
);
}
);
};
guideLines = (
{
position = "{741, 502}";
},
{
position = "{633, 198}";
},
{
angle = -65.254;
position = "{661, 198}";
},
{
angle = 65.254;
position = "{769, 502}";
}
);
layerId = "3129A168-24FD-451B-9986-F27775A960CA";
paths = (
{
closed = 1;
nodes = (
"492 -15 OFFCURVE",
"618 52 OFFCURVE",
"701 156 CURVE",
"688 198 LINE",
"662 200 LINE",
"591 106 OFFCURVE",
"478 39 OFFCURVE",
"365 39 CURVE SMOOTH",
"219 39 OFFCURVE",
"112 153 OFFCURVE",
"112 295 CURVE SMOOTH",
"112 482 OFFCURVE",
"297 661 OFFCURVE",
"482 661 CURVE SMOOTH",
"588 661 OFFCURVE",
"677 602 OFFCURVE",
"715 504 CURVE",
"742 502 LINE",
"766 539 LINE",
"720 644 OFFCURVE",
"616 715 OFFCURVE",
"485 715 CURVE SMOOTH",
"261 715 OFFCURVE",
"53 511 OFFCURVE",
"53 290 CURVE SMOOTH",
"53 116 OFFCURVE",
"183 -15 OFFCURVE",
"363 -15 CURVE SMOOTH"
);
}
);
width = 793;
}
);
leftKerningGroup = O;
leftMetricsKey = O;
rightMetricsKey = "=O-1";
unicode = 0043;
},
{
glyphname = D;
lastChange = "2019-01-11 11:58:50 +0000";
layers = (
{
anchors = (
{
name = bottom;
position = "{318, 0}";
},
{
name = center;
position = "{200, 350}";
},
{
name = top;
position = "{402, 700}";
}
);
layerId = "631A315E-0C3F-4988-8BF6-333737037850";
paths = (
{
closed = 1;
nodes = (
"283 0 LINE SMOOTH",
"500 0 OFFCURVE",
"707 180 OFFCURVE",
"707 397 CURVE SMOOTH",
"707 570 OFFCURVE",
"576 700 OFFCURVE",
"397 700 CURVE SMOOTH",
"139 700 LINE",
"15 0 LINE"
);
},
{
closed = 1;
nodes = (
"202 149 LINE",
"272 551 LINE",
"380 551 LINE SMOOTH",
"478 551 OFFCURVE",
"545 488 OFFCURVE",
"545 393 CURVE SMOOTH",
"545 267 OFFCURVE",
"429 149 OFFCURVE",
"300 149 CURVE SMOOTH"
);
}
);
width = 752;
},
{
anchors = (
{
name = bottom;
position = "{322, 0}";
},
{
name = center;
position = "{218, 350}";
},
{
name = top;
position = "{446, 700}";
}
);
background = {
paths = (
{
closed = 1;
nodes = (
"498 629 OFFCURVE",
"631 503 OFFCURVE",
"631 348 CURVE SMOOTH",
"631 196 OFFCURVE",
"498 71 OFFCURVE",
"335 71 CURVE SMOOTH",
"156 71 LINE",
"156 629 LINE",
"335 629 LINE SMOOTH"
);
},
{
closed = 1;
nodes = (
"540 0 OFFCURVE",
"707 157 OFFCURVE",
"707 348 CURVE SMOOTH",
"707 542 OFFCURVE",
"540 700 OFFCURVE",
"335 700 CURVE SMOOTH",
"80 700 LINE",
"80 0 LINE",
"335 0 LINE SMOOTH"
);
}
);
};
layerId = "3129A168-24FD-451B-9986-F27775A960CA";
paths = (
{
closed = 1;
nodes = (
"275 0 LINE SMOOTH",
"492 0 OFFCURVE",
"703 185 OFFCURVE",
"703 403 CURVE SMOOTH",
"703 573 OFFCURVE",
"574 700 OFFCURVE",
"395 700 CURVE SMOOTH",
"149 700 LINE",
"25 0 LINE"
);
},
{
closed = 1;
nodes = (
"94 54 LINE",
"198 646 LINE",
"389 646 LINE SMOOTH",
"539 646 OFFCURVE",
"645 541 OFFCURVE",
"645 402 CURVE SMOOTH",
"645 223 OFFCURVE",
"470 54 OFFCURVE",
"281 54 CURVE SMOOTH"
);
}
);
width = 757;
}
);
leftKerningGroup = I;
leftMetricsKey = N;
rightKerningGroup = O;
rightMetricsKey = O;
unicode = 0044;
},
{
glyphname = E;
lastChange = "2018-12-19 14:48:38 +0000";
layers = (
{
anchors = (
{
name = bottom;
position = "{259, 0}";
},
{
name = ogonek;
position = "{555, 10}";
},
{
name = top;
position = "{373, 702}";
},
{
name = topleft;
position = "{97, 700}";
}
);
background = {
paths = (
{
closed = 1;
nodes = (
"95 0 LINE",
"261 0 LINE",
"261 700 LINE",
"95 700 LINE"
);
},
{
closed = 1;
nodes = (
"261 539 LINE",
"566 539 LINE",
"566 700 LINE",
"261 700 LINE"
);
},
{
closed = 1;
nodes = (
"261 0 LINE",
"566 0 LINE",
"566 161 LINE",
"261 161 LINE"
);
},
{
closed = 1;
nodes = (
"261 270 LINE",
"429 290 LINE",
"429 411 LINE",
"261 431 LINE"
);
}
);
};
guideLines = (
{
position = "{302, 198}";
}
);
layerId = "631A315E-0C3F-4988-8BF6-333737037850";
paths = (
{
closed = 1;
nodes = (
"504 0 LINE",
"531 149 LINE",
"202 149 LINE",
"224 275 LINE",
"419 295 LINE",
"439 406 LINE",
"250 426 LINE",
"272 551 LINE",
"601 551 LINE",
"628 700 LINE",
"139 700 LINE",
"15 0 LINE"
);
}
);
width = 617;
},
{
anchors = (
{
name = bottom;
position = "{250, 0}";
},
{
name = ogonek;
position = "{541, 23}";
},
{
name = top;
position = "{374, 700}";
},
{
name = topleft;
position = "{109, 700}";
}
);
background = {
paths = (
{
closed = 1;
nodes = (
"557 0 LINE",
"557 71 LINE",
"146 71 LINE",
"146 312 LINE",
"385 327 LINE",
"385 375 LINE",
"146 390 LINE",
"146 629 LINE",
"557 629 LINE",
"557 700 LINE",
"70 700 LINE",
"70 0 LINE"
);
}
);
};
layerId = "3129A168-24FD-451B-9986-F27775A960CA";
paths = (
{
closed = 1;
nodes = (
"495 0 LINE",
"505 54 LINE",
"94 54 LINE",
"141 324 LINE",
"382 331 LINE",
"389 371 LINE",
"151 378 LINE",
"198 646 LINE",
"609 646 LINE",
"619 700 LINE",
"149 700 LINE",
"25 0 LINE"
);
}
);
width = 618;
}
);
leftKerningGroup = I;
leftMetricsKey = N;
rightKerningGroup = E;
unicode = 0045;
},
{
glyphname = F;
lastChange = "2018-12-19 14:48:38 +0000";
layers = (
{
anchors = (
{
name = bottom;
position = "{259, 0}";
},
{
name = top;
position = "{383, 700}";
}
);
layerId = "631A315E-0C3F-4988-8BF6-333737037850";
paths = (
{
closed = 1;
nodes = (
"175 0 LINE",
"299 700 LINE",
"139 700 LINE",
"15 0 LINE"
);
},
{
closed = 1;
nodes = (
"417 295 LINE",
"437 406 LINE",
"250 426 LINE",
"224 275 LINE"
);
},
{
closed = 1;
nodes = (
"599 551 LINE",
"626 700 LINE",
"299 700 LINE",
"272 551 LINE"
);
}
);
width = 612;
},
{
anchors = (
{
name = bottom;
position = "{250, 0}";
},
{
name = top;
position = "{374, 700}";
}
);
layerId = "3129A168-24FD-451B-9986-F27775A960CA";
paths = (
{
closed = 1;
nodes = (
"84 0 LINE",
"208 700 LINE",
"149 700 LINE",
"25 0 LINE"
);
},
{
closed = 1;
nodes = (
"383 331 LINE",
"389 371 LINE",
"151 378 LINE",
"141 324 LINE"
);
},
{
closed = 1;
nodes = (
"610 646 LINE",
"619 700 LINE",
"208 700 LINE",
"198 646 LINE"
);
}
);
width = 616;
}
);
leftKerningGroup = I;
leftMetricsKey = N;
unicode = 0046;
},
{
glyphname = G;
lastChange = "2018-12-19 14:48:38 +0000";
layers = (
{
anchors = (
{
name = bottom;
position = "{345, 0}";
},
{
name = top;
position = "{469, 700}";
}
);
background = {
paths = (
{
closed = 1;
nodes = (
"671 238 LINE",
"671 399 LINE",
"366 399 LINE",
"366 238 LINE"
);
},
{
closed = 1;
nodes = (
"610 382 OFFCURVE",
"613 360 OFFCURVE",
"613 350 CURVE",
"614 238 OFFCURVE",
"525 146 OFFCURVE",
"415 146 CURVE",
"305 146 OFFCURVE",
"215 238 OFFCURVE",
"215 350 CURVE",
"215 462 OFFCURVE",
"305 554 OFFCURVE",
"415 554 CURVE",
"473 554 OFFCURVE",
"547 512 OFFCURVE",
"580 461 CURVE",
"761 461 LINE",
"716 601 OFFCURVE",
"560 715 OFFCURVE",
"415 715 CURVE",
"215 715 OFFCURVE",
"50 551 OFFCURVE",
"49 350 CURVE",
"48 149 OFFCURVE",
"213 -15 OFFCURVE",
"415 -15 CURVE",
"616 -15 OFFCURVE",
"780 149 OFFCURVE",
"779 350 CURVE",
"779 364 OFFCURVE",
"778 386 OFFCURVE",
"776 399 CURVE",
"607 399 LINE"
);
}
);
};
guideLines = (
{
position = "{633, 461}";
},
{
position = "{613, 399}";
},
{
angle = -61.429;
position = "{700, 399}";
},
{
angle = 61.4293;
position = "{722, 461}";
}
);
layerId = "631A315E-0C3F-4988-8BF6-333737037850";
paths = (
{
closed = 1;
nodes = (
"522 -15 OFFCURVE",
"677 92 OFFCURVE",
"747 243 CURVE",
"689 394 LINE",
"374 394 LINE",
"347 245 LINE",
"563 250 LINE",
"524 185 OFFCURVE",
"444 144 OFFCURVE",
"370 144 CURVE SMOOTH",
"273 144 OFFCURVE",
"208 213 OFFCURVE",
"208 303 CURVE SMOOTH",
"208 428 OFFCURVE",
"331 556 OFFCURVE",
"455 556 CURVE SMOOTH",
"520 556 OFFCURVE",
"580 520 OFFCURVE",
"605 466 CURVE",
"704 461 LINE",
"755 532 LINE",
"705 632 OFFCURVE",
"600 715 OFFCURVE",
"464 715 CURVE SMOOTH",
"252 715 OFFCURVE",
"45 515 OFFCURVE",
"45 294 CURVE SMOOTH",
"45 119 OFFCURVE",
"176 -15 OFFCURVE",
"359 -15 CURVE SMOOTH"
);
}
);
width = 797;
},
{
anchors = (
{
name = bottom;
position = "{359, 0}";
},
{
name = top;
position = "{483, 700}";
}
);
background = {
paths = (
{
closed = 1;
nodes = (
"713 188 OFFCURVE",
"583 56 OFFCURVE",
"425 56 CURVE SMOOTH",
"265 56 OFFCURVE",
"135 188 OFFCURVE",
"135 350 CURVE SMOOTH",
"135 512 OFFCURVE",
"265 644 OFFCURVE",
"425 644 CURVE SMOOTH",
"513 644 OFFCURVE",
"593 602 OFFCURVE",
"646 537 CURVE",
"704 537 LINE",
"719 564 LINE",
"653 656 OFFCURVE",
"545 715 OFFCURVE",
"425 715 CURVE SMOOTH",
"224 715 OFFCURVE",
"59 550 OFFCURVE",
"59 348 CURVE SMOOTH",
"59 148 OFFCURVE",
"224 -15 OFFCURVE",
"425 -15 CURVE SMOOTH",
"594 -15 OFFCURVE",
"738 103 OFFCURVE",
"778 260 CURVE",
"729 349 LINE",
"713 349 LINE"
);
},
{
closed = 1;
nodes = (
"428 278 LINE",
"729 278 LINE",
"729 349 LINE",
"428 349 LINE"
);
}
);
};
guideLines = (
{
position = "{712, 537}";
},
{
angle = 60.9234;
position = "{770, 537}";
},
{
position = "{403, 278}";
},
{
angle = 118.728;
position = "{745, 349}";
},
{
position = "{428, 349}";
}
);
layerId = "3129A168-24FD-451B-9986-F27775A960CA";
paths = (
{
closed = 1;
nodes = (
"540 -15 OFFCURVE",
"709 111 OFFCURVE",
"771 279 CURVE",
"744 349 LINE",
"428 349 LINE",
"418 295 LINE",
"715 297 LINE",
"664 156 OFFCURVE",
"515 39 OFFCURVE",
"366 39 CURVE SMOOTH",
"220 39 OFFCURVE",
"113 153 OFFCURVE",
"113 295 CURVE SMOOTH",
"113 483 OFFCURVE",
"299 661 OFFCURVE",
"484 661 CURVE SMOOTH",
"578 661 OFFCURVE",
"657 614 OFFCURVE",
"699 539 CURVE",
"738 537 LINE",
"756 562 LINE",
"705 654 OFFCURVE",
"607 715 OFFCURVE",
"486 715 CURVE SMOOTH",
"266 715 OFFCURVE",
"54 515 OFFCURVE",
"54 291 CURVE SMOOTH",
"54 117 OFFCURVE",
"183 -15 OFFCURVE",
"364 -15 CURVE SMOOTH"
);
}
);
width = 839;
}
);
leftKerningGroup = O;
leftMetricsKey = O;
rightKerningGroup = O;
rightMetricsKey = "=O-3";
unicode = 0047;
},
{
glyphname = H;
lastChange = "2018-12-19 14:48:38 +0000";
layers = (
{
anchors = (
{
name = bottom;
position = "{322, 0}";
},
{
name = center;
position = "{384, 350}";
},
{
name = top;
position = "{446, 700}";
},
{
name = topleft;
position = "{82, 700}";
}
);
guideLines = (
{
angle = -23.7495;
position = "{215, 276}";
}
);
layerId = "631A315E-0C3F-4988-8BF6-333737037850";
paths = (
{
closed = 1;
nodes = (
"175 0 LINE",
"224 275 LINE",
"271 255 LINE",
"465 255 LINE",
"518 275 LINE",
"469 0 LINE",
"629 0 LINE",
"753 700 LINE",
"593 700 LINE",
"542 414 LINE",
"248 414 LINE",
"299 700 LINE",
"139 700 LINE",
"15 0 LINE"
);
}
);
width = 766;
},
{
anchors = (
{
name = bottom;
position = "{272, 0}";
},
{
name = center;
position = "{334, 350}";
},
{
name = top;
position = "{396, 700}";
},
{
name = topleft;
position = "{122, 700}";
}
);
background = {
paths = (
{
closed = 1;
nodes = (
"557 0 LINE",
"557 54 LINE",
"146 54 LINE",
"146 324 LINE",
"385 331 LINE",
"385 371 LINE",
"146 378 LINE",
"146 646 LINE",
"557 646 LINE",
"557 700 LINE",
"87 700 LINE",
"87 0 LINE"
);
}
);
};
guideLines = (
{
position = "{143, 339}";
},
{
angle = 23.749;
position = "{518, 339}";
}
);
layerId = "3129A168-24FD-451B-9986-F27775A960CA";
paths = (
{
closed = 1;
nodes = (
"84 0 LINE",
"144 339 LINE",
"197 314 LINE",
"479 314 LINE",
"540 339 LINE",
"480 0 LINE",
"539 0 LINE",
"663 700 LINE",
"604 700 LINE",
"545 368 LINE",
"149 368 LINE",
"208 700 LINE",
"149 700 LINE",
"25 0 LINE"
);
}
);
width = 686;
}
);
leftKerningGroup = N;
leftMetricsKey = N;
rightKerningGroup = N;
rightMetricsKey = N;
unicode = 0048;
},
{
glyphname = Hbar;
lastChange = "2019-03-21 13:40:50 +0000";
layers = (
{
guideLines = (
{
angle = 90;
position = "{195, 277}";
},
{
angle = 90;
position = "{491, 276}";
}
);
layerId = "631A315E-0C3F-4988-8BF6-333737037850";
paths = (
{
closed = 1;
nodes = (
"616 0 LINE",
"740 700 LINE",
"574 700 LINE",
"450 0 LINE"
);
},
{
closed = 1;
nodes = (
"164 0 LINE",
"288 700 LINE",
"122 700 LINE",
"-2 0 LINE"
);
},
{
closed = 1;
nodes = (
"446 254 LINE",
"505 276 LINE",
"528 415 LINE",
"232 415 LINE",
"209 276 LINE",
"260 254 LINE"
);
},
{
closed = 1;
nodes = (
"620 501 LINE",
"638 604 LINE",
"178 604 LINE",
"160 501 LINE"
);
}
);
width = 738;
},
{
layerId = "3129A168-24FD-451B-9986-F27775A960CA";
paths = (
{
closed = 1;
nodes = (
"472 0 LINE",
"596 700 LINE",
"537 700 LINE",
"413 0 LINE"
);
},
{
closed = 1;
nodes = (
"37 0 LINE",
"161 700 LINE",
"102 700 LINE",
"-22 0 LINE"
);
},
{
closed = 1;
nodes = (
"412 314 LINE",
"473 339 LINE",
"478 368 LINE",
"102 368 LINE",
"97 339 LINE",
"150 314 LINE"
);
},
{
closed = 1;
nodes = (
"503 506 LINE",
"512 558 LINE",
"136 558 LINE",
"127 506 LINE"
);
}
);
width = 574;
}
);
unicode = 0126;
},
{
glyphname = I;
lastChange = "2018-12-19 14:48:38 +0000";
layers = (
{
anchors = (
{
name = bottom;
position = "{98, 0}";
},
{
name = ogonek;
position = "{231, 10}";
},
{
name = top;
position = "{222, 700}";
},
{
name = topleft;
position = "{99, 700}";
}
);
guideLines = (
{
angle = 90;
position = "{283, 700}";
}
);
layerId = "631A315E-0C3F-4988-8BF6-333737037850";
paths = (
{
closed = 1;
nodes = (
"178 0 LINE",
"302 700 LINE",
"142 700 LINE",
"18 0 LINE"
);
}
);
width = 320;
},
{
anchors = (
{
name = bottom;
position = "{53, 0}";
},
{
name = ogonek;
position = "{126, 10}";
},
{
name = top;
position = "{177, 700}";
},
{
name = topleft;
position = "{107, 700}";
}
);
layerId = "3129A168-24FD-451B-9986-F27775A960CA";
paths = (
{
closed = 1;
nodes = (
"82 0 LINE",
"206 700 LINE",
"147 700 LINE",
"23 0 LINE"
);
}
);
width = 192;
}
);
leftKerningGroup = N;
rightKerningGroup = N;
unicode = 0049;
},
{
glyphname = J;
lastChange = "2018-12-19 14:48:38 +0000";
layers = (
{
anchors = (
{
name = bottom;
position = "{218, 0}";
},
{
name = top;
position = "{342, 700}";
}
);
background = {
paths = (
{
closed = 1;
nodes = (
"336 267 LINE",
"336 200 OFFCURVE",
"282 146 OFFCURVE",
"217 146 CURVE",
"150 146 OFFCURVE",
"96 200 OFFCURVE",
"96 267 CURVE",
"-70 267 LINE",
"-71 112 OFFCURVE",
"58 -15 OFFCURVE",
"217 -15 CURVE",
"375 -15 OFFCURVE",
"503 112 OFFCURVE",
"502 267 CURVE"
);
}
);
};
guideLines = (
{
angle = -90;
position = "{-36, 128}";
},
{
position = "{-117, 172}";
}
);
layerId = "631A315E-0C3F-4988-8BF6-333737037850";
paths = (
{
closed = 1;
nodes = (
"304 -15 OFFCURVE",
"453 89 OFFCURVE",
"484 262 CURVE SMOOTH",
"562 700 LINE",
"402 700 LINE",
"326 272 LINE SMOOTH",
"314 201 OFFCURVE",
"244 140 OFFCURVE",
"177 140 CURVE SMOOTH",
"148 140 OFFCURVE",
"120 151 OFFCURVE",
"105 168 CURVE",
"2 128 LINE",
"-7 47 LINE",
"30 15 OFFCURVE",
"98 -15 OFFCURVE",
"170 -15 CURVE SMOOTH"
);
}
);
width = 577;
},
{
anchors = (
{
name = bottom;
position = "{173, 0}";
},
{
name = top;
position = "{297, 700}";
}
);
background = {
paths = (
{
closed = 1;
nodes = (
"297 -20 OFFCURVE",
"410 111 OFFCURVE",
"410 256 CURVE SMOOTH",
"410 701 LINE",
"334 701 LINE",
"334 256 LINE SMOOTH",
"334 151 OFFCURVE",
"269 57 OFFCURVE",
"170 57 CURVE SMOOTH",
"148 57 OFFCURVE",
"117 65 OFFCURVE",
"91 80 CURVE",
"45 56 LINE",
"45 28 LINE",
"76 7 OFFCURVE",
"127 -12 OFFCURVE",
"171 -14 CURVE SMOOTH"
);
}
);
};
guideLines = (
{
angle = 207.5528;
position = "{-4, 80}";
},
{
angle = 90;
position = "{-59, 56}";
}
);
layerId = "3129A168-24FD-451B-9986-F27775A960CA";
paths = (
{
closed = 1;
nodes = (
"243 -15 OFFCURVE",
"366 101 OFFCURVE",
"391 245 CURVE SMOOTH",
"471 698 LINE",
"411 698 LINE",
"332 249 LINE SMOOTH",
"312 135 OFFCURVE",
"215 39 OFFCURVE",
"119 39 CURVE SMOOTH",
"86 39 OFFCURVE",
"56 51 OFFCURVE",
"33 73 CURVE",
"-2 56 LINE",
"-5 30 LINE",
"26 2 OFFCURVE",
"68 -15 OFFCURVE",
"116 -15 CURVE SMOOTH"
);
}
);
width = 480;
}
);
unicode = 004A;
},
{
glyphname = K;
lastChange = "2018-12-19 14:48:38 +0000";
layers = (
{
anchors = (
{
name = bottom;
position = "{284, 0}";
},
{
name = top;
position = "{408, 700}";
}
);
background = {
paths = (
{
closed = 1;
nodes = (
"241 0 LINE",
"241 700 LINE",
"75 700 LINE",
"75 0 LINE"
);
},
{
closed = 1;
nodes = (
"616 0 LINE",
"616 112 LINE",
"387 400 LINE",
"260 282 LINE",
"484 0 LINE"
);
},
{
closed = 1;
nodes = (
"146 350 LINE",
"146 118 LINE",
"586 589 LINE",
"586 701 LINE",
"474 701 LINE"
);
}
);
};
guideLines = (
{
angle = 226.9401;
position = "{670, 589}";
},
{
angle = 226.9401;
position = "{598, 701}";
},
{
angle = -51.5104;
position = "{196, 282}";
},
{
angle = -51.5104;
position = "{405, 400}";
}
);
layerId = "631A315E-0C3F-4988-8BF6-333737037850";
paths = (
{
closed = 1;
nodes = (
"175 0 LINE",
"221 265 LINE",
"180 187 LINE",
"307 298 LINE",
"265 300 LINE",
"446 0 LINE",
"574 0 LINE",
"588 88 LINE",
"374 422 LINE",
"362 354 LINE",
"653 610 LINE",
"668 701 LINE",
"543 701 LINE",
"231 417 LINE",
"248 410 LINE",
"299 700 LINE",
"139 700 LINE",
"15 0 LINE"
);
}
);
width = 672;
},
{
anchors = (
{
name = bottom;
position = "{260, 0}";
},
{
name = top;
position = "{384, 700}";
}
);
guideLines = (
{
angle = 49.1327;
position = "{108, 241}";
},
{
angle = -53.5836;
position = "{380, 0}";
}
);
layerId = "3129A168-24FD-451B-9986-F27775A960CA";
paths = (
{
closed = 1;
nodes = (
"84 0 LINE",
"134 286 LINE",
"92 207 LINE",
"279 387 LINE",
"224 389 LINE",
"442 0 LINE",
"503 0 LINE",
"505 14 LINE",
"269 434 LINE",
"256 364 LINE",
"593 689 LINE",
"595 700 LINE",
"528 700 LINE",
"107 295 LINE",
"135 284 LINE",
"208 700 LINE",
"149 700 LINE",
"25 0 LINE"
);
}
);
width = 605;
}
);
leftKerningGroup = N;
leftMetricsKey = N;
unicode = 004B;
},
{
glyphname = L;
lastChange = "2018-12-19 14:48:38 +0000";
layers = (
{
anchors = (
{
name = bottom;
position = "{249, 0}";
},
{
name = center;
position = "{171, 350}";
},
{
name = top;
position = "{373, 700}";
},
{
name = topright;
position = "{648, 700}";
}
);
layerId = "631A315E-0C3F-4988-8BF6-333737037850";
paths = (
{
closed = 1;
nodes = (
"484 0 LINE",
"511 149 LINE",
"202 149 LINE",
"299 700 LINE",
"139 700 LINE",
"15 0 LINE"
);
}
);
width = 591;
},
{
anchors = (
{
name = bottom;
position = "{204, 0}";
},
{
name = center;
position = "{116, 350}";
},
{
name = top;
position = "{328, 700}";
},
{
name = topright;
position = "{556, 700}";
}
);
layerId = "3129A168-24FD-451B-9986-F27775A960CA";
paths = (
{
closed = 1;
nodes = (
"392 0 LINE",
"401 51 LINE",
"93 51 LINE",
"208 700 LINE",
"149 700 LINE",
"25 0 LINE"
);
}
);
width = 509;
}
);
leftKerningGroup = N;
leftMetricsKey = N;
unicode = 004C;
},
{
glyphname = Lcaron;
lastChange = "2019-03-21 13:40:33 +0000";
layers = (
{
layerId = "631A315E-0C3F-4988-8BF6-333737037850";
paths = (
{
closed = 1;
nodes = (
"469 0 LINE",
"498 161 LINE",
"193 161 LINE",
"292 724 LINE",
"126 724 LINE",
"-2 0 LINE"
);
},
{
closed = 1;
nodes = (
"429 579 LINE",
"547 730 LINE",
"404 730 LINE",
"322 579 LINE"
);
}
);
width = 591;
},
{
layerId = "3129A168-24FD-451B-9986-F27775A960CA";
paths = (
{
closed = 1;
nodes = (
"345 0 LINE",
"354 51 LINE",
"46 51 LINE",
"161 700 LINE",
"102 700 LINE",
"-22 0 LINE"
);
},
{
closed = 1;
nodes = (
"248 522 LINE",
"346 673 LINE",
"279 673 LINE",
"198 522 LINE"
);
}
);
width = 447;
}
);
unicode = 013D;
},
{
glyphname = M;
lastChange = "2018-12-19 14:48:38 +0000";
layers = (
{
anchors = (
{
name = bottom;
position = "{392, 0}";
},
{
name = top;
position = "{516, 700}";
}
);
background = {
paths = (
{
closed = 1;
nodes = (
"508 153 LINE",
"765 578 LINE",
"765 700 LINE",
"657 700 LINE",
"454 334 LINE",
"251 700 LINE",
"143 700 LINE",
"143 578 LINE",
"400 153 LINE"
);
},
{
closed = 1;
nodes = (
"241 0 LINE",
"241 700 LINE",
"75 700 LINE",
"75 0 LINE"
);
},
{
closed = 1;
nodes = (
"833 0 LINE",
"833 700 LINE",
"667 700 LINE",
"667 0 LINE"
);
}
);
};
layerId = "631A315E-0C3F-4988-8BF6-333737037850";
paths = (
{
closed = 1;
nodes = (
"175 0 LINE",
"258 481 LINE",
"241 475 LINE",
"362 123 LINE",
"470 123 LINE",
"713 475 LINE",
"696 481 LINE",
"609 0 LINE",
"769 0 LINE",
"893 700 LINE",
"723 700 LINE",
"417 255 LINE",
"455 255 LINE",
"305 700 LINE",
"139 700 LINE",
"15 0 LINE"
);
}
);
width = 906;
},
{
anchors = (
{
name = bottom;
position = "{377, 0}";
},
{
name = top;
position = "{501, 700}";
}
);
guideLines = (
{
angle = 121.0408;
position = "{306, 700}";
},
{
angle = 58.9592;
position = "{818, 700}";
},
{
angle = 121.0408;
position = "{359, 209}";
},
{
angle = 58.9592;
position = "{419, 209}";
}
);
layerId = "3129A168-24FD-451B-9986-F27775A960CA";
paths = (
{
closed = 1;
nodes = (
"84 0 LINE",
"206 691 LINE",
"183 685 LINE",
"376 159 LINE",
"436 159 LINE",
"815 685 LINE",
"792 691 LINE",
"670 0 LINE",
"729 0 LINE",
"853 700 LINE",
"757 700 LINE",
"386 176 LINE",
"430 176 LINE",
"243 700 LINE",
"149 700 LINE",
"25 0 LINE"
);
}
);
width = 876;
}
);
leftKerningGroup = N;
leftMetricsKey = N;
rightKerningGroup = N;
rightMetricsKey = N;
unicode = 004D;
},
{
glyphname = N;
lastChange = "2018-12-19 14:48:38 +0000";
layers = (
{
anchors = (
{
name = bottom;
position = "{337, 0}";
},
{
name = top;
position = "{421, 700}";
}
);
guideLines = (
{
angle = 126.1848;
position = "{434, 0}";
}
);
layerId = "631A315E-0C3F-4988-8BF6-333737037850";
paths = (
{
closed = 1;
nodes = (
"175 0 LINE",
"255 489 LINE",
"241 480 LINE",
"502 0 LINE",
"659 0 LINE",
"783 700 LINE",
"623 700 LINE",
"543 211 LINE",
"557 220 LINE",
"296 700 LINE",
"139 700 LINE",
"15 0 LINE"
);
}
);
width = 796;
},
{
anchors = (
{
name = bottom;
position = "{321, 0}";
},
{
name = top;
position = "{445, 700}";
}
);
guideLines = (
{
angle = -55.1228;
position = "{299, 700}";
}
);
layerId = "3129A168-24FD-451B-9986-F27775A960CA";
paths = (
{
closed = 1;
nodes = (
"84 0 LINE",
"205 685 LINE",
"178 677 LINE",
"529 0 LINE",
"617 0 LINE",
"741 700 LINE",
"682 700 LINE",
"561 15 LINE",
"588 23 LINE",
"237 700 LINE",
"149 700 LINE",
"25 0 LINE"
);
}
);
width = 764;
}
);
leftKerningGroup = N;
rightKerningGroup = N;
unicode = 004E;
},
{
glyphname = Eng;
lastChange = "2019-03-21 13:41:06 +0000";
layers = (
{
layerId = "631A315E-0C3F-4988-8BF6-333737037850";
paths = (
{
closed = 1;
nodes = (
"164 0 LINE",
"242 432 LINE",
"482 0 LINE",
"646 0 LINE",
"770 700 LINE",
"604 700 LINE",
"526 268 LINE",
"286 700 LINE",
"122 700 LINE",
"-2 0 LINE"
);
},
{
closed = 1;
nodes = (
"491 -208 OFFCURVE",
"626 -114 OFFCURVE",
"645 -5 CURVE",
"481 5 LINE",
"476 -26 OFFCURVE",
"429 -47 OFFCURVE",
"371 -47 CURVE",
"353 -208 LINE"
);
}
);
width = 768;
},
{
layerId = "3129A168-24FD-451B-9986-F27775A960CA";
paths = (
{
closed = 1;
nodes = (
"37 0 LINE",
"151 640 LINE",
"502 0 LINE",
"570 0 LINE",
"694 700 LINE",
"635 700 LINE",
"525 80 LINE",
"190 700 LINE",
"102 700 LINE",
"-22 0 LINE"
);
},
{
closed = 1;
nodes = (
"491 -156 OFFCURVE",
"553 -98 OFFCURVE",
"570 -2 CURVE",
"502 2 LINE",
"489 -67 OFFCURVE",
"463 -92 OFFCURVE",
"383 -92 CURVE",
"376 -156 LINE"
);
}
);
width = 592;
}
);
unicode = 014A;
},
{
glyphname = O;
lastChange = "2018-12-19 14:48:38 +0000";
layers = (
{
anchors = (
{
name = bottom;
position = "{353, 0}";
},
{
name = center;
position = "{414, 350}";
},
{
name = ogonek;
position = "{678, 10}";
},
{
name = top;
position = "{477, 700}";
},
{
name = topleft;
position = "{91, 700}";
},
{
name = topright;
position = "{740, 655}";
}
);
background = {
paths = (
{
closed = 1;
nodes = (
"615 -15 OFFCURVE",
"780 149 OFFCURVE",
"779 350 CURVE SMOOTH",
"778 551 OFFCURVE",
"613 715 OFFCURVE",
"413 715 CURVE SMOOTH",
"214 715 OFFCURVE",
"50 551 OFFCURVE",
"49 350 CURVE SMOOTH",
"48 149 OFFCURVE",
"212 -15 OFFCURVE",
"413 -15 CURVE SMOOTH"
);
},
{
closed = 1;
nodes = (
"301 144 OFFCURVE",
"212 236 OFFCURVE",
"213 350 CURVE SMOOTH",
"214 464 OFFCURVE",
"303 556 OFFCURVE",
"414 556 CURVE SMOOTH",
"525 556 OFFCURVE",
"615 464 OFFCURVE",
"615 350 CURVE SMOOTH",
"615 236 OFFCURVE",
"525 144 OFFCURVE",
"413 144 CURVE SMOOTH"
);
}
);
};
guideLines = (
{
position = "{1606, 113}";
},
{
angle = 90;
position = "{1467, 112}";
},
{
position = "{554, 756}";
},
{
angle = 90;
position = "{544, 715}";
},
{
angle = 90;
position = "{598, 556}";
},
{
angle = 90;
position = "{376, 556}";
}
);
layerId = "631A315E-0C3F-4988-8BF6-333737037850";
paths = (
{
closed = 1;
nodes = (
"576 -15 OFFCURVE",
"783 180 OFFCURVE",
"783 402 CURVE SMOOTH",
"783 579 OFFCURVE",
"652 715 OFFCURVE",
"470 715 CURVE SMOOTH",
"252 715 OFFCURVE",
"45 520 OFFCURVE",
"45 298 CURVE SMOOTH",
"45 121 OFFCURVE",
"176 -15 OFFCURVE",
"358 -15 CURVE SMOOTH"
);
},
{
closed = 1;
nodes = (
"273 144 OFFCURVE",
"208 213 OFFCURVE",
"208 306 CURVE SMOOTH",
"208 434 OFFCURVE",
"330 556 OFFCURVE",
"458 556 CURVE SMOOTH",
"555 556 OFFCURVE",
"620 487 OFFCURVE",
"620 394 CURVE SMOOTH",
"620 266 OFFCURVE",
"498 144 OFFCURVE",
"370 144 CURVE SMOOTH"
);
}
);
width = 828;
},
{
anchors = (
{
name = bottom;
position = "{362, 0}";
},
{
name = center;
position = "{424, 350}";
},
{
name = ogonek;
position = "{688, 10}";
},
{
name = top;
position = "{486, 700}";
},
{
name = topleft;
position = "{101, 700}";
},
{
name = topright;
position = "{743, 661}";
}
);
layerId = "3129A168-24FD-451B-9986-F27775A960CA";
paths = (
{
closed = 1;
nodes = (
"587 -15 OFFCURVE",
"794 186 OFFCURVE",
"794 408 CURVE SMOOTH",
"794 582 OFFCURVE",
"665 715 OFFCURVE",
"486 715 CURVE SMOOTH",
"266 715 OFFCURVE",
"54 515 OFFCURVE",
"54 291 CURVE SMOOTH",
"54 117 OFFCURVE",
"183 -15 OFFCURVE",
"364 -15 CURVE SMOOTH"
);
},
{
closed = 1;
nodes = (
"219 39 OFFCURVE",
"113 153 OFFCURVE",
"113 295 CURVE SMOOTH",
"113 483 OFFCURVE",
"300 661 OFFCURVE",
"483 661 CURVE SMOOTH",
"629 661 OFFCURVE",
"735 547 OFFCURVE",
"735 405 CURVE SMOOTH",
"735 218 OFFCURVE",
"552 39 OFFCURVE",
"367 39 CURVE SMOOTH"
);
}
);
width = 848;
}
);
leftKerningGroup = O;
rightKerningGroup = O;
unicode = 004F;
},
{
glyphname = Oslash;
lastChange = "2018-12-19 14:48:38 +0000";
layers = (
{
layerId = "631A315E-0C3F-4988-8BF6-333737037850";
paths = (
{
closed = 1;
nodes = (
"576 -15 OFFCURVE",
"783 180 OFFCURVE",
"783 402 CURVE SMOOTH",
"783 579 OFFCURVE",
"652 715 OFFCURVE",
"470 715 CURVE SMOOTH",
"252 715 OFFCURVE",
"45 520 OFFCURVE",
"45 298 CURVE SMOOTH",
"45 121 OFFCURVE",
"176 -15 OFFCURVE",
"358 -15 CURVE SMOOTH"
);
},
{
closed = 1;
nodes = (
"273 144 OFFCURVE",
"208 213 OFFCURVE",
"208 306 CURVE SMOOTH",
"208 434 OFFCURVE",
"330 556 OFFCURVE",
"458 556 CURVE SMOOTH",
"555 556 OFFCURVE",
"620 487 OFFCURVE",
"620 394 CURVE SMOOTH",
"620 266 OFFCURVE",
"498 144 OFFCURVE",
"370 144 CURVE SMOOTH"
);
},
{
closed = 1;
nodes = (
"824 651 LINE",
"831 700 LINE",
"696 700 LINE",
"-4 49 LINE",
"-11 0 LINE",
"121 0 LINE"
);
}
);
width = 820;
},
{
layerId = "3129A168-24FD-451B-9986-F27775A960CA";
paths = (
{
closed = 1;
nodes = (
"587 -15 OFFCURVE",
"794 186 OFFCURVE",
"794 408 CURVE SMOOTH",
"794 582 OFFCURVE",
"665 715 OFFCURVE",
"486 715 CURVE SMOOTH",
"266 715 OFFCURVE",
"54 515 OFFCURVE",
"54 291 CURVE SMOOTH",
"54 117 OFFCURVE",
"183 -15 OFFCURVE",
"364 -15 CURVE SMOOTH"
);
},
{
closed = 1;
nodes = (
"219 39 OFFCURVE",
"113 153 OFFCURVE",
"113 295 CURVE SMOOTH",
"113 483 OFFCURVE",
"300 661 OFFCURVE",
"483 661 CURVE SMOOTH",
"629 661 OFFCURVE",
"735 547 OFFCURVE",
"735 405 CURVE SMOOTH",
"735 218 OFFCURVE",
"552 39 OFFCURVE",
"367 39 CURVE SMOOTH"
);
},
{
closed = 1;
nodes = (
"849 681 LINE",
"852 700 LINE",
"793 700 LINE",
"-4 19 LINE",
"-7 0 LINE",
"52 0 LINE"
);
}
);
width = 845;
}
);
unicode = 00D8;
},
{
glyphname = OE;
lastChange = "2019-03-21 14:00:33 +0000";
layers = (
{
layerId = "631A315E-0C3F-4988-8BF6-333737037850";
paths = (
{
closed = 1;
nodes = (
"566 -15 OFFCURVE",
"773 180 OFFCURVE",
"773 402 CURVE SMOOTH",
"773 579 OFFCURVE",
"642 715 OFFCURVE",
"460 715 CURVE SMOOTH",
"242 715 OFFCURVE",
"35 520 OFFCURVE",
"35 298 CURVE SMOOTH",
"35 121 OFFCURVE",
"166 -15 OFFCURVE",
"348 -15 CURVE SMOOTH"
);
},
{
closed = 1;
nodes = (
"263 144 OFFCURVE",
"198 213 OFFCURVE",
"198 306 CURVE SMOOTH",
"198 434 OFFCURVE",
"320 556 OFFCURVE",
"448 556 CURVE SMOOTH",
"545 556 OFFCURVE",
"610 487 OFFCURVE",
"610 394 CURVE SMOOTH",
"610 266 OFFCURVE",
"488 144 OFFCURVE",
"360 144 CURVE SMOOTH"
);
},
{
closed = 1;
nodes = (
"1033 0 LINE",
"1060 149 LINE",
"731 149 LINE",
"753 275 LINE",
"948 295 LINE",
"968 406 LINE",
"779 426 LINE",
"801 551 LINE",
"1130 551 LINE",
"1157 700 LINE",
"668 700 LINE",
"544 0 LINE"
);
}
);
width = 1135;
},
{
layerId = "3129A168-24FD-451B-9986-F27775A960CA";
paths = (
{
closed = 1;
nodes = (
"568 -15 OFFCURVE",
"775 186 OFFCURVE",
"775 408 CURVE SMOOTH",
"775 582 OFFCURVE",
"646 715 OFFCURVE",
"467 715 CURVE SMOOTH",
"247 715 OFFCURVE",
"35 515 OFFCURVE",
"35 291 CURVE SMOOTH",
"35 117 OFFCURVE",
"164 -15 OFFCURVE",
"345 -15 CURVE SMOOTH"
);
},
{
closed = 1;
nodes = (
"200 39 OFFCURVE",
"94 153 OFFCURVE",
"94 295 CURVE SMOOTH",
"94 483 OFFCURVE",
"281 661 OFFCURVE",
"464 661 CURVE SMOOTH",
"610 661 OFFCURVE",
"716 547 OFFCURVE",
"716 405 CURVE SMOOTH",
"716 218 OFFCURVE",
"533 39 OFFCURVE",
"348 39 CURVE SMOOTH"
);
},
{
closed = 1;
nodes = (
"1119 0 LINE",
"1129 54 LINE",
"718 54 LINE",
"765 324 LINE",
"1006 331 LINE",
"1013 371 LINE",
"775 378 LINE",
"822 646 LINE",
"1233 646 LINE",
"1243 700 LINE",
"773 700 LINE",
"649 0 LINE"
);
}
);
width = 1141;
}
);
unicode = 0152;
},
{
glyphname = P;
lastChange = "2018-12-19 14:48:38 +0000";
layers = (
{
anchors = (
{
name = bottom;
position = "{280, 0}";
},
{
name = top;
position = "{404, 700}";
}
);
layerId = "631A315E-0C3F-4988-8BF6-333737037850";
paths = (
{
closed = 1;
nodes = (
"352 191 LINE SMOOTH",
"504 191 OFFCURVE",
"647 325 OFFCURVE",
"647 480 CURVE SMOOTH",
"647 605 OFFCURVE",
"554 700 OFFCURVE",
"428 700 CURVE SMOOTH",
"291 700 LINE",
"264 551 LINE",
"416 551 LINE SMOOTH",
"457 551 OFFCURVE",
"483 523 OFFCURVE",
"483 478 CURVE SMOOTH",
"483 414 OFFCURVE",
"430 340 OFFCURVE",
"369 340 CURVE SMOOTH",
"227 340 LINE",
"201 191 LINE"
);
},
{
closed = 1;
nodes = (
"175 0 LINE",
"299 700 LINE",
"139 700 LINE",
"15 0 LINE"
);
}
);
width = 669;
},
{
anchors = (
{
name = bottom;
position = "{248, 0}";
},
{
name = top;
position = "{372, 700}";
}
);
background = {
paths = (
{
closed = 1;
nodes = (
"88 700 LINE",
"88 0 LINE",
"164 0 LINE",
"164 223 LINE",
"307 223 LINE",
"442 223 OFFCURVE",
"552 331 OFFCURVE",
"551 462 CURVE SMOOTH",
"550 593 OFFCURVE",
"439 700 OFFCURVE",
"304 700 CURVE"
);
},
{
closed = 1;
nodes = (
"399 629 OFFCURVE",
"476 554 OFFCURVE",
"475 462 CURVE SMOOTH",
"474 370 OFFCURVE",
"398 294 OFFCURVE",
"307 294 CURVE",
"164 294 LINE",
"164 629 LINE",
"304 629 LINE"
);
},
{
closed = 1;
nodes = (
"388 191 LINE SMOOTH",
"527 191 OFFCURVE",
"641 306 OFFCURVE",
"641 446 CURVE SMOOTH",
"641 586 OFFCURVE",
"525 700 OFFCURVE",
"384 700 CURVE SMOOTH",
"244 700 LINE",
"244 539 LINE",
"389 539 LINE SMOOTH",
"436 539 OFFCURVE",
"475 497 OFFCURVE",
"475 446 CURVE SMOOTH",
"475 395 OFFCURVE",
"436 352 OFFCURVE",
"389 352 CURVE SMOOTH",
"244 352 LINE",
"244 191 LINE"
);
},
{
closed = 1;
nodes = (
"254 0 LINE",
"254 700 LINE",
"88 700 LINE",
"88 0 LINE"
);
}
);
};
layerId = "3129A168-24FD-451B-9986-F27775A960CA";
paths = (
{
closed = 1;
nodes = (
"293 223 LINE SMOOTH",
"457 223 OFFCURVE",
"593 357 OFFCURVE",
"593 501 CURVE SMOOTH",
"593 615 OFFCURVE",
"508 700 OFFCURVE",
"389 700 CURVE SMOOTH",
"180 700 LINE",
"170 646 LINE",
"383 646 LINE SMOOTH",
"472 646 OFFCURVE",
"534 582 OFFCURVE",
"534 497 CURVE SMOOTH",
"534 385 OFFCURVE",
"428 277 OFFCURVE",
"310 277 CURVE SMOOTH",
"95 277 LINE",
"86 223 LINE"
);
},
{
closed = 1;
nodes = (
"84 0 LINE",
"208 700 LINE",
"149 700 LINE",
"25 0 LINE"
);
}
);
width = 621;
}
);
leftKerningGroup = N;
leftMetricsKey = N;
unicode = 0050;
},
{
glyphname = Thorn;
lastChange = "2019-03-21 14:33:58 +0000";
layers = (
{
layerId = "631A315E-0C3F-4988-8BF6-333737037850";
paths = (
{
closed = 1;
nodes = (
"319 91 LINE SMOOTH",
"458 91 OFFCURVE",
"587 201 OFFCURVE",
"610 335 CURVE SMOOTH",
"636 481 OFFCURVE",
"536 600 OFFCURVE",
"395 600 CURVE SMOOTH",
"260 600 LINE",
"232 439 LINE",
"382 439 LINE SMOOTH",
"429 439 OFFCURVE",
"456 402 OFFCURVE",
"448 357 CURVE SMOOTH",
"438 300 OFFCURVE",
"386 252 OFFCURVE",
"339 252 CURVE SMOOTH",
"199 252 LINE",
"170 91 LINE"
);
},
{
closed = 1;
nodes = (
"-2 0 LINE",
"164 0 LINE",
"288 700 LINE",
"122 700 LINE"
);
}
);
width = 600;
},
{
layerId = "3129A168-24FD-451B-9986-F27775A960CA";
paths = (
{
closed = 1;
nodes = (
"258 133 LINE SMOOTH",
"388 133 OFFCURVE",
"512 239 OFFCURVE",
"536 368 CURVE SMOOTH",
"561 501 OFFCURVE",
"470 610 OFFCURVE",
"336 610 CURVE SMOOTH",
"127 610 LINE",
"117 556 LINE",
"330 556 LINE SMOOTH",
"430 556 OFFCURVE",
"496 475 OFFCURVE",
"479 376 CURVE SMOOTH",
"460 272 OFFCURVE",
"362 187 OFFCURVE",
"263 187 CURVE SMOOTH",
"42 187 LINE",
"33 133 LINE"
);
},
{
closed = 1;
nodes = (
"-12 0 LINE",
"47 0 LINE",
"171 700 LINE",
"112 700 LINE"
);
}
);
width = 573;
}
);
unicode = 00DE;
},
{
glyphname = Q;
lastChange = "2018-12-19 14:48:38 +0000";
layers = (
{
anchors = (
{
name = bottom;
position = "{352, 0}";
},
{
name = top;
position = "{476, 700}";
}
);
background = {
paths = (
{
closed = 1;
nodes = (
"374 274 LINE",
"621 0 LINE",
"753 0 LINE",
"753 49 LINE",
"551 274 LINE"
);
}
);
};
guideLines = (
{
angle = -61.429;
position = "{377, 282}";
},
{
angle = -61.429;
position = "{578, 282}";
}
);
layerId = "631A315E-0C3F-4988-8BF6-333737037850";
paths = (
{
closed = 1;
nodes = (
"576 -15 OFFCURVE",
"783 180 OFFCURVE",
"783 402 CURVE SMOOTH",
"783 579 OFFCURVE",
"652 715 OFFCURVE",
"470 715 CURVE SMOOTH",
"252 715 OFFCURVE",
"45 520 OFFCURVE",
"45 298 CURVE SMOOTH",
"45 121 OFFCURVE",
"176 -15 OFFCURVE",
"358 -15 CURVE SMOOTH"
);
},
{
closed = 1;
nodes = (
"273 144 OFFCURVE",
"208 213 OFFCURVE",
"208 306 CURVE SMOOTH",
"208 434 OFFCURVE",
"330 556 OFFCURVE",
"458 556 CURVE SMOOTH",
"555 556 OFFCURVE",
"620 487 OFFCURVE",
"620 394 CURVE SMOOTH",
"620 266 OFFCURVE",
"498 144 OFFCURVE",
"370 144 CURVE SMOOTH"
);
},
{
closed = 1;
nodes = (
"364 274 LINE",
"563 0 LINE",
"691 0 LINE",
"698 49 LINE",
"536 274 LINE"
);
}
);
width = 835;
},
{
anchors = (
{
name = bottom;
position = "{362, 0}";
},
{
name = top;
position = "{486, 700}";
}
);
background = {
paths = (
{
closed = 1;
nodes = (
"512 218 LINE",
"728 0 LINE",
"789 0 LINE",
"789 19 LINE",
"592 218 LINE"
);
}
);
};
guideLines = (
{
angle = 125.6939;
position = "{612, -15}";
}
);
layerId = "3129A168-24FD-451B-9986-F27775A960CA";
paths = (
{
closed = 1;
nodes = (
"587 -15 OFFCURVE",
"794 186 OFFCURVE",
"794 408 CURVE SMOOTH",
"794 582 OFFCURVE",
"665 715 OFFCURVE",
"486 715 CURVE SMOOTH",
"266 715 OFFCURVE",
"54 515 OFFCURVE",
"54 291 CURVE SMOOTH",
"54 117 OFFCURVE",
"183 -15 OFFCURVE",
"364 -15 CURVE SMOOTH"
);
},
{
closed = 1;
nodes = (
"219 39 OFFCURVE",
"113 153 OFFCURVE",
"113 295 CURVE SMOOTH",
"113 483 OFFCURVE",
"300 661 OFFCURVE",
"483 661 CURVE SMOOTH",
"629 661 OFFCURVE",
"735 547 OFFCURVE",
"735 405 CURVE SMOOTH",
"735 218 OFFCURVE",
"552 39 OFFCURVE",
"367 39 CURVE SMOOTH"
);
},
{
closed = 1;
nodes = (
"459 218 LINE",
"637 0 LINE",
"697 0 LINE",
"700 19 LINE",
"538 218 LINE"
);
}
);
width = 855;
}
);
leftKerningGroup = O;
leftMetricsKey = O;
rightKerningGroup = O;
unicode = 0051;
},
{
glyphname = R;
lastChange = "2018-12-19 14:48:38 +0000";
layers = (
{
anchors = (
{
name = bottom;
position = "{290, 0}";
},
{
name = top;
position = "{414, 700}";
}
);
background = {
paths = (
{
closed = 1;
nodes = (
"375 191 LINE SMOOTH",
"514 191 OFFCURVE",
"628 306 OFFCURVE",
"628 446 CURVE SMOOTH",
"628 586 OFFCURVE",
"512 700 OFFCURVE",
"371 700 CURVE SMOOTH",
"231 700 LINE",
"231 539 LINE",
"376 539 LINE SMOOTH",
"423 539 OFFCURVE",
"462 497 OFFCURVE",
"462 446 CURVE SMOOTH",
"462 395 OFFCURVE",
"423 352 OFFCURVE",
"376 352 CURVE SMOOTH",
"231 352 LINE",
"231 191 LINE"
);
},
{
closed = 1;
nodes = (
"241 0 LINE",
"241 700 LINE",
"75 700 LINE",
"75 0 LINE"
);
},
{
closed = 1;
nodes = (
"626 0 LINE",
"626 112 LINE",
"491 282 LINE",
"290 282 LINE",
"514 0 LINE"
);
},
{
closed = 0;
nodes = (
"308 247 LINE",
"495 0 LINE",
"633 0 LINE",
"633 96 LINE",
"413 386 LINE"
);
}
);
};
guideLines = (
{
angle = 90;
position = "{662, 446}";
},
{
angle = 127.0938;
position = "{541, 89}";
},
{
position = "{-73, 89}";
}
);
layerId = "631A315E-0C3F-4988-8BF6-333737037850";
paths = (
{
closed = 1;
nodes = (
"352 191 LINE SMOOTH",
"504 191 OFFCURVE",
"647 324 OFFCURVE",
"647 481 CURVE SMOOTH",
"647 605 OFFCURVE",
"554 700 OFFCURVE",
"428 700 CURVE SMOOTH",
"291 700 LINE",
"264 551 LINE",
"416 551 LINE SMOOTH",
"457 551 OFFCURVE",
"483 523 OFFCURVE",
"483 479 CURVE SMOOTH",
"483 414 OFFCURVE",
"430 340 OFFCURVE",
"369 340 CURVE SMOOTH",
"227 340 LINE",
"201 191 LINE"
);
},
{
closed = 1;
nodes = (
"175 0 LINE",
"299 700 LINE",
"139 700 LINE",
"15 0 LINE"
);
},
{
closed = 1;
nodes = (
"571 0 LINE",
"585 89 LINE",
"452 288 LINE",
"308 247 LINE",
"442 0 LINE"
);
}
);
width = 684;
},
{
anchors = (
{
name = bottom;
position = "{262, 0}";
},
{
name = top;
position = "{386, 700}";
}
);
background = {
paths = (
{
closed = 1;
nodes = (
"164 0 LINE",
"164 223 LINE",
"307 223 LINE",
"442 223 OFFCURVE",
"552 331 OFFCURVE",
"551 462 CURVE SMOOTH",
"550 593 OFFCURVE",
"439 700 OFFCURVE",
"304 700 CURVE",
"88 700 LINE",
"88 0 LINE"
);
},
{
closed = 1;
nodes = (
"559 0 LINE",
"559 36 LINE",
"414 259 LINE",
"328 252 LINE",
"492 0 LINE"
);
},
{
closed = 1;
nodes = (
"164 629 LINE",
"304 629 LINE",
"399 629 OFFCURVE",
"476 554 OFFCURVE",
"475 462 CURVE SMOOTH",
"474 370 OFFCURVE",
"398 294 OFFCURVE",
"307 294 CURVE",
"164 294 LINE"
);
}
);
};
guideLines = (
{
angle = 123.0329;
position = "{445, 26}";
},
{
angle = 90;
position = "{590, 462}";
}
);
layerId = "3129A168-24FD-451B-9986-F27775A960CA";
paths = (
{
closed = 1;
nodes = (
"314 223 LINE SMOOTH",
"460 223 OFFCURVE",
"593 358 OFFCURVE",
"593 501 CURVE SMOOTH",
"593 615 OFFCURVE",
"508 700 OFFCURVE",
"389 700 CURVE SMOOTH",
"180 700 LINE",
"170 646 LINE",
"383 646 LINE SMOOTH",
"472 646 OFFCURVE",
"534 582 OFFCURVE",
"534 497 CURVE SMOOTH",
"534 385 OFFCURVE",
"428 277 OFFCURVE",
"316 277 CURVE SMOOTH",
"95 277 LINE",
"86 223 LINE"
);
},
{
closed = 1;
nodes = (
"84 0 LINE",
"208 700 LINE",
"149 700 LINE",
"25 0 LINE"
);
},
{
closed = 1;
nodes = (
"497 0 LINE",
"501 26 LINE",
"390 259 LINE",
"324 252 LINE",
"444 0 LINE"
);
}
);
width = 631;
}
);
leftKerningGroup = N;
leftMetricsKey = N;
unicode = 0052;
},
{
glyphname = S;
lastChange = "2018-12-19 14:48:38 +0000";
layers = (
{
anchors = (
{
name = bottom;
position = "{289, 0}";
},
{
name = top;
position = "{401, 700}";
}
);
background = {
paths = (
{
closed = 1;
nodes = (
"78 612 OFFCURVE",
"199 713 OFFCURVE",
"346 713 CURVE SMOOTH",
"491 713 OFFCURVE",
"609 612 OFFCURVE",
"609 488 CURVE",
"449 488 LINE",
"449 527 OFFCURVE",
"402 559 OFFCURVE",
"345 559 CURVE SMOOTH",
"286 559 OFFCURVE",
"238 527 OFFCURVE",
"238 488 CURVE",
"78 488 LINE"
);
},
{
closed = 1;
nodes = (
"467 176 OFFCURVE",
"410 138 OFFCURVE",
"341 138 CURVE SMOOTH",
"269 138 OFFCURVE",
"210 181 OFFCURVE",
"211 234 CURVE",
"51 234 LINE",
"50 96 OFFCURVE",
"181 -16 OFFCURVE",
"341 -16 CURVE SMOOTH",
"499 -16 OFFCURVE",
"628 91 OFFCURVE",
"627 222 CURVE",
"467 222 LINE"
);
},
{
closed = 1;
nodes = (
"628 462 OFFCURVE",
"238 382 OFFCURVE",
"238 488 CURVE",
"78 488 LINE",
"78 248 OFFCURVE",
"467 328 OFFCURVE",
"467 222 CURVE",
"627 222 LINE"
);
}
);
};
guideLines = (
{
angle = 90;
position = "{60, 488}";
},
{
angle = 90;
position = "{599, 488}";
}
);
layerId = "631A315E-0C3F-4988-8BF6-333737037850";
paths = (
{
closed = 1;
nodes = (
"434 -16 OFFCURVE",
"588 102 OFFCURVE",
"588 247 CURVE SMOOTH",
"588 461 OFFCURVE",
"260 388 OFFCURVE",
"260 477 CURVE SMOOTH",
"260 521 OFFCURVE",
"314 561 OFFCURVE",
"382 561 CURVE SMOOTH",
"433 561 OFFCURVE",
"468 533 OFFCURVE",
"458 493 CURVE",
"614 483 LINE",
"636 614 OFFCURVE",
"530 713 OFFCURVE",
"392 713 CURVE SMOOTH",
"246 713 OFFCURVE",
"103 601 OFFCURVE",
"103 465 CURVE SMOOTH",
"103 258 OFFCURVE",
"428 323 OFFCURVE",
"428 233 CURVE SMOOTH",
"428 189 OFFCURVE",
"363 138 OFFCURVE",
"286 138 CURVE SMOOTH",
"230 138 OFFCURVE",
"182 168 OFFCURVE",
"192 229 CURVE",
"33 239 LINE",
"10 89 OFFCURVE",
"127 -16 OFFCURVE",
"276 -16 CURVE SMOOTH"
);
}
);
width = 662;
},
{
anchors = (
{
name = bottom;
position = "{229, 0}";
},
{
name = top;
position = "{353, 700}";
}
);
background = {
paths = (
{
closed = 1;
nodes = (
"363 -16 OFFCURVE",
"462 75 OFFCURVE",
"460 181 CURVE SMOOTH",
"457 347 OFFCURVE",
"91 355 OFFCURVE",
"91 510 CURVE SMOOTH",
"91 603 OFFCURVE",
"173 650 OFFCURVE",
"238 650 CURVE SMOOTH",
"288 650 OFFCURVE",
"345 622 OFFCURVE",
"370 568 CURVE",
"434 568 LINE",
"409 647 OFFCURVE",
"332 714 OFFCURVE",
"239 713 CURVE SMOOTH",
"119 712 OFFCURVE",
"31 613 OFFCURVE",
"31 510 CURVE SMOOTH",
"31 305 OFFCURVE",
"400 276 OFFCURVE",
"400 182 CURVE SMOOTH",
"400 79 OFFCURVE",
"309 47 OFFCURVE",
"234 47 CURVE SMOOTH",
"192 47 OFFCURVE",
"151 60 OFFCURVE",
"117 92 CURVE SMOOTH",
"97 110 OFFCURVE",
"82 132 OFFCURVE",
"73 158 CURVE",
"11 158 LINE",
"36 64 OFFCURVE",
"125 -16 OFFCURVE",
"234 -16 CURVE SMOOTH"
);
}
);
};
layerId = "3129A168-24FD-451B-9986-F27775A960CA";
paths = (
{
closed = 1;
nodes = (
"358 -12 OFFCURVE",
"488 80 OFFCURVE",
"488 191 CURVE SMOOTH",
"488 362 OFFCURVE",
"178 350 OFFCURVE",
"178 507 CURVE SMOOTH",
"178 588 OFFCURVE",
"261 659 OFFCURVE",
"353 659 CURVE SMOOTH",
"426 659 OFFCURVE",
"487 613 OFFCURVE",
"474 538 CURVE",
"532 534 LINE",
"553 628 OFFCURVE",
"468 710 OFFCURVE",
"354 710 CURVE SMOOTH",
"233 710 OFFCURVE",
"119 618 OFFCURVE",
"119 503 CURVE SMOOTH",
"119 312 OFFCURVE",
"429 321 OFFCURVE",
"429 188 CURVE SMOOTH",
"429 115 OFFCURVE",
"334 39 OFFCURVE",
"235 39 CURVE SMOOTH",
"142 39 OFFCURVE",
"73 105 OFFCURVE",
"93 184 CURVE",
"34 188 LINE",
"12 78 OFFCURVE",
"107 -12 OFFCURVE",
"232 -12 CURVE SMOOTH"
);
}
);
width = 581;
}
);
leftKerningGroup = O;
rightKerningGroup = O;
unicode = 0053;
},
{
glyphname = Germandbls;
lastChange = "2019-06-17 10:46:49 +0000";
layers = (
{
layerId = "3129A168-24FD-451B-9986-F27775A960CA";
paths = (
{
closed = 1;
nodes = (
"358 377 LINE",
"586 700 LINE",
"185 700 LINE",
"175 646 LINE",
"518 646 LINE",
"523 690 LINE",
"269 333 LINE"
);
},
{
closed = 1;
nodes = (
"84 0 LINE",
"208 700 LINE",
"149 700 LINE",
"25 0 LINE"
);
},
{
closed = 1;
nodes = (
"401 0 OFFCURVE",
"510 54 OFFCURVE",
"533 184 CURVE SMOOTH",
"556 318 OFFCURVE",
"470 378 OFFCURVE",
"355 377 CURVE",
"271 333 LINE",
"384 333 OFFCURVE",
"499 330 OFFCURVE",
"474 185 CURVE SMOOTH",
"458 95 OFFCURVE",
"378 51 OFFCURVE",
"261 51 CURVE SMOOTH",
"196 51 LINE",
"189 0 LINE",
"192 0 OFFCURVE",
"246 0 OFFCURVE",
"251 0 CURVE SMOOTH"
);
}
);
width = 612;
},
{
layerId = "631A315E-0C3F-4988-8BF6-333737037850";
paths = (
{
closed = 1;
nodes = (
"510 394 LINE",
"742 700 LINE",
"246 700 LINE",
"219 549 LINE",
"513 549 LINE",
"510 588 LINE",
"292 309 LINE"
);
},
{
closed = 1;
nodes = (
"175 0 LINE",
"299 700 LINE",
"139 700 LINE",
"15 0 LINE"
);
},
{
closed = 1;
nodes = (
"532 -2 OFFCURVE",
"625 81 OFFCURVE",
"648 207 CURVE SMOOTH",
"667 318 OFFCURVE",
"623 394 OFFCURVE",
"503 394 CURVE",
"297 309 LINE",
"454 309 OFFCURVE",
"500 297 OFFCURVE",
"489 238 CURVE SMOOTH",
"478 173 OFFCURVE",
"425 151 OFFCURVE",
"346 151 CURVE SMOOTH",
"296 151 LINE",
"274 0 LINE",
"305 -1 OFFCURVE",
"344 -2 OFFCURVE",
"367 -2 CURVE SMOOTH"
);
}
);
width = 794;
}
);
leftMetricsKey = "=N";
rightMetricsKey = "=B";
unicode = 1E9E;
},
{
glyphname = T;
lastChange = "2018-12-19 14:48:38 +0000";
layers = (
{
anchors = (
{
name = bottom;
position = "{241, 0}";
},
{
name = center;
position = "{314, 350}";
},
{
name = top;
position = "{376, 700}";
}
);
guideLines = (
{
angle = 90;
position = "{298, 539}";
},
{
angle = 90;
position = "{464, 539}";
},
{
angle = 90;
position = "{191, 0}";
}
);
layerId = "631A315E-0C3F-4988-8BF6-333737037850";
paths = (
{
closed = 1;
nodes = (
"332 0 LINE",
"436 596 LINE",
"384 546 LINE",
"627 571 LINE",
"650 700 LINE",
"102 700 LINE",
"79 571 LINE",
"310 546 LINE",
"276 596 LINE",
"172 0 LINE"
);
}
);
width = 628;
},
{
anchors = (
{
name = bottom;
position = "{189, -4}";
},
{
name = center;
position = "{269, 350}";
},
{
name = top;
position = "{331, 700}";
}
);
layerId = "3129A168-24FD-451B-9986-F27775A960CA";
paths = (
{
closed = 1;
nodes = (
"237 0 LINE",
"358 691 LINE",
"305 644 LINE",
"547 654 LINE",
"555 700 LINE",
"107 700 LINE",
"99 654 LINE",
"336 644 LINE",
"299 691 LINE",
"178 0 LINE"
);
}
);
width = 538;
}
);
unicode = 0054;
},
{
glyphname = U;
lastChange = "2018-12-19 14:48:38 +0000";
layers = (
{
anchors = (
{
name = bottom;
position = "{323, 0}";
},
{
name = ogonek;
position = "{472, 10}";
},
{
name = top;
position = "{448, 700}";
},
{
name = topright;
position = "{802, 700}";
}
);
guideLines = (
{
angle = 90;
position = "{315, 148}";
}
);
layerId = "631A315E-0C3F-4988-8BF6-333737037850";
paths = (
{
closed = 1;
nodes = (
"498 -15 OFFCURVE",
"659 122 OFFCURVE",
"688 295 CURVE",
"760 700 LINE",
"600 700 LINE",
"530 305 LINE",
"516 218 OFFCURVE",
"431 144 OFFCURVE",
"340 144 CURVE",
"258 144 OFFCURVE",
"207 208 OFFCURVE",
"222 295 CURVE",
"294 700 LINE",
"134 700 LINE",
"64 305 LINE",
"33 132 OFFCURVE",
"153 -15 OFFCURVE",
"331 -15 CURVE"
);
}
);
width = 770;
},
{
anchors = (
{
name = bottom;
position = "{302, 0}";
},
{
name = ogonek;
position = "{545, 10}";
},
{
name = top;
position = "{426, 700}";
},
{
name = topright;
position = "{707, 700}";
}
);
layerId = "3129A168-24FD-451B-9986-F27775A960CA";
paths = (
{
closed = 1;
nodes = (
"466 -15 OFFCURVE",
"603 109 OFFCURVE",
"630 263 CURVE SMOOTH",
"707 700 LINE",
"648 700 LINE",
"571 267 LINE SMOOTH",
"549 143 OFFCURVE",
"438 40 OFFCURVE",
"305 40 CURVE SMOOTH",
"175 40 OFFCURVE",
"104 139 OFFCURVE",
"126 263 CURVE SMOOTH",
"203 700 LINE",
"144 700 LINE",
"67 267 LINE SMOOTH",
"40 113 OFFCURVE",
"138 -15 OFFCURVE",
"303 -15 CURVE SMOOTH"
);
}
);
width = 727;
}
);
unicode = 0055;
},
{
glyphname = V;
lastChange = "2018-12-19 14:48:38 +0000";
layers = (
{
anchors = (
{
name = bottom;
position = "{305, 0}";
},
{
name = top;
position = "{429, 700}";
}
);
background = {
paths = (
{
closed = 1;
nodes = (
"683 578 LINE",
"683 700 LINE",
"551 700 LINE",
"351 180 LINE",
"383 180 LINE",
"182 700 LINE",
"50 700 LINE",
"50 578 LINE",
"276 0 LINE",
"457 0 LINE"
);
}
);
};
layerId = "631A315E-0C3F-4988-8BF6-333737037850";
paths = (
{
closed = 1;
nodes = (
"395 0 LINE",
"750 610 LINE",
"765 700 LINE",
"632 700 LINE",
"322 138 LINE",
"336 138 LINE",
"224 700 LINE",
"92 700 LINE",
"77 610 LINE",
"216 0 LINE"
);
}
);
width = 733;
},
{
anchors = (
{
name = bottom;
position = "{289, 0}";
},
{
name = top;
position = "{413, 700}";
}
);
guideLines = (
{
angle = 68.616;
position = "{779, 684}";
}
);
layerId = "3129A168-24FD-451B-9986-F27775A960CA";
paths = (
{
closed = 1;
nodes = (
"332 0 LINE",
"720 684 LINE",
"723 700 LINE",
"665 700 LINE",
"274 9 LINE",
"306 9 LINE",
"158 700 LINE",
"102 700 LINE",
"100 684 LINE",
"247 0 LINE"
);
}
);
width = 701;
}
);
unicode = 0056;
},
{
glyphname = W;
lastChange = "2018-12-19 14:48:38 +0000";
layers = (
{
anchors = (
{
name = bottom;
position = "{448, 0}";
},
{
name = top;
position = "{572, 700}";
}
);
background = {
paths = (
{
closed = 1;
nodes = (
"586 578 LINE",
"586 700 LINE",
"447 700 LINE",
"296 180 LINE",
"329 180 LINE",
"178 700 LINE",
"39 700 LINE",
"39 578 LINE",
"215 0 LINE",
"410 0 LINE"
);
},
{
closed = 1;
nodes = (
"994 578 LINE",
"994 700 LINE",
"855 700 LINE",
"704 180 LINE",
"737 180 LINE",
"586 700 LINE",
"447 700 LINE",
"447 578 LINE",
"623 0 LINE",
"818 0 LINE"
);
},
{
closed = 1;
nodes = (
"1389 180 LINE",
"1238 700 LINE",
"1092 700 LINE",
"1092 610 LINE",
"1278 0 LINE",
"1460 0 LINE",
"1645 610 LINE",
"1645 700 LINE",
"1499 700 LINE",
"1348 180 LINE"
);
},
{
closed = 1;
nodes = (
"1796 180 LINE",
"1645 700 LINE",
"1499 700 LINE",
"1499 610 LINE",
"1685 0 LINE",
"1867 0 LINE",
"2052 610 LINE",
"2052 700 LINE",
"1906 700 LINE",
"1755 180 LINE"
);
}
);
};
guideLines = (
{
position = "{651, 167}";
}
);
layerId = "631A315E-0C3F-4988-8BF6-333737037850";
paths = (
{
closed = 1;
nodes = (
"332 0 LINE",
"548 502 LINE",
"520 502 LINE",
"559 0 LINE",
"759 0 LINE",
"1032 610 LINE",
"1047 700 LINE",
"911 700 LINE",
"664 104 LINE",
"690 104 LINE",
"645 700 LINE",
"503 700 LINE",
"249 104 LINE",
"274 104 LINE",
"236 700 LINE",
"92 700 LINE",
"77 610 LINE",
"135 0 LINE"
);
}
);
width = 1015;
},
{
anchors = (
{
name = bottom;
position = "{432, 0}";
},
{
name = top;
position = "{556, 700}";
}
);
guideLines = (
{
position = "{170, 51}";
}
);
layerId = "3129A168-24FD-451B-9986-F27775A960CA";
paths = (
{
closed = 1;
nodes = (
"262 0 LINE",
"557 628 LINE",
"531 628 LINE",
"604 0 LINE",
"687 0 LINE",
"1006 680 LINE",
"1008 698 LINE",
"952 698 LINE",
"640 22 LINE",
"658 22 LINE",
"583 700 LINE",
"527 700 LINE",
"215 24 LINE",
"233 24 LINE",
"159 702 LINE",
"103 702 LINE",
"100 684 LINE",
"179 0 LINE"
);
}
);
width = 987;
}
);
leftMetricsKey = V;
rightMetricsKey = V;
unicode = 0057;
},
{
glyphname = X;
lastChange = "2018-12-19 14:48:38 +0000";
layers = (
{
anchors = (
{
name = bottom;
position = "{271, 0}";
},
{
name = top;
position = "{395, 700}";
}
);
background = {
paths = (
{
closed = 1;
nodes = (
"493 0 LINE",
"611 0 LINE",
"611 122 LINE",
"173 700 LINE",
"55 700 LINE",
"55 578 LINE"
);
},
{
closed = 1;
nodes = (
"611 700 LINE",
"493 700 LINE",
"55 122 LINE",
"55 0 LINE",
"173 0 LINE",
"611 578 LINE"
);
}
);
};
guideLines = (
{
angle = 52.846;
position = "{50, 0}";
},
{
position = "{438, 350}";
},
{
position = "{228, 350}";
},
{
position = "{382, 489}";
},
{
position = "{284, 211}";
},
{
angle = -52.8278;
position = "{296, 700}";
},
{
angle = -52.8278;
position = "{125, 604}";
},
{
angle = 52.846;
position = "{-55, 96}";
}
);
layerId = "631A315E-0C3F-4988-8BF6-333737037850";
paths = (
{
closed = 1;
nodes = (
"101 0 LINE",
"341 269 LINE",
"301 269 LINE",
"445 0 LINE",
"569 0 LINE",
"584 96 LINE",
"409 386 LINE",
"400 314 LINE",
"678 604 LINE",
"693 700 LINE",
"565 700 LINE",
"325 431 LINE",
"365 431 LINE",
"221 700 LINE",
"97 700 LINE",
"82 604 LINE",
"257 314 LINE",
"266 386 LINE",
"-12 96 LINE",
"-27 0 LINE"
);
}
);
width = 666;
},
{
anchors = (
{
name = bottom;
position = "{251, 0}";
},
{
name = top;
position = "{375, 700}";
}
);
guideLines = (
{
angle = -54.496;
position = "{227, 700}";
},
{
angle = -54.496;
position = "{162, 681}";
},
{
angle = 54.496;
position = "{697, 681}";
}
);
layerId = "3129A168-24FD-451B-9986-F27775A960CA";
paths = (
{
closed = 1;
nodes = (
"43 0 LINE",
"324 315 LINE",
"298 315 LINE",
"467 0 LINE",
"525 0 LINE",
"528 19 LINE",
"331 387 LINE",
"319 313 LINE",
"646 681 LINE",
"649 700 LINE",
"589 700 LINE",
"308 385 LINE",
"334 385 LINE",
"165 700 LINE",
"107 700 LINE",
"104 681 LINE",
"301 313 LINE",
"313 387 LINE",
"-14 19 LINE",
"-17 0 LINE"
);
}
);
width = 632;
}
);
unicode = 0058;
},
{
glyphname = Y;
lastChange = "2018-12-19 14:48:38 +0000";
layers = (
{
anchors = (
{
name = bottom;
position = "{287, 0}";
},
{
name = top;
position = "{411, 700}";
},
{
name = topleft;
position = "{67, 700}";
}
);
background = {
paths = (
{
closed = 1;
nodes = (
"430 0 LINE",
"430 228 LINE",
"673 608 LINE",
"673 700 LINE",
"548 700 LINE",
"338 339 LINE",
"360 339 LINE",
"150 700 LINE",
"25 700 LINE",
"25 608 LINE",
"268 228 LINE",
"268 0 LINE"
);
}
);
};
guideLines = (
{
angle = -65.5411;
position = "{-424, 680}";
},
{
angle = -57.6167;
position = "{377, 369}";
},
{
angle = 237.6167;
position = "{335, 369}";
}
);
layerId = "631A315E-0C3F-4988-8BF6-333737037850";
paths = (
{
closed = 1;
nodes = (
"367 0 LINE",
"407 215 LINE",
"720 608 LINE",
"735 700 LINE",
"615 700 LINE",
"340 334 LINE",
"353 334 LINE",
"208 700 LINE",
"87 700 LINE",
"72 608 LINE",
"247 215 LINE",
"207 0 LINE"
);
}
);
width = 698;
},
{
anchors = (
{
name = bottom;
position = "{257, 0}";
},
{
name = top;
position = "{381, 700}";
},
{
name = topleft;
position = "{85, 700}";
}
);
guideLines = (
{
angle = -61.861;
position = "{152, 683}";
},
{
angle = 61.861;
position = "{668, 700}";
},
{
position = "{152, 683}";
},
{
position = "{239, 208}";
}
);
layerId = "3129A168-24FD-451B-9986-F27775A960CA";
paths = (
{
closed = 1;
nodes = (
"286 0 LINE",
"324 208 LINE",
"662 683 LINE",
"665 700 LINE",
"609 700 LINE",
"293 249 LINE",
"310 249 LINE",
"154 700 LINE",
"97 700 LINE",
"94 683 LINE",
"265 208 LINE",
"227 0 LINE"
);
}
);
width = 638;
}
);
unicode = 0059;
},
{
glyphname = Z;
lastChange = "2018-12-19 14:48:38 +0000";
layers = (
{
anchors = (
{
name = bottom;
position = "{234, 0}";
},
{
name = top;
position = "{358, 700}";
}
);
background = {
paths = (
{
closed = 1;
nodes = (
"78 569 LINE",
"379 539 LINE",
"585 539 LINE",
"585 700 LINE",
"78 700 LINE"
);
},
{
closed = 1;
nodes = (
"60 0 LINE",
"251 0 LINE",
"417 0 LINE",
"607 0 LINE",
"607 131 LINE",
"266 161 LINE",
"60 161 LINE"
);
},
{
closed = 1;
nodes = (
"60 161 LINE",
"266 161 LINE",
"585 539 LINE",
"379 539 LINE"
);
},
{
closed = 1;
nodes = (
"379 539 LINE",
"349 542 LINE",
"406 571 LINE"
);
},
{
closed = 1;
nodes = (
"266 161 LINE",
"297 158 LINE",
"239 129 LINE"
);
}
);
};
guideLines = (
{
angle = 270;
position = "{-86, 0}";
},
{
position = "{449, 550}";
}
);
layerId = "631A315E-0C3F-4988-8BF6-333737037850";
paths = (
{
closed = 1;
nodes = (
"505 0 LINE",
"527 124 LINE",
"187 153 LINE",
"188 125 LINE",
"620 541 LINE",
"647 700 LINE",
"140 700 LINE",
"118 576 LINE",
"458 547 LINE",
"457 575 LINE",
"25 159 LINE",
"-2 0 LINE"
);
}
);
width = 645;
},
{
anchors = (
{
name = bottom;
position = "{271, 0}";
},
{
name = top;
position = "{395, 700}";
}
);
layerId = "3129A168-24FD-451B-9986-F27775A960CA";
paths = (
{
closed = 1;
nodes = (
"511 0 LINE",
"520 48 LINE",
"42 55 LINE",
"53 19 LINE",
"646 638 LINE",
"657 700 LINE",
"154 700 LINE",
"145 652 LINE",
"623 645 LINE",
"612 681 LINE",
"19 62 LINE",
"8 0 LINE"
);
}
);
width = 665;
}
);
unicode = 005A;
},
{
glyphname = a;
lastChange = "2019-03-26 09:43:25 +0000";
layers = (
{
anchors = (
{
name = bottom;
position = "{235, 0}";
},
{
name = ogonek;
position = "{536, 10}";
},
{
name = top;
position = "{323, 500}";
}
);
background = {
paths = (
{
closed = 1;
nodes = (
"363 -10 OFFCURVE",
"406 43 OFFCURVE",
"421 88 CURVE",
"401 84 LINE",
"401 0 LINE",
"557 0 LINE",
"557 500 LINE",
"404 500 LINE",
"404 421 LINE",
"429 418 LINE",
"427 454 OFFCURVE",
"375 510 OFFCURVE",
"279 510 CURVE SMOOTH",
"146 510 OFFCURVE",
"25 403 OFFCURVE",
"25 245 CURVE SMOOTH",
"25 116 OFFCURVE",
"105 -10 OFFCURVE",
"261 -10 CURVE SMOOTH"
);
},
{
closed = 1;
nodes = (
"233 136 OFFCURVE",
"176 182 OFFCURVE",
"176 256 CURVE SMOOTH",
"176 329 OFFCURVE",
"231 368 OFFCURVE",
"294 368 CURVE SMOOTH",
"370 368 OFFCURVE",
"400 312 OFFCURVE",
"400 302 CURVE",
"400 198 LINE",
"400 183 OFFCURVE",
"362 136 OFFCURVE",
"297 136 CURVE SMOOTH"
);
}
);
};
guideLines = (
{
angle = 90;
position = "{457, 500}";
}
);
layerId = "631A315E-0C3F-4988-8BF6-333737037850";
paths = (
{
closed = 1;
nodes = (
"308 -8 OFFCURVE",
"362 45 OFFCURVE",
"385 90 CURVE",
"358 79 LINE",
"344 0 LINE",
"500 0 LINE",
"588 500 LINE",
"435 500 LINE",
"422 421 LINE",
"438 413 LINE",
"442 444 OFFCURVE",
"405 508 OFFCURVE",
"305 508 CURVE SMOOTH",
"154 508 OFFCURVE",
"15 361 OFFCURVE",
"15 197 CURVE SMOOTH",
"15 84 OFFCURVE",
"80 -8 OFFCURVE",
"217 -8 CURVE SMOOTH"
);
},
{
closed = 1;
nodes = (
"212 131 OFFCURVE",
"176 167 OFFCURVE",
"176 222 CURVE SMOOTH",
"176 294 OFFCURVE",
"239 373 OFFCURVE",
"319 373 CURVE SMOOTH",
"365 373 OFFCURVE",
"395 346 OFFCURVE",
"406 312 CURVE",
"382 198 LINE",
"356 161 OFFCURVE",
"311 131 OFFCURVE",
"264 131 CURVE SMOOTH"
);
}
);
width = 596;
},
{
anchors = (
{
name = bottom;
position = "{236, 0}";
},
{
name = ogonek;
position = "{525, 23}";
},
{
name = top;
position = "{323, 490}";
}
);
background = {
paths = (
{
closed = 1;
nodes = (
"409 486 LINE",
"387 502 OFFCURVE",
"342 515 OFFCURVE",
"310 515 CURVE SMOOTH",
"164 515 OFFCURVE",
"45 396 OFFCURVE",
"45 250 CURVE SMOOTH",
"45 104 OFFCURVE",
"164 -15 OFFCURVE",
"310 -15 CURVE SMOOTH",
"342 -15 OFFCURVE",
"387 -2 OFFCURVE",
"409 14 CURVE",
"409 0 LINE",
"555 0 LINE",
"555 500 LINE",
"409 500 LINE"
);
},
{
closed = 1;
nodes = (
"245 126 OFFCURVE",
"191 182 OFFCURVE",
"191 250 CURVE SMOOTH",
"191 318 OFFCURVE",
"245 374 OFFCURVE",
"310 374 CURVE SMOOTH",
"345 374 OFFCURVE",
"390 349 OFFCURVE",
"409 318 CURVE",
"409 182 LINE",
"390 151 OFFCURVE",
"345 126 OFFCURVE",
"310 126 CURVE SMOOTH"
);
}
);
};
layerId = "3129A168-24FD-451B-9986-F27775A960CA";
paths = (
{
closed = 1;
nodes = (
"324 -15 OFFCURVE",
"400 21 OFFCURVE",
"458 78 CURVE",
"441 103 LINE",
"423 0 LINE",
"479 0 LINE",
"566 490 LINE",
"510 490 LINE",
"492 388 LINE",
"517 420 LINE",
"489 464 OFFCURVE",
"422 505 OFFCURVE",
"335 505 CURVE SMOOTH",
"172 505 OFFCURVE",
"23 364 OFFCURVE",
"23 205 CURVE SMOOTH",
"23 80 OFFCURVE",
"115 -15 OFFCURVE",
"244 -15 CURVE SMOOTH"
);
},
{
closed = 1;
nodes = (
"151 40 OFFCURVE",
"83 113 OFFCURVE",
"83 206 CURVE SMOOTH",
"83 331 OFFCURVE",
"203 450 OFFCURVE",
"329 450 CURVE SMOOTH",
"407 450 OFFCURVE",
"467 405 OFFCURVE",
"485 347 CURVE",
"447 141 LINE",
"402 81 OFFCURVE",
"322 40 OFFCURVE",
"248 40 CURVE SMOOTH"
);
}
);
width = 583;
}
);
leftKerningGroup = o;
leftMetricsKey = "=o-5";
rightMetricsKey = "=|n";
unicode = 0061;
},
{
glyphname = aring;
lastChange = "2019-03-25 11:56:41 +0000";
layers = (
{
background = {
paths = (
{
closed = 1;
nodes = (
"219 126 OFFCURVE",
"183 145 OFFCURVE",
"183 168 CURVE",
"183 189 OFFCURVE",
"211 206 OFFCURVE",
"246 206 CURVE",
"415 206 LINE",
"399 149 OFFCURVE",
"323 126 OFFCURVE",
"264 126 CURVE"
);
},
{
closed = 1;
nodes = (
"344 -15 OFFCURVE",
"413 17 OFFCURVE",
"470 56 CURVE",
"569 250 LINE",
"569 396 OFFCURVE",
"450 515 OFFCURVE",
"304 515 CURVE",
"190 515 OFFCURVE",
"89 444 OFFCURVE",
"51 329 CURVE",
"213 329 LINE",
"226 346 OFFCURVE",
"257 374 OFFCURVE",
"304 374 CURVE",
"356 374 OFFCURVE",
"395 338 OFFCURVE",
"410 306 CURVE",
"241 306 LINE",
"129 306 OFFCURVE",
"37 239 OFFCURVE",
"37 158 CURVE",
"37 63 OFFCURVE",
"139 -15 OFFCURVE",
"264 -15 CURVE"
);
},
{
closed = 1;
nodes = (
"423 0 LINE",
"569 0 LINE",
"569 250 LINE",
"423 250 LINE"
);
}
);
};
guideLines = (
{
angle = 90;
position = "{610, 500}";
}
);
layerId = "631A315E-0C3F-4988-8BF6-333737037850";
paths = (
{
closed = 1;
nodes = (
"308 -8 OFFCURVE",
"365 53 OFFCURVE",
"388 98 CURVE",
"358 79 LINE",
"344 0 LINE",
"500 0 LINE",
"588 500 LINE",
"435 500 LINE",
"422 421 LINE",
"438 413 LINE",
"442 444 OFFCURVE",
"405 508 OFFCURVE",
"305 508 CURVE SMOOTH",
"154 508 OFFCURVE",
"15 361 OFFCURVE",
"15 197 CURVE SMOOTH",
"15 84 OFFCURVE",
"80 -8 OFFCURVE",
"217 -8 CURVE SMOOTH"
);
},
{
closed = 1;
nodes = (
"212 131 OFFCURVE",
"176 167 OFFCURVE",
"176 222 CURVE SMOOTH",
"176 294 OFFCURVE",
"239 373 OFFCURVE",
"319 373 CURVE SMOOTH",
"365 373 OFFCURVE",
"395 346 OFFCURVE",
"406 312 CURVE",
"382 198 LINE",
"356 161 OFFCURVE",
"311 131 OFFCURVE",
"264 131 CURVE SMOOTH"
);
},
{
closed = 1;
nodes = (
"419 548 OFFCURVE",
"487 616 OFFCURVE",
"487 694 CURVE SMOOTH",
"487 760 OFFCURVE",
"438 811 OFFCURVE",
"370 811 CURVE SMOOTH",
"293 811 OFFCURVE",
"224 744 OFFCURVE",
"224 666 CURVE SMOOTH",
"224 599 OFFCURVE",
"274 548 OFFCURVE",
"341 548 CURVE SMOOTH"
);
},
{
closed = 1;
nodes = (
"318 635 OFFCURVE",
"305 651 OFFCURVE",
"308 670 CURVE SMOOTH",
"312 698 OFFCURVE",
"345 726 OFFCURVE",
"373 726 CURVE SMOOTH",
"390 726 OFFCURVE",
"404 715 OFFCURVE",
"404 696 CURVE SMOOTH",
"404 666 OFFCURVE",
"369 635 OFFCURVE",
"339 635 CURVE SMOOTH"
);
}
);
width = 596;
},
{
layerId = "3129A168-24FD-451B-9986-F27775A960CA";
paths = (
{
closed = 1;
nodes = (
"324 -15 OFFCURVE",
"400 21 OFFCURVE",
"458 78 CURVE",
"441 103 LINE",
"423 0 LINE",
"479 0 LINE",
"566 490 LINE",
"510 490 LINE",
"492 388 LINE",
"517 420 LINE",
"489 464 OFFCURVE",
"422 505 OFFCURVE",
"335 505 CURVE SMOOTH",
"172 505 OFFCURVE",
"23 364 OFFCURVE",
"23 205 CURVE SMOOTH",
"23 80 OFFCURVE",
"115 -15 OFFCURVE",
"244 -15 CURVE SMOOTH"
);
},
{
closed = 1;
nodes = (
"151 40 OFFCURVE",
"83 113 OFFCURVE",
"83 206 CURVE SMOOTH",
"83 331 OFFCURVE",
"203 450 OFFCURVE",
"329 450 CURVE SMOOTH",
"407 450 OFFCURVE",
"467 405 OFFCURVE",
"485 347 CURVE",
"447 141 LINE",
"402 81 OFFCURVE",
"322 40 OFFCURVE",
"248 40 CURVE SMOOTH"
);
},
{
closed = 1;
nodes = (
"403 560 OFFCURVE",
"461 614 OFFCURVE",
"461 678 CURVE SMOOTH",
"461 729 OFFCURVE",
"424 767 OFFCURVE",
"371 767 CURVE SMOOTH",
"308 767 OFFCURVE",
"251 712 OFFCURVE",
"251 649 CURVE SMOOTH",
"251 598 OFFCURVE",
"289 560 OFFCURVE",
"341 560 CURVE SMOOTH"
);
},
{
closed = 1;
nodes = (
"317 608 OFFCURVE",
"299 626 OFFCURVE",
"299 651 CURVE SMOOTH",
"299 687 OFFCURVE",
"335 719 OFFCURVE",
"370 719 CURVE SMOOTH",
"395 719 OFFCURVE",
"413 702 OFFCURVE",
"413 676 CURVE SMOOTH",
"413 640 OFFCURVE",
"378 608 OFFCURVE",
"343 608 CURVE SMOOTH"
);
}
);
width = 583;
}
);
leftKerningGroup = o;
leftMetricsKey = a;
rightMetricsKey = a;
unicode = 00E5;
},
{
glyphname = ae;
lastChange = "2018-12-19 14:53:24 +0000";
layers = (
{
background = {
guideLines = (
{
angle = 90;
position = "{749, 128}";
},
{
position = "{570, 140}";
},
{
angle = 90;
position = "{617, 116}";
},
{
position = "{563, 215}";
}
);
paths = (
{
closed = 1;
nodes = (
"736 -8 OFFCURVE",
"843 53 OFFCURVE",
"899 159 CURVE",
"758 168 LINE",
"718 133 OFFCURVE",
"689 114 OFFCURVE",
"636 114 CURVE SMOOTH",
"582 114 OFFCURVE",
"545 133 OFFCURVE",
"545 197 CURVE SMOOTH",
"545 279 OFFCURVE",
"606 386 OFFCURVE",
"695 386 CURVE SMOOTH",
"754 386 OFFCURVE",
"781 339 OFFCURVE",
"781 293 CURVE SMOOTH",
"781 269 OFFCURVE",
"774 241 OFFCURVE",
"763 215 CURVE",
"920 215 LINE",
"920 215 OFFCURVE",
"929 253 OFFCURVE",
"929 291 CURVE SMOOTH",
"929 413 OFFCURVE",
"833 508 OFFCURVE",
"700 508 CURVE SMOOTH",
"542 508 OFFCURVE",
"399 372 OFFCURVE",
"399 215 CURVE SMOOTH",
"399 86 OFFCURVE",
"496 -8 OFFCURVE",
"629 -8 CURVE SMOOTH"
);
},
{
closed = 1;
nodes = (
"812 215 LINE",
"828 306 LINE",
"532 306 LINE",
"516 215 LINE"
);
},
{
closed = 1;
nodes = (
"308 -8 OFFCURVE",
"357 33 OFFCURVE",
"380 78 CURVE",
"358 79 LINE",
"344 0 LINE",
"500 0 LINE",
"588 500 LINE",
"435 500 LINE",
"422 421 LINE",
"438 413 LINE",
"442 444 OFFCURVE",
"405 508 OFFCURVE",
"305 508 CURVE SMOOTH",
"154 508 OFFCURVE",
"15 361 OFFCURVE",
"15 197 CURVE SMOOTH",
"15 84 OFFCURVE",
"80 -8 OFFCURVE",
"217 -8 CURVE SMOOTH"
);
},
{
closed = 1;
nodes = (
"212 131 OFFCURVE",
"176 167 OFFCURVE",
"176 222 CURVE SMOOTH",
"176 294 OFFCURVE",
"239 373 OFFCURVE",
"319 373 CURVE SMOOTH",
"365 373 OFFCURVE",
"395 346 OFFCURVE",
"406 312 CURVE",
"382 198 LINE",
"356 161 OFFCURVE",
"311 131 OFFCURVE",
"264 131 CURVE SMOOTH"
);
}
);
};
layerId = "631A315E-0C3F-4988-8BF6-333737037850";
paths = (
{
closed = 1;
nodes = (
"306 -8 OFFCURVE",
"356 31 OFFCURVE",
"380 78 CURVE",
"361 79 LINE",
"347 0 LINE",
"490 0 LINE",
"502 66 LINE",
"481 77 LINE",
"485 56 OFFCURVE",
"520 -8 OFFCURVE",
"630 -8 CURVE SMOOTH",
"737 -8 OFFCURVE",
"843 53 OFFCURVE",
"899 159 CURVE",
"758 168 LINE",
"727 133 OFFCURVE",
"689 114 OFFCURVE",
"637 114 CURVE SMOOTH",
"580 114 OFFCURVE",
"532 137 OFFCURVE",
"538 215 CURVE",
"920 215 LINE",
"920 215 OFFCURVE",
"929 253 OFFCURVE",
"929 292 CURVE SMOOTH",
"929 424 OFFCURVE",
"826 508 OFFCURVE",
"703 508 CURVE SMOOTH",
"589 508 OFFCURVE",
"534 436 OFFCURVE",
"534 418 CURVE",
"565 424 LINE",
"578 500 LINE",
"441 500 LINE",
"428 421 LINE",
"438 413 LINE",
"442 444 OFFCURVE",
"405 508 OFFCURVE",
"305 508 CURVE SMOOTH",
"154 508 OFFCURVE",
"15 361 OFFCURVE",
"15 197 CURVE SMOOTH",
"15 83 OFFCURVE",
"81 -8 OFFCURVE",
"217 -8 CURVE SMOOTH"
);
},
{
closed = 1;
nodes = (
"212 131 OFFCURVE",
"176 167 OFFCURVE",
"176 222 CURVE SMOOTH",
"176 294 OFFCURVE",
"239 373 OFFCURVE",
"319 373 CURVE SMOOTH",
"365 373 OFFCURVE",
"395 346 OFFCURVE",
"406 312 CURVE",
"382 198 LINE",
"356 161 OFFCURVE",
"311 131 OFFCURVE",
"264 131 CURVE SMOOTH"
);
},
{
closed = 1;
nodes = (
"571 332 OFFCURVE",
"601 386 OFFCURVE",
"686 386 CURVE SMOOTH",
"753 386 OFFCURVE",
"770 353 OFFCURVE",
"781 306 CURVE",
"561 306 LINE"
);
}
);
width = 949;
},
{
background = {
anchors = (
{
name = bottom;
position = "{236, 0}";
},
{
name = ogonek;
position = "{525, 23}";
},
{
name = top;
position = "{323, 490}";
}
);
paths = (
{
closed = 1;
nodes = (
"779 -15 OFFCURVE",
"876 35 OFFCURVE",
"931 116 CURVE",
"864 120 LINE",
"825 64 OFFCURVE",
"756 40 OFFCURVE",
"696 40 CURVE SMOOTH",
"591 40 OFFCURVE",
"522 113 OFFCURVE",
"522 206 CURVE SMOOTH",
"522 329 OFFCURVE",
"642 450 OFFCURVE",
"765 450 CURVE SMOOTH",
"861 450 OFFCURVE",
"929 376 OFFCURVE",
"929 287 CURVE SMOOTH",
"929 266 OFFCURVE",
"925 241 OFFCURVE",
"918 215 CURVE",
"978 215 LINE",
"984 235 OFFCURVE",
"989 265 OFFCURVE",
"989 292 CURVE SMOOTH",
"989 410 OFFCURVE",
"897 505 OFFCURVE",
"769 505 CURVE SMOOTH",
"614 505 OFFCURVE",
"462 365 OFFCURVE",
"462 204 CURVE SMOOTH",
"462 80 OFFCURVE",
"554 -15 OFFCURVE",
"684 -15 CURVE SMOOTH"
);
},
{
closed = 1;
nodes = (
"962 215 LINE",
"971 266 LINE",
"500 266 LINE",
"491 215 LINE"
);
},
{
closed = 1;
nodes = (
"324 -15 OFFCURVE",
"400 21 OFFCURVE",
"458 78 CURVE",
"441 103 LINE",
"423 0 LINE",
"479 0 LINE",
"566 490 LINE",
"510 490 LINE",
"492 388 LINE",
"517 420 LINE",
"489 464 OFFCURVE",
"422 505 OFFCURVE",
"335 505 CURVE SMOOTH",
"172 505 OFFCURVE",
"23 364 OFFCURVE",
"23 205 CURVE SMOOTH",
"23 80 OFFCURVE",
"115 -15 OFFCURVE",
"244 -15 CURVE SMOOTH"
);
},
{
closed = 1;
nodes = (
"151 40 OFFCURVE",
"83 113 OFFCURVE",
"83 206 CURVE SMOOTH",
"83 331 OFFCURVE",
"203 450 OFFCURVE",
"329 450 CURVE SMOOTH",
"407 450 OFFCURVE",
"467 405 OFFCURVE",
"485 347 CURVE",
"447 141 LINE",
"402 81 OFFCURVE",
"322 40 OFFCURVE",
"248 40 CURVE SMOOTH"
);
}
);
};
layerId = "3129A168-24FD-451B-9986-F27775A960CA";
paths = (
{
closed = 1;
nodes = (
"323 -15 OFFCURVE",
"403 19 OFFCURVE",
"459 83 CURVE",
"447 103 LINE",
"429 0 LINE",
"476 0 LINE",
"498 129 LINE",
"483 116 LINE",
"513 36 OFFCURVE",
"590 -15 OFFCURVE",
"684 -15 CURVE SMOOTH",
"780 -15 OFFCURVE",
"873 37 OFFCURVE",
"932 116 CURVE",
"865 120 LINE",
"819 70 OFFCURVE",
"754 36 OFFCURVE",
"686 36 CURVE SMOOTH",
"586 36 OFFCURVE",
"512 112 OFFCURVE",
"513 213 CURVE",
"979 213 LINE",
"985 233 OFFCURVE",
"990 261 OFFCURVE",
"990 289 CURVE SMOOTH",
"990 411 OFFCURVE",
"899 505 OFFCURVE",
"770 505 CURVE SMOOTH",
"678 505 OFFCURVE",
"585 458 OFFCURVE",
"528 377 CURVE",
"540 360 LINE",
"563 490 LINE",
"516 490 LINE",
"498 388 LINE",
"513 398 LINE",
"480 466 OFFCURVE",
"413 505 OFFCURVE",
"331 505 CURVE SMOOTH",
"172 505 OFFCURVE",
"23 362 OFFCURVE",
"23 204 CURVE SMOOTH",
"23 80 OFFCURVE",
"115 -15 OFFCURVE",
"245 -15 CURVE SMOOTH"
);
},
{
closed = 1;
nodes = (
"148 36 OFFCURVE",
"79 108 OFFCURVE",
"79 205 CURVE SMOOTH",
"79 334 OFFCURVE",
"200 454 OFFCURVE",
"326 454 CURVE SMOOTH",
"402 454 OFFCURVE",
"466 411 OFFCURVE",
"491 345 CURVE",
"455 149 LINE",
"406 83 OFFCURVE",
"326 36 OFFCURVE",
"246 36 CURVE SMOOTH"
);
},
{
closed = 1;
nodes = (
"553 369 OFFCURVE",
"660 454 OFFCURVE",
"767 454 CURVE SMOOTH",
"870 454 OFFCURVE",
"942 373 OFFCURVE",
"934 268 CURVE",
"521 264 LINE"
);
}
);
width = 1054;
}
);
leftKerningGroup = o;
leftMetricsKey = a;
rightKerningGroup = o;
rightMetricsKey = e;
unicode = 00E6;
},
{
glyphname = b;
lastChange = "2018-12-19 14:48:38 +0000";
layers = (
{
anchors = (
{
name = bottom;
position = "{261, 0}";
},
{
name = top;
position = "{349, 500}";
}
);
background = {
paths = (
{
closed = 1;
nodes = (
"480 -10 OFFCURVE",
"600 101 OFFCURVE",
"600 262 CURVE SMOOTH",
"600 398 OFFCURVE",
"515 510 OFFCURVE",
"373 510 CURVE SMOOTH",
"290 510 OFFCURVE",
"228 471 OFFCURVE",
"210 432 CURVE",
"226 436 LINE",
"226 730 LINE",
"70 730 LINE",
"70 0 LINE",
"223 0 LINE",
"223 79 LINE",
"205 82 LINE",
"207 45 OFFCURVE",
"251 -10 OFFCURVE",
"346 -10 CURVE SMOOTH"
);
},
{
closed = 1;
nodes = (
"277 132 OFFCURVE",
"239 164 OFFCURVE",
"226 198 CURVE",
"226 302 LINE",
"246 340 OFFCURVE",
"286 364 OFFCURVE",
"333 364 CURVE SMOOTH",
"397 364 OFFCURVE",
"450 318 OFFCURVE",
"450 244 CURVE SMOOTH",
"450 180 OFFCURVE",
"411 132 OFFCURVE",
"337 132 CURVE SMOOTH"
);
}
);
};
guideLines = (
{
angle = 90;
position = "{431, 515}";
},
{
angle = 90;
position = "{574, 515}";
},
{
position = "{617, 430}";
},
{
position = "{554, 250}";
}
);
layerId = "631A315E-0C3F-4988-8BF6-333737037850";
paths = (
{
closed = 1;
nodes = (
"448 -8 OFFCURVE",
"578 145 OFFCURVE",
"578 308 CURVE SMOOTH",
"578 426 OFFCURVE",
"510 508 OFFCURVE",
"387 508 CURVE SMOOTH",
"310 508 OFFCURVE",
"245 476 OFFCURVE",
"220 437 CURVE",
"242 441 LINE",
"293 730 LINE",
"137 730 LINE",
"8 0 LINE",
"161 0 LINE",
"175 79 LINE",
"159 87 LINE",
"155 55 OFFCURVE",
"195 -8 OFFCURVE",
"294 -8 CURVE SMOOTH"
);
},
{
closed = 1;
nodes = (
"233 127 OFFCURVE",
"207 154 OFFCURVE",
"195 188 CURVE",
"220 302 LINE",
"245 339 OFFCURVE",
"291 369 OFFCURVE",
"339 369 CURVE SMOOTH",
"390 369 OFFCURVE",
"425 335 OFFCURVE",
"425 278 CURVE SMOOTH",
"425 201 OFFCURVE",
"363 127 OFFCURVE",
"282 127 CURVE SMOOTH"
);
}
);
width = 598;
},
{
anchors = (
{
name = bottom;
position = "{269, 0}";
},
{
name = top;
position = "{356, 490}";
}
);
guideLines = (
{
position = "{241, 730}";
}
);
layerId = "3129A168-24FD-451B-9986-F27775A960CA";
paths = (
{
closed = 1;
nodes = (
"411 -15 OFFCURVE",
"559 128 OFFCURVE",
"559 285 CURVE SMOOTH",
"559 409 OFFCURVE",
"465 505 OFFCURVE",
"337 505 CURVE SMOOTH",
"259 505 OFFCURVE",
"183 470 OFFCURVE",
"125 414 CURVE",
"143 389 LINE",
"202 730 LINE",
"146 730 LINE",
"17 0 LINE",
"73 0 LINE",
"91 102 LINE",
"68 80 LINE",
"106 22 OFFCURVE",
"173 -15 OFFCURVE",
"253 -15 CURVE SMOOTH"
);
},
{
closed = 1;
nodes = (
"184 40 OFFCURVE",
"122 76 OFFCURVE",
"96 133 CURVE",
"137 353 LINE",
"183 410 OFFCURVE",
"261 450 OFFCURVE",
"333 450 CURVE SMOOTH",
"431 450 OFFCURVE",
"499 377 OFFCURVE",
"499 284 CURVE SMOOTH",
"499 159 OFFCURVE",
"379 40 OFFCURVE",
"253 40 CURVE SMOOTH"
);
}
);
width = 624;
}
);
leftMetricsKey = n;
rightKerningGroup = o;
rightMetricsKey = o;
unicode = 0062;
},
{
glyphname = c;
lastChange = "2019-03-26 08:35:35 +0000";
layers = (
{
anchors = (
{
name = bottom;
position = "{221, 0}";
},
{
name = top;
position = "{309, 500}";
}
);
background = {
paths = (
{
closed = 0;
nodes = (
"402 441 LINE",
"416 451 LINE",
"409 472 OFFCURVE",
"351 515 OFFCURVE",
"280 515 CURVE SMOOTH",
"165 515 OFFCURVE",
"38 405 OFFCURVE",
"38 238 CURVE SMOOTH",
"38 104 OFFCURVE",
"120 -15 OFFCURVE",
"258 -15 CURVE SMOOTH",
"335 -15 OFFCURVE",
"400 22 OFFCURVE",
"419 63 CURVE"
);
},
{
closed = 1;
nodes = (
"239 131 OFFCURVE",
"188 185 OFFCURVE",
"188 250 CURVE SMOOTH",
"188 315 OFFCURVE",
"239 369 OFFCURVE",
"302 369 CURVE SMOOTH",
"345 369 OFFCURVE",
"383 344 OFFCURVE",
"402 307 CURVE",
"402 269 OFFCURVE",
"402 231 OFFCURVE",
"402 193 CURVE",
"383 156 OFFCURVE",
"345 131 OFFCURVE",
"302 131 CURVE SMOOTH"
);
}
);
};
guideLines = (
{
position = "{312, 191}";
},
{
angle = 61.887;
position = "{476, 309}";
},
{
angle = -61.8868;
position = "{434, 191}";
},
{
position = "{354, 309}";
},
{
angle = 90;
position = "{476, 309}";
},
{
position = "{429, 191}";
}
);
layerId = "631A315E-0C3F-4988-8BF6-333737037850";
paths = (
{
closed = 1;
nodes = (
"333 -8 OFFCURVE",
"423 31 OFFCURVE",
"489 110 CURVE",
"458 191 LINE",
"380 196 LINE",
"359 156 OFFCURVE",
"303 126 OFFCURVE",
"258 126 CURVE SMOOTH",
"204 126 OFFCURVE",
"169 169 OFFCURVE",
"169 219 CURVE SMOOTH",
"169 290 OFFCURVE",
"240 369 OFFCURVE",
"315 369 CURVE SMOOTH",
"352 369 OFFCURVE",
"386 350 OFFCURVE",
"400 314 CURVE",
"483 309 LINE",
"534 380 LINE",
"497 461 OFFCURVE",
"416 508 OFFCURVE",
"322 508 CURVE SMOOTH",
"163 508 OFFCURVE",
"20 372 OFFCURVE",
"20 215 CURVE SMOOTH",
"20 86 OFFCURVE",
"116 -8 OFFCURVE",
"248 -8 CURVE SMOOTH"
);
}
);
width = 552;
},
{
anchors = (
{
name = bottom;
position = "{238, 0}";
},
{
name = top;
position = "{305, 490}";
}
);
background = {
paths = (
{
closed = 1;
nodes = (
"417 454 OFFCURVE",
"509 360 OFFCURVE",
"509 245 CURVE SMOOTH",
"509 130 OFFCURVE",
"417 36 OFFCURVE",
"305 36 CURVE SMOOTH",
"193 36 OFFCURVE",
"101 130 OFFCURVE",
"101 245 CURVE SMOOTH",
"101 360 OFFCURVE",
"193 454 OFFCURVE",
"305 454 CURVE SMOOTH"
);
},
{
closed = 1;
nodes = (
"448 -15 OFFCURVE",
"565 102 OFFCURVE",
"565 245 CURVE SMOOTH",
"565 389 OFFCURVE",
"448 506 OFFCURVE",
"305 505 CURVE SMOOTH",
"162 504 OFFCURVE",
"45 387 OFFCURVE",
"45 245 CURVE SMOOTH",
"45 102 OFFCURVE",
"162 -15 OFFCURVE",
"305 -15 CURVE SMOOTH"
);
}
);
};
layerId = "3129A168-24FD-451B-9986-F27775A960CA";
paths = (
{
closed = 1;
nodes = (
"327 -15 OFFCURVE",
"405 23 OFFCURVE",
"464 82 CURVE",
"453 114 LINE",
"422 116 LINE",
"371 65 OFFCURVE",
"312 40 OFFCURVE",
"254 40 CURVE SMOOTH",
"153 40 OFFCURVE",
"88 116 OFFCURVE",
"88 207 CURVE SMOOTH",
"88 332 OFFCURVE",
"210 450 OFFCURVE",
"334 450 CURVE SMOOTH",
"391 450 OFFCURVE",
"441 425 OFFCURVE",
"472 378 CURVE",
"499 376 LINE",
"519 406 LINE",
"477 467 OFFCURVE",
"411 505 OFFCURVE",
"333 505 CURVE SMOOTH",
"179 505 OFFCURVE",
"28 358 OFFCURVE",
"28 205 CURVE SMOOTH",
"28 85 OFFCURVE",
"122 -15 OFFCURVE",
"249 -15 CURVE SMOOTH"
);
}
);
width = 559;
}
);
leftKerningGroup = o;
leftMetricsKey = "=o";
rightKerningGroup = o;
rightMetricsKey = "=o-2";
unicode = 0063;
},
{
glyphname = d;
lastChange = "2019-06-13 14:06:08 +0000";
layers = (
{
anchors = (
{
name = bottom;
position = "{230, 0}";
},
{
name = center;
position = "{234, 250}";
},
{
name = top;
position = "{318, 500}";
},
{
name = topright;
position = "{588, 500}";
}
);
background = {
paths = (
{
closed = 1;
nodes = (
"357 -15 OFFCURVE",
"401 38 OFFCURVE",
"416 83 CURVE",
"396 79 LINE",
"396 0 LINE",
"552 0 LINE",
"552 500 LINE",
"399 500 LINE",
"399 421 LINE",
"417 418 LINE",
"416 449 OFFCURVE",
"371 515 OFFCURVE",
"279 515 CURVE SMOOTH",
"162 515 OFFCURVE",
"27 410 OFFCURVE",
"27 241 CURVE SMOOTH",
"27 111 OFFCURVE",
"107 -15 OFFCURVE",
"259 -15 CURVE SMOOTH"
);
},
{
closed = 1;
nodes = (
"238 131 OFFCURVE",
"187 183 OFFCURVE",
"187 254 CURVE SMOOTH",
"187 320 OFFCURVE",
"230 373 OFFCURVE",
"295 373 CURVE SMOOTH",
"346 373 OFFCURVE",
"384 341 OFFCURVE",
"401 307 CURVE",
"401 193 LINE",
"382 156 OFFCURVE",
"344 131 OFFCURVE",
"301 131 CURVE SMOOTH"
);
}
);
};
guideLines = (
{
angle = 90;
position = "{332, 515}";
},
{
angle = 90;
position = "{121, -15}";
},
{
angle = 90;
position = "{204, -15}";
},
{
angle = 90;
position = "{280, 24}";
}
);
layerId = "631A315E-0C3F-4988-8BF6-333737037850";
paths = (
{
closed = 1;
nodes = (
"290 -8 OFFCURVE",
"378 52 OFFCURVE",
"389 94 CURVE SMOOTH",
"362 79 LINE",
"348 0 LINE",
"501 0 LINE",
"630 730 LINE",
"474 730 LINE",
"424 441 LINE",
"438 446 LINE SMOOTH",
"433 467 OFFCURVE",
"379 508 OFFCURVE",
"302 508 CURVE",
"155 508 OFFCURVE",
"20 356 OFFCURVE",
"20 194 CURVE",
"20 79 OFFCURVE",
"88 -8 OFFCURVE",
"213 -8 CURVE"
);
},
{
closed = 1;
nodes = (
"207 131 OFFCURVE",
"171 170 OFFCURVE",
"171 220 CURVE",
"171 290 OFFCURVE",
"242 369 OFFCURVE",
"319 369 CURVE",
"358 369 OFFCURVE",
"390 349 OFFCURVE",
"402 312 CURVE SMOOTH",
"378 198 LINE SMOOTH",
"353 162 OFFCURVE",
"307 131 OFFCURVE",
"260 131 CURVE"
);
}
);
width = 638;
},
{
anchors = (
{
name = bottom;
position = "{241, 0}";
},
{
name = center;
position = "{284, 245}";
},
{
name = top;
position = "{328, 490}";
},
{
name = topright;
position = "{591, 490}";
}
);
guideLines = (
{
position = "{664, 730}";
}
);
layerId = "3129A168-24FD-451B-9986-F27775A960CA";
paths = (
{
closed = 1;
nodes = (
"329 -15 OFFCURVE",
"405 21 OFFCURVE",
"463 78 CURVE",
"446 103 LINE",
"428 0 LINE",
"484 0 LINE",
"613 730 LINE",
"557 730 LINE",
"497 388 LINE",
"520 411 LINE",
"480 470 OFFCURVE",
"416 505 OFFCURVE",
"337 505 CURVE SMOOTH",
"177 505 OFFCURVE",
"28 362 OFFCURVE",
"28 204 CURVE SMOOTH",
"28 80 OFFCURVE",
"120 -15 OFFCURVE",
"249 -15 CURVE SMOOTH"
);
},
{
closed = 1;
nodes = (
"156 40 OFFCURVE",
"88 113 OFFCURVE",
"88 206 CURVE SMOOTH",
"88 331 OFFCURVE",
"208 450 OFFCURVE",
"334 450 CURVE SMOOTH",
"406 450 OFFCURVE",
"468 411 OFFCURVE",
"492 355 CURVE",
"452 139 LINE",
"407 81 OFFCURVE",
"327 40 OFFCURVE",
"253 40 CURVE SMOOTH"
);
}
);
width = 587;
}
);
leftKerningGroup = o;
leftMetricsKey = o;
rightMetricsKey = "=|n";
unicode = 0064;
},
{
glyphname = eth;
lastChange = "2018-12-19 14:48:38 +0000";
layers = (
{
layerId = "631A315E-0C3F-4988-8BF6-333737037850";
paths = (
{
closed = 1;
nodes = (
"379 -15 OFFCURVE",
"482 95 OFFCURVE",
"497 229 CURVE",
"497 363 OFFCURVE",
"394 473 OFFCURVE",
"268 473 CURVE SMOOTH",
"143 473 OFFCURVE",
"40 363 OFFCURVE",
"40 229 CURVE SMOOTH",
"40 95 OFFCURVE",
"143 -15 OFFCURVE",
"268 -15 CURVE SMOOTH"
);
},
{
closed = 1;
nodes = (
"228 137 OFFCURVE",
"196 178 OFFCURVE",
"196 229 CURVE SMOOTH",
"196 280 OFFCURVE",
"228 322 OFFCURVE",
"268 322 CURVE SMOOTH",
"308 322 OFFCURVE",
"341 280 OFFCURVE",
"341 229 CURVE SMOOTH",
"341 178 OFFCURVE",
"308 137 OFFCURVE",
"268 137 CURVE SMOOTH"
);
},
{
closed = 1;
nodes = (
"163 594 LINE",
"271 594 OFFCURVE",
"360 489 OFFCURVE",
"361 360 CURVE",
"497 229 LINE",
"525 483 OFFCURVE",
"374 702 OFFCURVE",
"163 715 CURVE"
);
},
{
closed = 1;
nodes = (
"463 729 LINE",
"322 729 LINE",
"116 494 LINE",
"257 494 LINE"
);
}
);
width = 541;
},
{
layerId = "3129A168-24FD-451B-9986-F27775A960CA";
paths = (
{
closed = 1;
nodes = (
"379 -15 OFFCURVE",
"482 92 OFFCURVE",
"497 229 CURVE",
"497 363 OFFCURVE",
"394 473 OFFCURVE",
"268 473 CURVE SMOOTH",
"143 473 OFFCURVE",
"40 363 OFFCURVE",
"40 229 CURVE SMOOTH",
"40 95 OFFCURVE",
"143 -15 OFFCURVE",
"268 -15 CURVE SMOOTH"
);
},
{
closed = 1;
nodes = (
"173 37 OFFCURVE",
"96 123 OFFCURVE",
"96 229 CURVE SMOOTH",
"96 335 OFFCURVE",
"173 422 OFFCURVE",
"268 422 CURVE SMOOTH",
"363 422 OFFCURVE",
"441 335 OFFCURVE",
"441 229 CURVE SMOOTH",
"441 123 OFFCURVE",
"363 37 OFFCURVE",
"268 37 CURVE SMOOTH"
);
},
{
closed = 1;
nodes = (
"176 664 LINE",
"305 664 OFFCURVE",
"443 508 OFFCURVE",
"443 360 CURVE",
"497 229 LINE",
"525 483 OFFCURVE",
"375 715 OFFCURVE",
"163 715 CURVE"
);
},
{
closed = 1;
nodes = (
"421 729 LINE",
"365 729 LINE",
"159 494 LINE",
"215 494 LINE"
);
}
);
width = 540;
}
);
unicode = 00F0;
},
{
glyphname = dcaron;
lastChange = "2018-12-19 14:48:38 +0000";
layers = (
{
layerId = "631A315E-0C3F-4988-8BF6-333737037850";
paths = (
{
closed = 1;
nodes = (
"327 -13 OFFCURVE",
"372 0 OFFCURVE",
"394 16 CURVE",
"394 2 LINE",
"540 2 LINE",
"540 732 LINE",
"394 732 LINE",
"394 488 LINE",
"372 504 OFFCURVE",
"327 517 OFFCURVE",
"295 517 CURVE SMOOTH",
"149 517 OFFCURVE",
"30 398 OFFCURVE",
"30 252 CURVE SMOOTH",
"30 106 OFFCURVE",
"149 -13 OFFCURVE",
"295 -13 CURVE SMOOTH"
);
},
{
closed = 1;
nodes = (
"237 128 OFFCURVE",
"176 191 OFFCURVE",
"176 252 CURVE SMOOTH",
"176 320 OFFCURVE",
"230 376 OFFCURVE",
"295 376 CURVE SMOOTH",
"330 376 OFFCURVE",
"375 351 OFFCURVE",
"394 320 CURVE",
"394 184 LINE",
"375 153 OFFCURVE",
"330 128 OFFCURVE",
"295 128 CURVE SMOOTH"
);
},
{
closed = 1;
nodes = (
"663 579 LINE",
"754 730 LINE",
"614 730 LINE",
"559 579 LINE"
);
}
);
width = 754;
},
{
layerId = "3129A168-24FD-451B-9986-F27775A960CA";
paths = (
{
closed = 1;
nodes = (
"360 -15 OFFCURVE",
"423 13 OFFCURVE",
"470 58 CURVE",
"470 0 LINE",
"526 0 LINE",
"526 700 LINE",
"470 700 LINE",
"470 433 LINE",
"423 478 OFFCURVE",
"360 506 OFFCURVE",
"290 505 CURVE SMOOTH",
"147 504 OFFCURVE",
"30 387 OFFCURVE",
"30 245 CURVE SMOOTH",
"30 102 OFFCURVE",
"147 -15 OFFCURVE",
"290 -15 CURVE SMOOTH"
);
},
{
closed = 1;
nodes = (
"178 36 OFFCURVE",
"86 130 OFFCURVE",
"86 245 CURVE SMOOTH",
"86 360 OFFCURVE",
"178 454 OFFCURVE",
"290 454 CURVE SMOOTH",
"367 454 OFFCURVE",
"436 409 OFFCURVE",
"470 343 CURVE",
"470 147 LINE",
"436 81 OFFCURVE",
"368 36 OFFCURVE",
"290 36 CURVE SMOOTH"
);
},
{
closed = 1;
nodes = (
"606 512 LINE",
"677 663 LINE",
"612 663 LINE",
"557 512 LINE"
);
}
);
width = 717;
}
);
unicode = 010F;
},
{
glyphname = e;
lastChange = "2018-12-19 14:48:38 +0000";
layers = (
{
anchors = (
{
name = bottom;
position = "{235, 0}";
},
{
name = ogonek;
position = "{365, 10}";
},
{
name = top;
position = "{323, 500}";
}
);
background = {
paths = (
{
closed = 1;
nodes = (
"449 -8 OFFCURVE",
"568 104 OFFCURVE",
"568 250 CURVE SMOOTH",
"568 396 OFFCURVE",
"449 508 OFFCURVE",
"303 508 CURVE SMOOTH",
"157 508 OFFCURVE",
"38 396 OFFCURVE",
"38 250 CURVE SMOOTH",
"38 104 OFFCURVE",
"157 -8 OFFCURVE",
"303 -8 CURVE SMOOTH"
);
},
{
closed = 1;
nodes = (
"240 131 OFFCURVE",
"189 185 OFFCURVE",
"189 250 CURVE SMOOTH",
"189 315 OFFCURVE",
"240 369 OFFCURVE",
"303 369 CURVE SMOOTH",
"366 369 OFFCURVE",
"417 315 OFFCURVE",
"417 250 CURVE SMOOTH",
"417 185 OFFCURVE",
"366 131 OFFCURVE",
"303 131 CURVE SMOOTH"
);
}
);
};
guideLines = (
{
position = "{318, 215}";
},
{
position = "{304, 164}";
},
{
angle = 61.699;
position = "{426, 195}";
}
);
layerId = "631A315E-0C3F-4988-8BF6-333737037850";
paths = (
{
closed = 1;
nodes = (
"357 -8 OFFCURVE",
"464 53 OFFCURVE",
"520 159 CURVE",
"379 168 LINE",
"339 133 OFFCURVE",
"310 114 OFFCURVE",
"257 114 CURVE SMOOTH",
"203 114 OFFCURVE",
"166 133 OFFCURVE",
"166 197 CURVE SMOOTH",
"166 279 OFFCURVE",
"227 386 OFFCURVE",
"316 386 CURVE SMOOTH",
"375 386 OFFCURVE",
"402 339 OFFCURVE",
"402 293 CURVE SMOOTH",
"402 269 OFFCURVE",
"395 241 OFFCURVE",
"384 215 CURVE",
"541 215 LINE",
"541 215 OFFCURVE",
"550 253 OFFCURVE",
"550 291 CURVE SMOOTH",
"550 413 OFFCURVE",
"454 508 OFFCURVE",
"321 508 CURVE SMOOTH",
"163 508 OFFCURVE",
"20 372 OFFCURVE",
"20 215 CURVE SMOOTH",
"20 86 OFFCURVE",
"117 -8 OFFCURVE",
"250 -8 CURVE SMOOTH"
);
},
{
closed = 1;
nodes = (
"433 215 LINE",
"449 306 LINE",
"153 306 LINE",
"137 215 LINE"
);
}
);
width = 570;
},
{
anchors = (
{
name = bottom;
position = "{248, 0}";
},
{
name = ogonek;
position = "{327, 10}";
},
{
name = top;
position = "{335, 490}";
}
);
background = {
paths = (
{
closed = 1;
nodes = (
"81 215 LINE",
"552 215 LINE",
"552 266 LINE",
"81 266 LINE"
);
},
{
closed = 1;
nodes = (
"574 228 OFFCURVE",
"575 244 OFFCURVE",
"575 250 CURVE SMOOTH",
"575 396 OFFCURVE",
"456 515 OFFCURVE",
"310 515 CURVE SMOOTH",
"164 515 OFFCURVE",
"45 396 OFFCURVE",
"45 250 CURVE SMOOTH",
"45 104 OFFCURVE",
"164 -15 OFFCURVE",
"310 -15 CURVE SMOOTH",
"391 -15 OFFCURVE",
"494 45 OFFCURVE",
"538 118 CURVE",
"473 118 LINE",
"438 73 OFFCURVE",
"365 36 OFFCURVE",
"310 36 CURVE SMOOTH",
"196 36 OFFCURVE",
"102 132 OFFCURVE",
"102 250 CURVE SMOOTH",
"102 368 OFFCURVE",
"196 464 OFFCURVE",
"310 464 CURVE SMOOTH",
"424 464 OFFCURVE",
"518 368 OFFCURVE",
"518 250 CURVE SMOOTH",
"518 241 OFFCURVE",
"517 225 OFFCURVE",
"515 215 CURVE",
"573 215 LINE"
);
}
);
};
guideLines = (
{
position = "{379, 118}";
},
{
position = "{448, 203}";
},
{
position = "{331, 215}";
}
);
layerId = "3129A168-24FD-451B-9986-F27775A960CA";
paths = (
{
closed = 1;
nodes = (
"345 -15 OFFCURVE",
"442 35 OFFCURVE",
"497 116 CURVE",
"430 120 LINE",
"391 64 OFFCURVE",
"322 40 OFFCURVE",
"262 40 CURVE SMOOTH",
"157 40 OFFCURVE",
"88 113 OFFCURVE",
"88 206 CURVE SMOOTH",
"88 329 OFFCURVE",
"208 450 OFFCURVE",
"331 450 CURVE SMOOTH",
"427 450 OFFCURVE",
"495 376 OFFCURVE",
"495 287 CURVE SMOOTH",
"495 266 OFFCURVE",
"491 241 OFFCURVE",
"484 215 CURVE",
"544 215 LINE",
"550 235 OFFCURVE",
"555 265 OFFCURVE",
"555 292 CURVE SMOOTH",
"555 410 OFFCURVE",
"463 505 OFFCURVE",
"335 505 CURVE SMOOTH",
"180 505 OFFCURVE",
"28 365 OFFCURVE",
"28 204 CURVE SMOOTH",
"28 80 OFFCURVE",
"120 -15 OFFCURVE",
"250 -15 CURVE SMOOTH"
);
},
{
closed = 1;
nodes = (
"528 215 LINE",
"537 266 LINE",
"66 266 LINE",
"57 215 LINE"
);
}
);
width = 619;
}
);
leftKerningGroup = o;
leftMetricsKey = o;
rightKerningGroup = o;
rightMetricsKey = o;
unicode = 0065;
},
{
glyphname = f;
lastChange = "2019-03-25 14:33:13 +0000";
layers = (
{
background = {
paths = (
{
closed = 1;
nodes = (
"112 0 LINE",
"258 0 LINE",
"258 551 LINE",
"112 420 LINE"
);
},
{
closed = 1;
nodes = (
"258 420 LINE",
"258 575 OFFCURVE",
"304 574 OFFCURVE",
"427 574 CURVE",
"427 715 LINE",
"204 715 OFFCURVE",
"112 632 OFFCURVE",
"112 420 CURVE"
);
},
{
closed = 1;
nodes = (
"37 359 LINE",
"366 359 LINE",
"366 500 LINE",
"37 500 LINE"
);
}
);
};
guideLines = (
{
angle = 77.9885;
position = "{438, 574}";
},
{
angle = 166.293;
position = "{115, 359}";
}
);
layerId = "631A315E-0C3F-4988-8BF6-333737037850";
paths = (
{
closed = 1;
nodes = (
"198 -10 LINE",
"263 359 LINE",
"364 379 LINE",
"385 500 LINE",
"287 500 LINE",
"297 554 LINE SMOOTH",
"301 576 OFFCURVE",
"337 599 OFFCURVE",
"370 599 CURVE SMOOTH",
"403 599 LINE",
"460 745 LINE",
"386 745 LINE SMOOTH",
"270 745 OFFCURVE",
"166 666 OFFCURVE",
"148 564 CURVE SMOOTH",
"136 500 LINE",
"56 500 LINE",
"35 379 LINE",
"112 359 LINE",
"47 -10 LINE"
);
}
);
width = 413;
},
{
background = {
paths = (
{
closed = 1;
nodes = (
"100 637 OFFCURVE",
"194 715 OFFCURVE",
"309 715 CURVE",
"309 574 LINE",
"274 574 OFFCURVE",
"246 560 OFFCURVE",
"246 542 CURVE",
"100 542 LINE"
);
},
{
closed = 1;
nodes = (
"100 0 LINE",
"246 0 LINE",
"246 542 LINE",
"100 542 LINE"
);
},
{
closed = 1;
nodes = (
"309 574 LINE",
"347 574 LINE",
"377 715 LINE",
"309 715 LINE"
);
},
{
closed = 1;
nodes = (
"100 359 LINE",
"246 359 LINE",
"347 379 LINE",
"347 500 LINE",
"18 500 LINE",
"18 379 LINE"
);
}
);
};
layerId = "3129A168-24FD-451B-9986-F27775A960CA";
paths = (
{
closed = 1;
nodes = (
"130 0 LINE",
"208 439 LINE",
"326 452 LINE",
"333 490 LINE",
"217 490 LINE",
"233 585 LINE SMOOTH",
"241 627 OFFCURVE",
"297 664 OFFCURVE",
"356 664 CURVE SMOOTH",
"364 664 LINE",
"384 715 LINE",
"361 715 LINE SMOOTH",
"271 715 OFFCURVE",
"191 660 OFFCURVE",
"178 589 CURVE SMOOTH",
"161 490 LINE",
"65 490 LINE",
"58 452 LINE",
"152 439 LINE",
"74 0 LINE"
);
}
);
width = 349;
}
);
unicode = 0066;
},
{
glyphname = g;
lastChange = "2019-03-26 07:54:59 +0000";
layers = (
{
anchors = (
{
name = bottom;
position = "{280, 0}";
},
{
name = top;
position = "{368, 500}";
}
);
background = {
paths = (
{
closed = 1;
nodes = (
"492 -273 OFFCURVE",
"608 -173 OFFCURVE",
"608 -51 CURVE SMOOTH",
"608 500 LINE",
"452 500 LINE",
"452 441 LINE",
"470 452 LINE",
"453 483 OFFCURVE",
"398 515 OFFCURVE",
"331 515 CURVE SMOOTH",
"203 515 OFFCURVE",
"85 396 OFFCURVE",
"85 245 CURVE SMOOTH",
"85 104 OFFCURVE",
"188 -15 OFFCURVE",
"316 -15 CURVE SMOOTH",
"395 -15 OFFCURVE",
"463 30 OFFCURVE",
"472 63 CURVE",
"452 59 LINE",
"452 -51 LINE SMOOTH",
"452 -90 OFFCURVE",
"407 -122 OFFCURVE",
"351 -122 CURVE SMOOTH",
"293 -122 OFFCURVE",
"246 -86 OFFCURVE",
"247 -41 CURVE",
"91 -41 LINE",
"91 -169 OFFCURVE",
"208 -273 OFFCURVE",
"351 -273 CURVE SMOOTH"
);
},
{
closed = 1;
nodes = (
"289 131 OFFCURVE",
"242 185 OFFCURVE",
"242 250 CURVE SMOOTH",
"242 315 OFFCURVE",
"289 369 OFFCURVE",
"352 369 CURVE SMOOTH",
"395 369 OFFCURVE",
"433 344 OFFCURVE",
"452 307 CURVE",
"452 193 LINE",
"433 156 OFFCURVE",
"395 131 OFFCURVE",
"352 131 CURVE SMOOTH"
);
}
);
};
guideLines = (
{
angle = 90;
position = "{-23, 257}";
}
);
layerId = "631A315E-0C3F-4988-8BF6-333737037850";
paths = (
{
closed = 1;
nodes = (
"372 -266 OFFCURVE",
"499 -178 OFFCURVE",
"520 -56 CURVE",
"618 500 LINE",
"465 500 LINE",
"452 421 LINE",
"468 413 LINE SMOOTH",
"470 455 OFFCURVE",
"427 508 OFFCURVE",
"335 508 CURVE",
"185 508 OFFCURVE",
"48 366 OFFCURVE",
"48 206 CURVE",
"48 83 OFFCURVE",
"129 -8 OFFCURVE",
"249 -8 CURVE",
"320 -8 OFFCURVE",
"391 25 OFFCURVE",
"406 58 CURVE SMOOTH",
"385 59 LINE",
"366 -46 LINE",
"359 -85 OFFCURVE",
"301 -129 OFFCURVE",
"243 -129 CURVE",
"189 -129 OFFCURVE",
"152 -92 OFFCURVE",
"161 -46 CURVE SMOOTH",
"7 -36 LINE SMOOTH",
"-15 -170 OFFCURVE",
"94 -266 OFFCURVE",
"236 -266 CURVE"
);
},
{
closed = 1;
nodes = (
"237 131 OFFCURVE",
"204 169 OFFCURVE",
"204 219 CURVE",
"204 291 OFFCURVE",
"271 369 OFFCURVE",
"348 369 CURVE",
"387 369 OFFCURVE",
"419 349 OFFCURVE",
"431 312 CURVE SMOOTH",
"407 198 LINE SMOOTH",
"382 162 OFFCURVE",
"336 131 OFFCURVE",
"289 131 CURVE"
);
}
);
width = 642;
},
{
anchors = (
{
name = bottom;
position = "{241, 0}";
},
{
name = top;
position = "{328, 490}";
}
);
background = {
paths = (
{
closed = 1;
nodes = (
"332 -262 OFFCURVE",
"453 -180 OFFCURVE",
"474 -57 CURVE SMOOTH",
"571 490 LINE",
"515 490 LINE",
"497 388 LINE",
"520 411 LINE",
"482 467 OFFCURVE",
"419 505 OFFCURVE",
"336 505 CURVE SMOOTH",
"177 505 OFFCURVE",
"28 362 OFFCURVE",
"28 204 CURVE SMOOTH",
"28 80 OFFCURVE",
"120 -15 OFFCURVE",
"249 -15 CURVE SMOOTH",
"329 -15 OFFCURVE",
"405 21 OFFCURVE",
"463 78 CURVE",
"446 103 LINE",
"419 -53 LINE SMOOTH",
"402 -149 OFFCURVE",
"306 -211 OFFCURVE",
"203 -211 CURVE SMOOTH",
"106 -211 OFFCURVE",
"25 -151 OFFCURVE",
"46 -67 CURVE",
"-11 -63 LINE",
"-35 -171 OFFCURVE",
"74 -262 OFFCURVE",
"202 -262 CURVE SMOOTH"
);
},
{
closed = 1;
nodes = (
"156 40 OFFCURVE",
"88 113 OFFCURVE",
"88 207 CURVE SMOOTH",
"88 330 OFFCURVE",
"209 450 OFFCURVE",
"331 450 CURVE SMOOTH",
"407 450 OFFCURVE",
"468 411 OFFCURVE",
"491 350 CURVE",
"453 144 LINE",
"408 83 OFFCURVE",
"331 40 OFFCURVE",
"251 40 CURVE SMOOTH"
);
}
);
};
guideLines = (
{
angle = 90;
position = "{13, 248}";
}
);
layerId = "3129A168-24FD-451B-9986-F27775A960CA";
paths = (
{
closed = 1;
nodes = (
"332 -262 OFFCURVE",
"453 -180 OFFCURVE",
"474 -57 CURVE SMOOTH",
"571 490 LINE",
"515 490 LINE",
"497 388 LINE",
"520 411 LINE",
"482 467 OFFCURVE",
"419 505 OFFCURVE",
"336 505 CURVE SMOOTH",
"177 505 OFFCURVE",
"28 362 OFFCURVE",
"28 204 CURVE SMOOTH",
"28 80 OFFCURVE",
"120 -15 OFFCURVE",
"249 -15 CURVE SMOOTH",
"329 -15 OFFCURVE",
"405 21 OFFCURVE",
"463 78 CURVE",
"446 103 LINE",
"419 -53 LINE SMOOTH",
"402 -149 OFFCURVE",
"306 -211 OFFCURVE",
"203 -211 CURVE SMOOTH",
"106 -211 OFFCURVE",
"25 -151 OFFCURVE",
"46 -67 CURVE",
"-11 -63 LINE",
"-35 -171 OFFCURVE",
"74 -262 OFFCURVE",
"202 -262 CURVE SMOOTH"
);
},
{
closed = 1;
nodes = (
"156 40 OFFCURVE",
"88 113 OFFCURVE",
"88 207 CURVE SMOOTH",
"88 330 OFFCURVE",
"209 450 OFFCURVE",
"331 450 CURVE SMOOTH",
"407 450 OFFCURVE",
"468 411 OFFCURVE",
"491 350 CURVE",
"453 144 LINE",
"408 83 OFFCURVE",
"331 40 OFFCURVE",
"251 40 CURVE SMOOTH"
);
}
);
width = 588;
}
);
leftKerningGroup = o;
unicode = 0067;
},
{
glyphname = h;
lastChange = "2018-12-19 14:48:38 +0000";
layers = (
{
anchors = (
{
name = bottom;
position = "{252, 0}";
},
{
name = center;
position = "{296, 250}";
},
{
name = top;
position = "{340, 500}";
}
);
background = {
paths = (
{
closed = 1;
nodes = (
"226 0 LINE",
"226 295 LINE",
"242 350 OFFCURVE",
"284 385 OFFCURVE",
"338 385 CURVE SMOOTH",
"396 385 OFFCURVE",
"434 344 OFFCURVE",
"434 250 CURVE SMOOTH",
"434 0 LINE",
"590 0 LINE",
"590 250 LINE SMOOTH",
"590 430 OFFCURVE",
"513 515 OFFCURVE",
"382 515 CURVE SMOOTH",
"319 515 OFFCURVE",
"255 495 OFFCURVE",
"200 420 CURVE",
"226 421 LINE",
"226 500 LINE",
"70 500 LINE",
"70 0 LINE"
);
},
{
closed = 1;
nodes = (
"226 0 LINE",
"226 303 LINE",
"242 338 OFFCURVE",
"284 373 OFFCURVE",
"338 373 CURVE SMOOTH",
"396 373 OFFCURVE",
"434 332 OFFCURVE",
"434 238 CURVE SMOOTH",
"434 0 LINE",
"590 0 LINE",
"590 250 LINE SMOOTH",
"590 430 OFFCURVE",
"513 515 OFFCURVE",
"382 515 CURVE SMOOTH",
"319 515 OFFCURVE",
"255 495 OFFCURVE",
"200 420 CURVE",
"226 421 LINE",
"226 500 LINE",
"70 500 LINE",
"70 0 LINE"
);
}
);
};
guideLines = (
{
angle = 90;
position = "{613, 539}";
},
{
angle = 90;
position = "{56, 270}";
}
);
layerId = "631A315E-0C3F-4988-8BF6-333737037850";
paths = (
{
closed = 1;
nodes = (
"164 0 LINE",
"219 300 LINE",
"241 335 OFFCURVE",
"293 375 OFFCURVE",
"352 375 CURVE SMOOTH",
"405 375 OFFCURVE",
"432 339 OFFCURVE",
"416 245 CURVE SMOOTH",
"372 0 LINE",
"528 0 LINE",
"571 245 LINE SMOOTH",
"603 426 OFFCURVE",
"536 508 OFFCURVE",
"398 508 CURVE SMOOTH",
"327 508 OFFCURVE",
"266 487 OFFCURVE",
"210 424 CURVE",
"239 421 LINE",
"293 730 LINE",
"137 730 LINE",
"8 0 LINE"
);
}
);
width = 622;
},
{
anchors = (
{
name = bottom;
position = "{237, 0}";
},
{
name = center;
position = "{280, 245}";
},
{
name = top;
position = "{324, 490}";
}
);
background = {
paths = (
{
closed = 1;
nodes = (
"135 0 LINE",
"135 305 LINE SMOOTH",
"135 374 OFFCURVE",
"209 450 OFFCURVE",
"299 450 CURVE SMOOTH",
"389 450 OFFCURVE",
"463 374 OFFCURVE",
"463 285 CURVE SMOOTH",
"463 0 LINE",
"519 0 LINE",
"519 285 LINE SMOOTH",
"519 407 OFFCURVE",
"420 506 OFFCURVE",
"299 505 CURVE SMOOTH",
"223 504 OFFCURVE",
"148 456 OFFCURVE",
"117 397 CURVE",
"135 386 LINE",
"135 490 LINE",
"79 490 LINE",
"79 0 LINE"
);
}
);
};
guideLines = (
{
position = "{209, 730}";
}
);
layerId = "3129A168-24FD-451B-9986-F27775A960CA";
paths = (
{
closed = 1;
nodes = (
"73 0 LINE",
"127 303 LINE SMOOTH",
"139 372 OFFCURVE",
"229 450 OFFCURVE",
"320 450 CURVE SMOOTH",
"409 450 OFFCURVE",
"468 376 OFFCURVE",
"450 277 CURVE SMOOTH",
"401 0 LINE",
"457 0 LINE",
"507 283 LINE SMOOTH",
"530 412 OFFCURVE",
"439 506 OFFCURVE",
"329 505 CURVE SMOOTH",
"252 505 OFFCURVE",
"166 459 OFFCURVE",
"125 399 CURVE",
"142 386 LINE",
"202 730 LINE",
"146 730 LINE",
"17 0 LINE"
);
}
);
width = 557;
}
);
leftMetricsKey = n;
rightKerningGroup = n;
rightMetricsKey = n;
unicode = 0068;
},
{
glyphname = i;
lastChange = "2019-06-13 14:06:16 +0000";
layers = (
{
anchors = (
{
name = bottom;
position = "{73, 0}";
}
);
guideLines = (
{
angle = 90;
position = "{12, 0}";
},
{
position = "{217, 583}";
},
{
angle = 90;
position = "{110, 501}";
},
{
angle = 90;
position = "{266, 499}";
}
);
layerId = "631A315E-0C3F-4988-8BF6-333737037850";
paths = (
{
closed = 1;
nodes = (
"159 0 LINE",
"247 500 LINE",
"91 500 LINE",
"3 0 LINE"
);
},
{
closed = 1;
nodes = (
"237 554 OFFCURVE",
"282 598 OFFCURVE",
"282 648 CURVE",
"282 695 OFFCURVE",
"248 731 OFFCURVE",
"201 731 CURVE",
"150 731 OFFCURVE",
"106 687 OFFCURVE",
"106 636 CURVE",
"106 590 OFFCURVE",
"141 554 OFFCURVE",
"189 554 CURVE"
);
}
);
width = 285;
},
{
anchors = (
{
name = bottom;
position = "{56, 0}";
}
);
background = {
paths = (
{
closed = 1;
nodes = (
"45 0 LINE",
"191 0 LINE",
"191 500 LINE",
"45 500 LINE"
);
},
{
closed = 1;
nodes = (
"164 583 OFFCURVE",
"202 621 OFFCURVE",
"202 668 CURVE SMOOTH",
"202 714 OFFCURVE",
"164 752 OFFCURVE",
"118 752 CURVE SMOOTH",
"71 752 OFFCURVE",
"33 714 OFFCURVE",
"33 668 CURVE SMOOTH",
"33 621 OFFCURVE",
"71 583 OFFCURVE",
"118 583 CURVE SMOOTH"
);
}
);
};
layerId = "3129A168-24FD-451B-9986-F27775A960CA";
paths = (
{
closed = 1;
nodes = (
"84 0 LINE",
"171 490 LINE",
"115 490 LINE",
"28 0 LINE"
);
},
{
closed = 1;
nodes = (
"188 583 OFFCURVE",
"211 606 OFFCURVE",
"211 633 CURVE SMOOTH",
"211 655 OFFCURVE",
"194 672 OFFCURVE",
"171 672 CURVE SMOOTH",
"145 672 OFFCURVE",
"122 649 OFFCURVE",
"122 623 CURVE SMOOTH",
"122 600 OFFCURVE",
"139 583 OFFCURVE",
"163 583 CURVE SMOOTH"
);
}
);
width = 198;
}
);
leftMetricsKey = "=n-5";
rightMetricsKey = "=|i";
unicode = 0069;
},
{
glyphname = idotless;
lastChange = "2018-12-19 15:13:56 +0000";
layers = (
{
anchors = (
{
name = bottom;
position = "{51, 0}";
},
{
name = ogonek;
position = "{143, 10}";
},
{
name = top;
position = "{139, 500}";
}
);
layerId = "631A315E-0C3F-4988-8BF6-333737037850";
paths = (
{
closed = 1;
nodes = (
"-22 0 LINE",
"124 0 LINE",
"212 500 LINE",
"66 500 LINE"
);
}
);
width = 226;
},
{
anchors = (
{
name = bottom;
position = "{6, 0}";
},
{
name = ogonek;
position = "{80, 23}";
},
{
name = top;
position = "{93, 490}";
}
);
layerId = "3129A168-24FD-451B-9986-F27775A960CA";
paths = (
{
closed = 1;
nodes = (
"-22 0 LINE",
"34 0 LINE",
"121 490 LINE",
"65 490 LINE"
);
}
);
width = 136;
}
);
unicode = 0131;
},
{
glyphname = j;
lastChange = "2019-06-13 14:06:21 +0000";
layers = (
{
background = {
paths = (
{
closed = 1;
nodes = (
"227 -137 OFFCURVE",
"133 -215 OFFCURVE",
"18 -215 CURVE",
"18 -74 LINE",
"53 -74 OFFCURVE",
"81 -60 OFFCURVE",
"81 -42 CURVE",
"227 -42 LINE"
);
},
{
closed = 1;
nodes = (
"227 500 LINE",
"81 500 LINE",
"81 -42 LINE",
"227 -42 LINE"
);
},
{
closed = 1;
nodes = (
"18 -74 LINE",
"-50 -74 LINE",
"-20 -215 LINE",
"18 -215 LINE"
);
}
);
};
guideLines = (
{
angle = 90;
position = "{-170, -75}";
},
{
angle = 90;
position = "{-249, -215}";
}
);
layerId = "631A315E-0C3F-4988-8BF6-333737037850";
paths = (
{
closed = 1;
nodes = (
"-72 -215 LINE SMOOTH",
"44 -215 OFFCURVE",
"148 -136 OFFCURVE",
"166 -34 CURVE SMOOTH",
"260 500 LINE",
"109 500 LINE",
"17 -24 LINE SMOOTH",
"13 -46 OFFCURVE",
"-23 -69 OFFCURVE",
"-56 -69 CURVE SMOOTH",
"-89 -69 LINE",
"-146 -215 LINE"
);
},
{
closed = 1;
nodes = (
"248 554 OFFCURVE",
"293 598 OFFCURVE",
"293 648 CURVE SMOOTH",
"293 695 OFFCURVE",
"259 731 OFFCURVE",
"212 731 CURVE SMOOTH",
"161 731 OFFCURVE",
"117 687 OFFCURVE",
"117 636 CURVE SMOOTH",
"117 590 OFFCURVE",
"152 554 OFFCURVE",
"200 554 CURVE SMOOTH"
);
}
);
width = 286;
},
{
layerId = "3129A168-24FD-451B-9986-F27775A960CA";
paths = (
{
closed = 1;
nodes = (
"-114 -225 LINE SMOOTH",
"-24 -225 OFFCURVE",
"57 -169 OFFCURVE",
"70 -99 CURVE SMOOTH",
"174 490 LINE",
"118 490 LINE",
"15 -95 LINE SMOOTH",
"7 -137 OFFCURVE",
"-50 -174 OFFCURVE",
"-109 -174 CURVE SMOOTH",
"-127 -174 LINE",
"-125 -225 LINE"
);
},
{
closed = 1;
nodes = (
"191 583 OFFCURVE",
"214 606 OFFCURVE",
"214 633 CURVE SMOOTH",
"214 655 OFFCURVE",
"197 672 OFFCURVE",
"174 672 CURVE SMOOTH",
"148 672 OFFCURVE",
"125 649 OFFCURVE",
"125 623 CURVE SMOOTH",
"125 600 OFFCURVE",
"142 583 OFFCURVE",
"166 583 CURVE SMOOTH"
);
}
);
width = 206;
}
);
rightMetricsKey = l;
unicode = 006A;
},
{
glyphname = k;
lastChange = "2019-06-13 14:06:22 +0000";
layers = (
{
anchors = (
{
name = bottom;
position = "{260, 0}";
},
{
name = top;
position = "{348, 500}";
}
);
background = {
paths = (
{
closed = 1;
nodes = (
"241 0 LINE",
"241 82 LINE",
"316 162 LINE",
"445 0 LINE",
"569 0 LINE",
"569 89 LINE",
"421 275 LINE",
"547 410 LINE",
"547 500 LINE",
"422 500 LINE",
"241 306 LINE",
"241 730 LINE",
"85 730 LINE",
"85 0 LINE"
);
}
);
};
guideLines = (
{
angle = 45.755;
position = "{109, 64}";
},
{
angle = 128.5205;
position = "{477, 89}";
}
);
layerId = "631A315E-0C3F-4988-8BF6-333737037850";
paths = (
{
closed = 1;
nodes = (
"179 0 LINE",
"200 127 LINE",
"161 74 LINE",
"317 208 LINE",
"274 197 LINE",
"385 0 LINE",
"507 0 LINE",
"521 89 LINE",
"382 312 LINE",
"368 253 LINE",
"561 420 LINE",
"573 500 LINE",
"457 500 LINE",
"230 297 LINE",
"308 730 LINE",
"152 730 LINE",
"23 0 LINE"
);
}
);
width = 614;
},
{
anchors = (
{
name = bottom;
position = "{217, 0}";
},
{
name = top;
position = "{304, 490}";
}
);
background = {
paths = (
{
closed = 1;
nodes = (
"185 0 LINE",
"185 700 LINE",
"39 700 LINE",
"39 0 LINE"
);
},
{
closed = 1;
nodes = (
"503 0 LINE",
"503 89 LINE",
"339 295 LINE",
"233 201 LINE",
"393 0 LINE"
);
},
{
closed = 1;
nodes = (
"137 249 LINE",
"167 74 LINE",
"481 410 LINE",
"481 500 LINE",
"371 500 LINE"
);
}
);
};
guideLines = (
{
angle = 47.0309;
position = "{16, 100}";
},
{
angle = 127.4606;
position = "{373, 25}";
},
{
angle = 47.0309;
position = "{441, 490}";
}
);
layerId = "3129A168-24FD-451B-9986-F27775A960CA";
paths = (
{
closed = 1;
nodes = (
"73 0 LINE",
"104 178 LINE",
"60 100 LINE",
"251 271 LINE",
"193 274 LINE",
"376 0 LINE",
"426 0 LINE",
"430 25 LINE",
"237 315 LINE",
"222 246 LINE",
"466 466 LINE",
"470 490 LINE",
"416 490 LINE",
"110 214 LINE",
"197 700 LINE",
"141 700 LINE",
"17 0 LINE"
);
}
);
width = 523;
}
);
leftMetricsKey = "=l";
unicode = 006B;
},
{
glyphname = l;
lastChange = "2019-03-25 12:41:40 +0000";
layers = (
{
anchors = (
{
name = bottom;
position = "{73, 0}";
},
{
name = center;
position = "{144, 397}";
},
{
name = top;
position = "{294, 500}";
},
{
name = topright;
position = "{267, 500}";
}
);
layerId = "631A315E-0C3F-4988-8BF6-333737037850";
paths = (
{
closed = 1;
nodes = (
"179 0 LINE",
"308 730 LINE",
"152 730 LINE",
"23 0 LINE"
);
}
);
width = 301;
},
{
anchors = (
{
name = bottom;
position = "{26, 0}";
},
{
name = center;
position = "{110, 365}";
},
{
name = top;
position = "{182, 490}";
},
{
name = topright;
position = "{181, 490}";
}
);
layerId = "3129A168-24FD-451B-9986-F27775A960CA";
paths = (
{
closed = 1;
nodes = (
"73 0 LINE",
"202 730 LINE",
"146 730 LINE",
"17 0 LINE"
);
}
);
width = 176;
}
);
unicode = 006C;
},
{
glyphname = lcaron;
lastChange = "2018-12-19 14:48:38 +0000";
layers = (
{
layerId = "631A315E-0C3F-4988-8BF6-333737037850";
paths = (
{
closed = 1;
nodes = (
"118 0 LINE",
"264 0 LINE",
"388 700 LINE",
"242 700 LINE"
);
},
{
closed = 1;
nodes = (
"376 409 LINE",
"475 409 LINE",
"527 700 LINE",
"428 700 LINE"
);
}
);
width = 600;
},
{
layerId = "3129A168-24FD-451B-9986-F27775A960CA";
paths = (
{
closed = 1;
nodes = (
"-22 0 LINE",
"34 0 LINE",
"163 730 LINE",
"107 730 LINE"
);
},
{
closed = 1;
nodes = (
"163 503 LINE",
"209 503 LINE",
"249 731 LINE",
"203 731 LINE"
);
}
);
width = 222;
}
);
unicode = 013E;
},
{
glyphname = m;
lastChange = "2018-12-19 14:48:38 +0000";
layers = (
{
anchors = (
{
name = bottom;
position = "{419, 0}";
},
{
name = top;
position = "{507, 500}";
}
);
background = {
paths = (
{
closed = 1;
nodes = (
"199 0 LINE",
"199 303 LINE",
"215 338 OFFCURVE",
"257 373 OFFCURVE",
"311 373 CURVE SMOOTH",
"369 373 OFFCURVE",
"407 332 OFFCURVE",
"407 238 CURVE SMOOTH",
"407 0 LINE",
"563 0 LINE",
"563 250 LINE SMOOTH",
"563 430 OFFCURVE",
"486 515 OFFCURVE",
"355 515 CURVE SMOOTH",
"292 515 OFFCURVE",
"228 495 OFFCURVE",
"173 420 CURVE",
"199 421 LINE",
"199 500 LINE",
"43 500 LINE",
"43 0 LINE"
);
},
{
closed = 1;
nodes = (
"528 0 LINE",
"528 303 LINE",
"544 338 OFFCURVE",
"586 373 OFFCURVE",
"640 373 CURVE SMOOTH",
"698 373 OFFCURVE",
"736 332 OFFCURVE",
"736 238 CURVE SMOOTH",
"736 0 LINE",
"892 0 LINE",
"892 250 LINE SMOOTH",
"892 430 OFFCURVE",
"815 515 OFFCURVE",
"684 515 CURVE SMOOTH",
"621 515 OFFCURVE",
"557 495 OFFCURVE",
"502 420 CURVE",
"528 421 LINE",
"528 500 LINE",
"372 500 LINE",
"372 0 LINE"
);
}
);
};
guideLines = (
{
position = "{368, 250}";
}
);
layerId = "631A315E-0C3F-4988-8BF6-333737037850";
paths = (
{
closed = 1;
nodes = (
"164 0 LINE",
"223 320 LINE",
"250 353 OFFCURVE",
"295 373 OFFCURVE",
"330 373 CURVE SMOOTH",
"374 373 OFFCURVE",
"401 339 OFFCURVE",
"384 243 CURVE SMOOTH",
"342 0 LINE",
"498 0 LINE",
"556 323 LINE",
"574 349 OFFCURVE",
"621 373 OFFCURVE",
"659 373 CURVE SMOOTH",
"702 373 OFFCURVE",
"731 338 OFFCURVE",
"714 243 CURVE SMOOTH",
"671 0 LINE",
"827 0 LINE",
"877 285 LINE SMOOTH",
"901 421 OFFCURVE",
"832 508 OFFCURVE",
"713 508 CURVE SMOOTH",
"639 508 OFFCURVE",
"559 473 OFFCURVE",
"520 425 CURVE",
"541 417 LINE",
"523 466 OFFCURVE",
"463 508 OFFCURVE",
"387 508 CURVE SMOOTH",
"319 508 OFFCURVE",
"250 473 OFFCURVE",
"211 425 CURVE",
"238 416 LINE",
"252 500 LINE",
"96 500 LINE",
"8 0 LINE"
);
}
);
width = 925;
},
{
anchors = (
{
name = bottom;
position = "{389, 0}";
},
{
name = top;
position = "{476, 490}";
}
);
background = {
paths = (
{
closed = 1;
nodes = (
"441 0 LINE",
"441 305 LINE SMOOTH",
"441 374 OFFCURVE",
"515 450 OFFCURVE",
"605 450 CURVE SMOOTH",
"695 450 OFFCURVE",
"769 374 OFFCURVE",
"769 275 CURVE SMOOTH",
"769 0 LINE",
"825 0 LINE",
"825 285 LINE SMOOTH",
"825 414 OFFCURVE",
"719 506 OFFCURVE",
"612 505 CURVE SMOOTH",
"533 504 OFFCURVE",
"454 457 OFFCURVE",
"423 397 CURVE",
"441 386 LINE",
"441 730 LINE",
"385 730 LINE",
"385 0 LINE"
);
}
);
};
layerId = "3129A168-24FD-451B-9986-F27775A960CA";
paths = (
{
closed = 1;
nodes = (
"73 0 LINE",
"127 303 LINE SMOOTH",
"140 380 OFFCURVE",
"226 450 OFFCURVE",
"303 450 CURVE SMOOTH",
"376 450 OFFCURVE",
"429 386 OFFCURVE",
"415 307 CURVE SMOOTH",
"361 0 LINE",
"417 0 LINE",
"471 306 LINE SMOOTH",
"485 383 OFFCURVE",
"564 450 OFFCURVE",
"644 450 CURVE SMOOTH",
"722 450 OFFCURVE",
"774 392 OFFCURVE",
"756 287 CURVE SMOOTH",
"705 0 LINE",
"761 0 LINE",
"811 283 LINE SMOOTH",
"836 426 OFFCURVE",
"762 505 OFFCURVE",
"653 505 CURVE SMOOTH",
"563 505 OFFCURVE",
"482 442 OFFCURVE",
"441 373 CURVE",
"469 379 LINE",
"453 449 OFFCURVE",
"386 505 OFFCURVE",
"307 505 CURVE SMOOTH",
"234 505 OFFCURVE",
"166 457 OFFCURVE",
"126 407 CURVE",
"144 398 LINE",
"160 490 LINE",
"104 490 LINE",
"17 0 LINE"
);
}
);
width = 861;
}
);
leftKerningGroup = n;
leftMetricsKey = n;
rightKerningGroup = n;
rightMetricsKey = n;
unicode = 006D;
},
{
glyphname = n;
lastChange = "2018-12-19 14:48:38 +0000";
layers = (
{
anchors = (
{
name = bottom;
position = "{268, 0}";
},
{
name = top;
position = "{316, 500}";
}
);
background = {
paths = (
{
closed = 1;
nodes = (
"228 -230 LINE",
"228 59 LINE",
"214 49 LINE",
"221 28 OFFCURVE",
"279 -15 OFFCURVE",
"350 -15 CURVE SMOOTH",
"465 -15 OFFCURVE",
"592 96 OFFCURVE",
"592 261 CURVE SMOOTH",
"592 396 OFFCURVE",
"508 515 OFFCURVE",
"376 515 CURVE SMOOTH",
"286 515 OFFCURVE",
"212 459 OFFCURVE",
"207 416 CURVE",
"225 422 LINE",
"225 500 LINE",
"72 500 LINE",
"72 -230 LINE"
);
},
{
closed = 1;
nodes = (
"285 131 OFFCURVE",
"247 156 OFFCURVE",
"228 193 CURVE",
"228 307 LINE",
"247 344 OFFCURVE",
"285 369 OFFCURVE",
"328 369 CURVE SMOOTH",
"391 369 OFFCURVE",
"442 315 OFFCURVE",
"442 250 CURVE SMOOTH",
"442 185 OFFCURVE",
"391 131 OFFCURVE",
"328 131 CURVE SMOOTH"
);
}
);
};
layerId = "631A315E-0C3F-4988-8BF6-333737037850";
paths = (
{
closed = 1;
nodes = (
"164 0 LINE",
"219 298 LINE",
"241 333 OFFCURVE",
"293 373 OFFCURVE",
"352 373 CURVE SMOOTH",
"405 373 OFFCURVE",
"432 337 OFFCURVE",
"415 243 CURVE SMOOTH",
"372 0 LINE",
"528 0 LINE",
"571 245 LINE SMOOTH",
"603 427 OFFCURVE",
"536 508 OFFCURVE",
"396 508 CURVE SMOOTH",
"336 508 OFFCURVE",
"274 494 OFFCURVE",
"210 424 CURVE",
"239 421 LINE",
"252 500 LINE",
"96 500 LINE",
"8 0 LINE"
);
}
);
width = 622;
},
{
anchors = (
{
name = bottom;
position = "{237, 0}";
},
{
name = top;
position = "{324, 490}";
}
);
background = {
paths = (
{
closed = 1;
nodes = (
"135 0 LINE",
"135 305 LINE SMOOTH",
"135 374 OFFCURVE",
"209 450 OFFCURVE",
"299 450 CURVE SMOOTH",
"389 450 OFFCURVE",
"463 374 OFFCURVE",
"463 275 CURVE SMOOTH",
"463 0 LINE",
"519 0 LINE",
"519 285 LINE SMOOTH",
"519 414 OFFCURVE",
"413 506 OFFCURVE",
"306 505 CURVE SMOOTH",
"227 505 OFFCURVE",
"148 457 OFFCURVE",
"117 397 CURVE",
"135 386 LINE",
"135 730 LINE",
"79 730 LINE",
"79 0 LINE"
);
}
);
};
guideLines = (
{
angle = 90;
position = "{519, 244}";
}
);
layerId = "3129A168-24FD-451B-9986-F27775A960CA";
paths = (
{
closed = 1;
nodes = (
"73 0 LINE",
"127 303 LINE SMOOTH",
"139 372 OFFCURVE",
"229 450 OFFCURVE",
"320 450 CURVE SMOOTH",
"409 450 OFFCURVE",
"468 376 OFFCURVE",
"450 277 CURVE SMOOTH",
"401 0 LINE",
"457 0 LINE",
"507 283 LINE SMOOTH",
"530 412 OFFCURVE",
"439 506 OFFCURVE",
"329 505 CURVE SMOOTH",
"248 504 OFFCURVE",
"166 458 OFFCURVE",
"125 399 CURVE",
"142 386 LINE",
"160 490 LINE",
"104 490 LINE",
"17 0 LINE"
);
}
);
width = 557;
}
);
leftKerningGroup = n;
rightKerningGroup = n;
unicode = 006E;
},
{
glyphname = eng;
lastChange = "2019-03-21 13:45:55 +0000";
layers = (
{
layerId = "631A315E-0C3F-4988-8BF6-333737037850";
paths = (
{
closed = 1;
nodes = (
"399 -204 OFFCURVE",
"507 -119 OFFCURVE",
"528 0 CURVE",
"372 0 LINE",
"365 -46 OFFCURVE",
"336 -62 OFFCURVE",
"250 -62 CURVE",
"235 -204 LINE"
);
},
{
closed = 1;
nodes = (
"336 508 OFFCURVE",
"274 494 OFFCURVE",
"210 424 CURVE",
"239 421 LINE",
"252 500 LINE",
"96 500 LINE",
"8 0 LINE",
"164 0 LINE",
"219 298 LINE",
"240 332 OFFCURVE",
"293 373 OFFCURVE",
"351 373 CURVE SMOOTH",
"405 373 OFFCURVE",
"432 338 OFFCURVE",
"415 243 CURVE SMOOTH",
"372 0 LINE",
"528 0 LINE",
"571 245 LINE SMOOTH",
"604 433 OFFCURVE",
"531 508 OFFCURVE",
"395 508 CURVE SMOOTH"
);
}
);
width = 610;
},
{
layerId = "3129A168-24FD-451B-9986-F27775A960CA";
paths = (
{
closed = 1;
nodes = (
"300 -154 OFFCURVE",
"396 -103 OFFCURVE",
"418 0 CURVE",
"362 0 LINE",
"345 -75 OFFCURVE",
"274 -103 OFFCURVE",
"191 -103 CURVE",
"186 -154 LINE"
);
},
{
closed = 1;
nodes = (
"214 504 OFFCURVE",
"146 472 OFFCURVE",
"97 420 CURVE",
"107 406 LINE",
"121 490 LINE",
"65 490 LINE",
"-22 0 LINE",
"34 0 LINE",
"84 283 LINE SMOOTH",
"101 376 OFFCURVE",
"190 454 OFFCURVE",
"282 454 CURVE SMOOTH",
"370 454 OFFCURVE",
"429 380 OFFCURVE",
"413 287 CURVE SMOOTH",
"362 0 LINE",
"418 0 LINE",
"468 283 LINE SMOOTH",
"490 405 OFFCURVE",
"407 506 OFFCURVE",
"283 505 CURVE SMOOTH"
);
}
);
width = 520;
}
);
unicode = 014B;
},
{
glyphname = o;
lastChange = "2019-03-26 08:36:12 +0000";
layers = (
{
anchors = (
{
name = bottom;
position = "{243, 0}";
},
{
name = center;
position = "{287, 250}";
},
{
name = ogonek;
position = "{481, 10}";
},
{
name = top;
position = "{331, 500}";
},
{
name = topright;
position = "{517, 478}";
}
);
layerId = "631A315E-0C3F-4988-8BF6-333737037850";
paths = (
{
closed = 1;
nodes = (
"410 -8 OFFCURVE",
"554 125 OFFCURVE",
"554 285 CURVE SMOOTH",
"554 415 OFFCURVE",
"458 508 OFFCURVE",
"324 508 CURVE SMOOTH",
"163 508 OFFCURVE",
"20 373 OFFCURVE",
"20 216 CURVE SMOOTH",
"20 86 OFFCURVE",
"117 -8 OFFCURVE",
"251 -8 CURVE SMOOTH"
);
},
{
closed = 1;
nodes = (
"205 131 OFFCURVE",
"169 170 OFFCURVE",
"169 220 CURVE SMOOTH",
"169 290 OFFCURVE",
"240 369 OFFCURVE",
"317 369 CURVE SMOOTH",
"369 369 OFFCURVE",
"405 333 OFFCURVE",
"405 280 CURVE SMOOTH",
"405 203 OFFCURVE",
"331 131 OFFCURVE",
"258 131 CURVE SMOOTH"
);
}
);
width = 574;
},
{
anchors = (
{
name = bottom;
position = "{248, 0}";
},
{
name = center;
position = "{291, 245}";
},
{
name = ogonek;
position = "{482, 10}";
},
{
name = top;
position = "{335, 490}";
},
{
name = topright;
position = "{605, 490}";
}
);
layerId = "3129A168-24FD-451B-9986-F27775A960CA";
paths = (
{
closed = 1;
nodes = (
"409 -15 OFFCURVE",
"555 128 OFFCURVE",
"555 288 CURVE SMOOTH",
"555 411 OFFCURVE",
"464 505 OFFCURVE",
"335 505 CURVE SMOOTH",
"177 505 OFFCURVE",
"28 361 OFFCURVE",
"28 204 CURVE SMOOTH",
"28 80 OFFCURVE",
"120 -15 OFFCURVE",
"249 -15 CURVE SMOOTH"
);
},
{
closed = 1;
nodes = (
"156 40 OFFCURVE",
"88 113 OFFCURVE",
"88 207 CURVE SMOOTH",
"88 330 OFFCURVE",
"209 450 OFFCURVE",
"331 450 CURVE SMOOTH",
"427 450 OFFCURVE",
"495 377 OFFCURVE",
"495 283 CURVE SMOOTH",
"495 160 OFFCURVE",
"374 40 OFFCURVE",
"251 40 CURVE SMOOTH"
);
}
);
width = 620;
}
);
leftKerningGroup = o;
rightKerningGroup = o;
unicode = 006F;
},
{
glyphname = oslash;
lastChange = "2019-03-26 09:42:38 +0000";
layers = (
{
background = {
paths = (
{
closed = 1;
nodes = (
"493 -15 OFFCURVE",
"612 104 OFFCURVE",
"612 250 CURVE SMOOTH",
"612 396 OFFCURVE",
"493 515 OFFCURVE",
"347 515 CURVE SMOOTH",
"201 515 OFFCURVE",
"82 396 OFFCURVE",
"82 250 CURVE SMOOTH",
"82 104 OFFCURVE",
"181 -15 OFFCURVE",
"347 -15 CURVE SMOOTH"
);
},
{
closed = 1;
nodes = (
"284 131 OFFCURVE",
"233 185 OFFCURVE",
"233 250 CURVE SMOOTH",
"233 315 OFFCURVE",
"284 369 OFFCURVE",
"347 369 CURVE SMOOTH",
"410 369 OFFCURVE",
"461 315 OFFCURVE",
"461 250 CURVE SMOOTH",
"461 185 OFFCURVE",
"410 131 OFFCURVE",
"347 131 CURVE SMOOTH"
);
},
{
closed = 1;
nodes = (
"612 431 LINE",
"612 500 LINE",
"497 500 LINE",
"447 448 LINE",
"539 355 LINE"
);
},
{
closed = 1;
nodes = (
"82 69 LINE",
"82 0 LINE",
"197 0 LINE",
"247 52 LINE",
"153 143 LINE"
);
},
{
closed = 1;
nodes = (
"247 52 LINE",
"539 355 LINE",
"446 447 LINE",
"153 143 LINE"
);
}
);
};
guideLines = (
{
angle = 90;
position = "{628, 396}";
},
{
angle = 90;
position = "{47, 250}";
},
{
angle = 46.0835;
position = "{16, 0}";
}
);
layerId = "631A315E-0C3F-4988-8BF6-333737037850";
paths = (
{
closed = 1;
nodes = (
"452 -8 OFFCURVE",
"596 125 OFFCURVE",
"596 285 CURVE SMOOTH",
"596 415 OFFCURVE",
"500 508 OFFCURVE",
"366 508 CURVE SMOOTH",
"205 508 OFFCURVE",
"62 373 OFFCURVE",
"62 216 CURVE SMOOTH",
"62 86 OFFCURVE",
"159 -8 OFFCURVE",
"293 -8 CURVE SMOOTH"
);
},
{
closed = 1;
nodes = (
"247 131 OFFCURVE",
"211 170 OFFCURVE",
"211 220 CURVE SMOOTH",
"211 290 OFFCURVE",
"282 369 OFFCURVE",
"359 369 CURVE SMOOTH",
"411 369 OFFCURVE",
"447 333 OFFCURVE",
"447 280 CURVE SMOOTH",
"447 203 OFFCURVE",
"373 131 OFFCURVE",
"300 131 CURVE SMOOTH"
);
},
{
closed = 1;
nodes = (
"631 451 LINE",
"638 500 LINE",
"532 500 LINE",
"27 49 LINE",
"20 0 LINE",
"127 0 LINE"
);
}
);
width = 658;
},
{
background = {
paths = (
{
closed = 1;
nodes = (
"22 59 LINE",
"22 0 LINE",
"137 0 LINE",
"552 441 LINE",
"552 500 LINE",
"437 500 LINE"
);
},
{
closed = 1;
nodes = (
"459 -15 OFFCURVE",
"578 104 OFFCURVE",
"578 250 CURVE SMOOTH",
"578 396 OFFCURVE",
"459 515 OFFCURVE",
"313 515 CURVE SMOOTH",
"167 515 OFFCURVE",
"48 396 OFFCURVE",
"48 250 CURVE SMOOTH",
"48 104 OFFCURVE",
"147 -15 OFFCURVE",
"313 -15 CURVE SMOOTH"
);
},
{
closed = 1;
nodes = (
"250 131 OFFCURVE",
"199 185 OFFCURVE",
"199 250 CURVE SMOOTH",
"199 315 OFFCURVE",
"250 369 OFFCURVE",
"313 369 CURVE SMOOTH",
"376 369 OFFCURVE",
"427 315 OFFCURVE",
"427 250 CURVE SMOOTH",
"427 185 OFFCURVE",
"376 131 OFFCURVE",
"313 131 CURVE SMOOTH"
);
}
);
};
guideLines = (
{
angle = 90;
position = "{535, 245}";
}
);
layerId = "3129A168-24FD-451B-9986-F27775A960CA";
paths = (
{
closed = 1;
nodes = (
"409 -15 OFFCURVE",
"555 128 OFFCURVE",
"555 288 CURVE SMOOTH",
"555 411 OFFCURVE",
"464 505 OFFCURVE",
"335 505 CURVE SMOOTH",
"177 505 OFFCURVE",
"28 361 OFFCURVE",
"28 204 CURVE SMOOTH",
"28 80 OFFCURVE",
"120 -15 OFFCURVE",
"249 -15 CURVE SMOOTH"
);
},
{
closed = 1;
nodes = (
"156 40 OFFCURVE",
"88 113 OFFCURVE",
"88 207 CURVE SMOOTH",
"88 330 OFFCURVE",
"209 450 OFFCURVE",
"331 450 CURVE SMOOTH",
"427 450 OFFCURVE",
"495 377 OFFCURVE",
"495 283 CURVE SMOOTH",
"495 160 OFFCURVE",
"374 40 OFFCURVE",
"251 40 CURVE SMOOTH"
);
},
{
closed = 1;
nodes = (
"596 471 LINE",
"599 490 LINE",
"547 490 LINE",
"-9 19 LINE",
"-12 0 LINE",
"40 0 LINE"
);
}
);
width = 624;
}
);
leftMetricsKey = o;
rightMetricsKey = o;
unicode = 00F8;
},
{
glyphname = oe;
lastChange = "2018-12-19 14:48:38 +0000";
layers = (
{
layerId = "631A315E-0C3F-4988-8BF6-333737037850";
paths = (
{
closed = 1;
nodes = (
"441 -15 OFFCURVE",
"560 104 OFFCURVE",
"560 250 CURVE SMOOTH",
"560 396 OFFCURVE",
"441 515 OFFCURVE",
"295 515 CURVE SMOOTH",
"149 515 OFFCURVE",
"30 396 OFFCURVE",
"30 250 CURVE SMOOTH",
"30 104 OFFCURVE",
"149 -15 OFFCURVE",
"295 -15 CURVE SMOOTH"
);
},
{
closed = 1;
nodes = (
"232 131 OFFCURVE",
"181 185 OFFCURVE",
"181 250 CURVE SMOOTH",
"181 315 OFFCURVE",
"232 369 OFFCURVE",
"295 369 CURVE SMOOTH",
"358 369 OFFCURVE",
"409 315 OFFCURVE",
"409 250 CURVE SMOOTH",
"409 185 OFFCURVE",
"358 131 OFFCURVE",
"295 131 CURVE SMOOTH"
);
},
{
closed = 1;
nodes = (
"790 -15 OFFCURVE",
"889 60 OFFCURVE",
"925 164 CURVE",
"753 164 LINE",
"732 144 OFFCURVE",
"704 131 OFFCURVE",
"674 131 CURVE SMOOTH",
"611 131 OFFCURVE",
"560 185 OFFCURVE",
"560 250 CURVE SMOOTH",
"560 320 OFFCURVE",
"611 377 OFFCURVE",
"674 377 CURVE SMOOTH",
"737 377 OFFCURVE",
"788 320 OFFCURVE",
"788 250 CURVE SMOOTH",
"788 238 OFFCURVE",
"786 226 OFFCURVE",
"783 215 CURVE",
"937 215 LINE",
"938 226 OFFCURVE",
"939 238 OFFCURVE",
"939 250 CURVE SMOOTH",
"939 396 OFFCURVE",
"820 515 OFFCURVE",
"674 515 CURVE SMOOTH",
"528 515 OFFCURVE",
"409 396 OFFCURVE",
"409 250 CURVE SMOOTH",
"409 104 OFFCURVE",
"528 -15 OFFCURVE",
"674 -15 CURVE SMOOTH"
);
},
{
closed = 1;
nodes = (
"830 215 LINE",
"830 306 LINE",
"530 306 LINE",
"530 215 LINE"
);
}
);
width = 969;
},
{
layerId = "3129A168-24FD-451B-9986-F27775A960CA";
paths = (
{
closed = 1;
nodes = (
"433 -15 OFFCURVE",
"550 102 OFFCURVE",
"550 245 CURVE SMOOTH",
"550 389 OFFCURVE",
"433 506 OFFCURVE",
"290 505 CURVE SMOOTH",
"147 504 OFFCURVE",
"30 387 OFFCURVE",
"30 245 CURVE SMOOTH",
"30 102 OFFCURVE",
"147 -15 OFFCURVE",
"290 -15 CURVE SMOOTH"
);
},
{
closed = 1;
nodes = (
"178 36 OFFCURVE",
"86 130 OFFCURVE",
"86 245 CURVE SMOOTH",
"86 360 OFFCURVE",
"178 454 OFFCURVE",
"290 454 CURVE SMOOTH",
"402 454 OFFCURVE",
"494 360 OFFCURVE",
"494 245 CURVE SMOOTH",
"494 130 OFFCURVE",
"402 36 OFFCURVE",
"290 36 CURVE SMOOTH"
);
},
{
closed = 1;
nodes = (
"851 -15 OFFCURVE",
"936 39 OFFCURVE",
"981 118 CURVE",
"916 118 LINE",
"879 68 OFFCURVE",
"820 36 OFFCURVE",
"754 36 CURVE SMOOTH",
"642 36 OFFCURVE",
"550 130 OFFCURVE",
"550 245 CURVE SMOOTH",
"550 360 OFFCURVE",
"642 454 OFFCURVE",
"754 454 CURVE SMOOTH",
"866 454 OFFCURVE",
"958 360 OFFCURVE",
"958 245 CURVE SMOOTH",
"958 235 OFFCURVE",
"957 225 OFFCURVE",
"956 215 CURVE",
"1012 215 LINE",
"1013 225 OFFCURVE",
"1014 235 OFFCURVE",
"1014 245 CURVE SMOOTH",
"1014 389 OFFCURVE",
"897 506 OFFCURVE",
"754 505 CURVE SMOOTH",
"611 504 OFFCURVE",
"494 387 OFFCURVE",
"494 245 CURVE SMOOTH",
"494 102 OFFCURVE",
"611 -15 OFFCURVE",
"754 -15 CURVE SMOOTH"
);
},
{
closed = 1;
nodes = (
"996 215 LINE",
"996 266 LINE",
"525 266 LINE",
"525 215 LINE"
);
}
);
width = 1044;
}
);
unicode = 0153;
},
{
glyphname = p;
lastChange = "2019-03-25 12:00:16 +0000";
layers = (
{
anchors = (
{
name = bottom;
position = "{301, 0}";
},
{
name = top;
position = "{389, 500}";
}
);
background = {
guideLines = (
{
position = "{252, 49}";
},
{
position = "{259, 28}";
}
);
paths = (
{
closed = 1;
nodes = (
"164 -230 LINE",
"213 59 LINE",
"200 54 LINE",
"205 33 OFFCURVE",
"259 -8 OFFCURVE",
"336 -8 CURVE SMOOTH",
"483 -8 OFFCURVE",
"617 144 OFFCURVE",
"617 306 CURVE SMOOTH",
"617 421 OFFCURVE",
"550 508 OFFCURVE",
"432 508 CURVE SMOOTH",
"348 508 OFFCURVE",
"270 464 OFFCURVE",
"257 421 CURVE",
"276 422 LINE",
"289 500 LINE",
"136 500 LINE",
"8 -230 LINE"
);
},
{
closed = 1;
nodes = (
"280 131 OFFCURVE",
"248 151 OFFCURVE",
"235 188 CURVE",
"260 302 LINE",
"285 339 OFFCURVE",
"331 369 OFFCURVE",
"378 369 CURVE SMOOTH",
"430 369 OFFCURVE",
"466 332 OFFCURVE",
"466 279 CURVE SMOOTH",
"466 203 OFFCURVE",
"392 131 OFFCURVE",
"318 131 CURVE SMOOTH"
);
}
);
};
guideLines = (
{
position = "{288, 459}";
},
{
position = "{646, 396}";
},
{
angle = 90;
position = "{604, 515}";
},
{
position = "{599, 261}";
},
{
position = "{540, 96}";
},
{
position = "{146, 49}";
},
{
position = "{145, 28}";
},
{
angle = 80.0547;
position = "{164, -230}";
}
);
layerId = "631A315E-0C3F-4988-8BF6-333737037850";
paths = (
{
closed = 1;
nodes = (
"134 -230 LINE",
"183 59 LINE",
"170 54 LINE SMOOTH",
"175 33 OFFCURVE",
"229 -8 OFFCURVE",
"306 -8 CURVE",
"453 -8 OFFCURVE",
"587 144 OFFCURVE",
"587 306 CURVE",
"587 421 OFFCURVE",
"520 508 OFFCURVE",
"402 508 CURVE",
"318 508 OFFCURVE",
"240 464 OFFCURVE",
"227 421 CURVE SMOOTH",
"248 422 LINE",
"262 500 LINE",
"106 500 LINE",
"-22 -230 LINE"
);
},
{
closed = 1;
nodes = (
"250 131 OFFCURVE",
"218 152 OFFCURVE",
"207 187 CURVE SMOOTH",
"227 302 LINE SMOOTH",
"255 339 OFFCURVE",
"301 369 OFFCURVE",
"348 369 CURVE",
"400 369 OFFCURVE",
"436 332 OFFCURVE",
"436 279 CURVE",
"436 203 OFFCURVE",
"362 131 OFFCURVE",
"288 131 CURVE"
);
}
);
width = 607;
},
{
anchors = (
{
name = bottom;
position = "{259, 0}";
},
{
name = top;
position = "{346, 490}";
}
);
guideLines = (
{
angle = 79.9731;
position = "{38, -200}";
}
);
layerId = "3129A168-24FD-451B-9986-F27775A960CA";
paths = (
{
closed = 1;
nodes = (
"38 -200 LINE",
"90 101 LINE",
"68 79 LINE",
"106 23 OFFCURVE",
"168 -15 OFFCURVE",
"250 -15 CURVE SMOOTH",
"410 -15 OFFCURVE",
"559 128 OFFCURVE",
"559 286 CURVE SMOOTH",
"559 410 OFFCURVE",
"467 505 OFFCURVE",
"337 505 CURVE SMOOTH",
"259 505 OFFCURVE",
"183 470 OFFCURVE",
"125 413 CURVE",
"142 388 LINE",
"160 490 LINE",
"104 490 LINE",
"-18 -200 LINE"
);
},
{
closed = 1;
nodes = (
"186 40 OFFCURVE",
"122 74 OFFCURVE",
"96 132 CURVE",
"136 351 LINE",
"181 407 OFFCURVE",
"258 450 OFFCURVE",
"334 450 CURVE SMOOTH",
"433 450 OFFCURVE",
"501 377 OFFCURVE",
"501 283 CURVE SMOOTH",
"501 158 OFFCURVE",
"380 40 OFFCURVE",
"254 40 CURVE SMOOTH"
);
}
);
width = 624;
}
);
rightKerningGroup = o;
rightMetricsKey = o;
unicode = 0070;
},
{
glyphname = thorn;
lastChange = "2018-12-19 14:48:38 +0000";
layers = (
{
layerId = "631A315E-0C3F-4988-8BF6-333737037850";
paths = (
{
closed = 1;
nodes = (
"253 439 OFFCURVE",
"208 426 OFFCURVE",
"186 410 CURVE",
"186 500 LINE",
"40 500 LINE",
"40 -200 LINE",
"186 -200 LINE",
"186 -62 LINE",
"208 -78 OFFCURVE",
"253 -91 OFFCURVE",
"285 -91 CURVE SMOOTH",
"431 -91 OFFCURVE",
"550 28 OFFCURVE",
"550 174 CURVE SMOOTH",
"550 320 OFFCURVE",
"431 439 OFFCURVE",
"285 439 CURVE SMOOTH"
);
},
{
closed = 1;
nodes = (
"250 50 OFFCURVE",
"205 75 OFFCURVE",
"186 106 CURVE",
"186 242 LINE",
"205 273 OFFCURVE",
"250 298 OFFCURVE",
"285 298 CURVE SMOOTH",
"350 298 OFFCURVE",
"404 242 OFFCURVE",
"404 174 CURVE SMOOTH",
"404 106 OFFCURVE",
"350 50 OFFCURVE",
"285 50 CURVE SMOOTH"
);
}
);
width = 580;
},
{
layerId = "3129A168-24FD-451B-9986-F27775A960CA";
paths = (
{
closed = 1;
nodes = (
"206 425 OFFCURVE",
"143 398 OFFCURVE",
"96 353 CURVE",
"96 490 LINE",
"40 490 LINE",
"40 -200 LINE",
"96 -200 LINE",
"96 -24 LINE",
"143 -68 OFFCURVE",
"206 -96 OFFCURVE",
"275 -95 CURVE SMOOTH",
"418 -93 OFFCURVE",
"535 23 OFFCURVE",
"535 165 CURVE SMOOTH",
"535 308 OFFCURVE",
"418 425 OFFCURVE",
"275 425 CURVE SMOOTH"
);
},
{
closed = 1;
nodes = (
"198 -44 OFFCURVE",
"131 0 OFFCURVE",
"96 65 CURVE",
"96 265 LINE",
"131 330 OFFCURVE",
"198 374 OFFCURVE",
"275 374 CURVE SMOOTH",
"387 374 OFFCURVE",
"479 280 OFFCURVE",
"479 165 CURVE SMOOTH",
"479 50 OFFCURVE",
"387 -44 OFFCURVE",
"275 -44 CURVE SMOOTH"
);
}
);
width = 565;
}
);
unicode = 00FE;
},
{
glyphname = q;
lastChange = "2018-12-19 14:48:38 +0000";
layers = (
{
anchors = (
{
name = bottom;
position = "{248, 0}";
},
{
name = top;
position = "{336, 500}";
}
);
background = {
paths = (
{
closed = 1;
nodes = (
"368 -15 OFFCURVE",
"412 38 OFFCURVE",
"427 83 CURVE",
"407 79 LINE",
"407 0 LINE",
"563 0 LINE",
"563 500 LINE",
"410 500 LINE",
"410 421 LINE",
"428 418 LINE",
"426 450 OFFCURVE",
"384 515 OFFCURVE",
"286 515 CURVE SMOOTH",
"176 515 OFFCURVE",
"38 410 OFFCURVE",
"38 244 CURVE SMOOTH",
"38 110 OFFCURVE",
"118 -15 OFFCURVE",
"270 -15 CURVE SMOOTH"
);
},
{
closed = 1;
nodes = (
"249 131 OFFCURVE",
"198 183 OFFCURVE",
"198 254 CURVE SMOOTH",
"198 320 OFFCURVE",
"241 373 OFFCURVE",
"306 373 CURVE SMOOTH",
"357 373 OFFCURVE",
"395 341 OFFCURVE",
"412 307 CURVE",
"412 193 LINE",
"393 156 OFFCURVE",
"355 131 OFFCURVE",
"312 131 CURVE SMOOTH"
);
}
);
};
guideLines = (
{
position = "{387, 500}";
},
{
angle = 80.0547;
position = "{461, -230}";
},
{
angle = 80.0547;
position = "{305, -230}";
}
);
layerId = "631A315E-0C3F-4988-8BF6-333737037850";
paths = (
{
closed = 1;
nodes = (
"461 -230 LINE",
"589 500 LINE",
"433 500 LINE",
"419 421 LINE",
"438 402 LINE",
"442 430 OFFCURVE",
"413 508 OFFCURVE",
"303 508 CURVE SMOOTH",
"147 508 OFFCURVE",
"20 353 OFFCURVE",
"20 191 CURVE SMOOTH",
"20 74 OFFCURVE",
"86 -8 OFFCURVE",
"211 -8 CURVE SMOOTH",
"283 -8 OFFCURVE",
"349 19 OFFCURVE",
"374 58 CURVE",
"356 59 LINE",
"305 -230 LINE"
);
},
{
closed = 1;
nodes = (
"208 131 OFFCURVE",
"172 165 OFFCURVE",
"172 222 CURVE SMOOTH",
"172 297 OFFCURVE",
"234 373 OFFCURVE",
"316 373 CURVE SMOOTH",
"365 373 OFFCURVE",
"391 346 OFFCURVE",
"400 312 CURVE",
"380 198 LINE",
"352 161 OFFCURVE",
"307 131 OFFCURVE",
"259 131 CURVE SMOOTH"
);
}
);
width = 597;
},
{
anchors = (
{
name = bottom;
position = "{241, 0}";
},
{
name = top;
position = "{328, 490}";
}
);
layerId = "3129A168-24FD-451B-9986-F27775A960CA";
paths = (
{
closed = 1;
nodes = (
"449 -200 LINE",
"571 490 LINE",
"515 490 LINE",
"497 387 LINE",
"520 410 LINE",
"484 464 OFFCURVE",
"419 505 OFFCURVE",
"334 505 CURVE SMOOTH",
"176 505 OFFCURVE",
"28 362 OFFCURVE",
"28 206 CURVE SMOOTH",
"28 80 OFFCURVE",
"124 -15 OFFCURVE",
"252 -15 CURVE SMOOTH",
"329 -15 OFFCURVE",
"406 20 OFFCURVE",
"463 77 CURVE",
"446 102 LINE",
"393 -200 LINE"
);
},
{
closed = 1;
nodes = (
"156 40 OFFCURVE",
"88 113 OFFCURVE",
"88 206 CURVE SMOOTH",
"88 331 OFFCURVE",
"208 450 OFFCURVE",
"334 450 CURVE SMOOTH",
"405 450 OFFCURVE",
"467 412 OFFCURVE",
"492 355 CURVE",
"452 139 LINE",
"408 83 OFFCURVE",
"328 40 OFFCURVE",
"253 40 CURVE SMOOTH"
);
}
);
width = 588;
}
);
leftKerningGroup = o;
leftMetricsKey = o;
rightMetricsKey = "=|n";
unicode = 0071;
},
{
glyphname = r;
lastChange = "2019-03-25 11:56:23 +0000";
layers = (
{
anchors = (
{
name = bottom;
position = "{176, 0}";
},
{
name = top;
position = "{264, 500}";
}
);
background = {
paths = (
{
closed = 1;
nodes = (
"226 220 LINE",
"226 299 OFFCURVE",
"302 364 OFFCURVE",
"395 364 CURVE",
"395 515 LINE",
"216 515 OFFCURVE",
"70 382 OFFCURVE",
"70 220 CURVE"
);
},
{
closed = 1;
nodes = (
"226 0 LINE",
"226 500 LINE",
"70 500 LINE",
"70 0 LINE"
);
}
);
};
guideLines = (
{
angle = 90;
position = "{469, 559}";
},
{
angle = 80.0182;
position = "{419, 515}";
},
{
angle = 80.1342;
position = "{164, 0}";
}
);
layerId = "631A315E-0C3F-4988-8BF6-333737037850";
paths = (
{
closed = 1;
nodes = (
"252 500 LINE",
"96 500 LINE",
"8 0 LINE",
"164 0 LINE",
"200 207 LINE SMOOTH",
"211 273 OFFCURVE",
"287 358 OFFCURVE",
"391 358 CURVE",
"419 515 LINE",
"336 515 OFFCURVE",
"221 410 OFFCURVE",
"202 367 CURVE",
"231 384 LINE"
);
}
);
width = 425;
},
{
anchors = (
{
name = bottom;
position = "{127, 0}";
},
{
name = top;
position = "{214, 490}";
}
);
background = {
paths = (
{
closed = 1;
nodes = (
"135 490 LINE",
"79 490 LINE",
"79 0 LINE",
"135 0 LINE",
"135 292 LINE SMOOTH",
"135 364 OFFCURVE",
"213 450 OFFCURVE",
"309 450 CURVE",
"309 505 LINE",
"228 504 OFFCURVE",
"150 445 OFFCURVE",
"117 371 CURVE",
"135 378 LINE"
);
}
);
};
layerId = "3129A168-24FD-451B-9986-F27775A960CA";
paths = (
{
closed = 1;
nodes = (
"160 490 LINE",
"104 490 LINE",
"17 0 LINE",
"73 0 LINE",
"124 290 LINE SMOOTH",
"137 362 OFFCURVE",
"233 450 OFFCURVE",
"329 450 CURVE",
"334 505 LINE",
"253 504 OFFCURVE",
"166 447 OFFCURVE",
"118 358 CURVE",
"137 363 LINE"
);
}
);
width = 339;
}
);
leftMetricsKey = n;
unicode = 0072;
},
{
glyphname = s;
lastChange = "2018-12-19 14:48:38 +0000";
layers = (
{
anchors = (
{
name = bottom;
position = "{211, 0}";
},
{
name = top;
position = "{299, 500}";
}
);
background = {
paths = (
{
closed = 1;
nodes = (
"397 -15 OFFCURVE",
"500 62 OFFCURVE",
"499 158 CURVE",
"500 353 OFFCURVE",
"227 292 OFFCURVE",
"227 352 CURVE SMOOTH",
"227 370 OFFCURVE",
"250 388 OFFCURVE",
"279 388 CURVE SMOOTH",
"307 388 OFFCURVE",
"331 371 OFFCURVE",
"331 351 CURVE",
"486 351 LINE",
"486 441 OFFCURVE",
"392 515 OFFCURVE",
"278 515 CURVE SMOOTH",
"170 515 OFFCURVE",
"72 449 OFFCURVE",
"72 342 CURVE SMOOTH",
"72 165 OFFCURVE",
"344 214 OFFCURVE",
"344 155 CURVE SMOOTH",
"344 135 OFFCURVE",
"313 112 OFFCURVE",
"275 112 CURVE SMOOTH",
"236 112 OFFCURVE",
"206 136 OFFCURVE",
"207 165 CURVE",
"52 165 LINE",
"51 67 OFFCURVE",
"149 -15 OFFCURVE",
"275 -15 CURVE SMOOTH"
);
}
);
};
guideLines = (
{
position = "{138, 158}";
}
);
layerId = "631A315E-0C3F-4988-8BF6-333737037850";
paths = (
{
closed = 1;
nodes = (
"338 -15 OFFCURVE",
"466 60 OFFCURVE",
"466 180 CURVE SMOOTH",
"466 344 OFFCURVE",
"226 292 OFFCURVE",
"226 349 CURVE SMOOTH",
"226 370 OFFCURVE",
"260 393 OFFCURVE",
"294 393 CURVE SMOOTH",
"323 393 OFFCURVE",
"339 376 OFFCURVE",
"332 356 CURVE",
"485 346 LINE",
"500 448 OFFCURVE",
"404 515 OFFCURVE",
"297 515 CURVE SMOOTH",
"185 515 OFFCURVE",
"70 440 OFFCURVE",
"70 330 CURVE SMOOTH",
"70 170 OFFCURVE",
"311 225 OFFCURVE",
"311 161 CURVE SMOOTH",
"311 136 OFFCURVE",
"274 107 OFFCURVE",
"226 107 CURVE SMOOTH",
"187 107 OFFCURVE",
"166 127 OFFCURVE",
"174 160 CURVE",
"20 170 LINE",
"-2 69 OFFCURVE",
"98 -15 OFFCURVE",
"221 -15 CURVE SMOOTH"
);
}
);
width = 505;
},
{
anchors = (
{
name = bottom;
position = "{192, 0}";
},
{
name = top;
position = "{260, 490}";
}
);
layerId = "3129A168-24FD-451B-9986-F27775A960CA";
paths = (
{
closed = 1;
nodes = (
"279 -15 OFFCURVE",
"386 59 OFFCURVE",
"386 149 CURVE SMOOTH",
"386 288 OFFCURVE",
"129 235 OFFCURVE",
"129 345 CURVE SMOOTH",
"129 399 OFFCURVE",
"191 450 OFFCURVE",
"258 450 CURVE SMOOTH",
"316 450 OFFCURVE",
"364 411 OFFCURVE",
"352 365 CURVE",
"409 361 LINE",
"421 448 OFFCURVE",
"350 505 OFFCURVE",
"263 505 CURVE SMOOTH",
"165 505 OFFCURVE",
"71 433 OFFCURVE",
"71 339 CURVE SMOOTH",
"71 183 OFFCURVE",
"327 234 OFFCURVE",
"327 143 CURVE SMOOTH",
"327 95 OFFCURVE",
"257 40 OFFCURVE",
"181 40 CURVE SMOOTH",
"112 40 OFFCURVE",
"57 85 OFFCURVE",
"68 142 CURVE",
"11 146 LINE",
"-1 48 OFFCURVE",
"77 -15 OFFCURVE",
"174 -15 CURVE SMOOTH"
);
}
);
width = 471;
}
);
leftKerningGroup = o;
leftMetricsKey = "=o-3";
rightKerningGroup = o;
rightMetricsKey = "=o-2";
unicode = 0073;
},
{
glyphname = germandbls;
lastChange = "2019-03-21 13:37:12 +0000";
layers = (
{
layerId = "631A315E-0C3F-4988-8BF6-333737037850";
paths = (
{
closed = 1;
nodes = (
"598 313 OFFCURVE",
"536 365 OFFCURVE",
"398 379 CURVE",
"397 351 LINE",
"534 370 OFFCURVE",
"564 422 OFFCURVE",
"576 497 CURVE",
"595 617 OFFCURVE",
"498 716 OFFCURVE",
"360 716 CURVE",
"184 716 OFFCURVE",
"86 610 OFFCURVE",
"53 421 CURVE",
"-22 0 LINE",
"134 0 LINE",
"205 403 LINE",
"223 501 OFFCURVE",
"267 565 OFFCURVE",
"354 565 CURVE",
"397 565 OFFCURVE",
"428 540 OFFCURVE",
"422 509 CURVE",
"414 462 OFFCURVE",
"375 424 OFFCURVE",
"293 408 CURVE",
"274 276 LINE",
"347 276 LINE",
"405 276 OFFCURVE",
"434 264 OFFCURVE",
"426 221 CURVE",
"416 165 OFFCURVE",
"369 143 OFFCURVE",
"288 143 CURVE",
"239 143 LINE",
"217 -6 LINE",
"250 -7 OFFCURVE",
"272 -8 OFFCURVE",
"299 -8 CURVE",
"464 -8 OFFCURVE",
"555 67 OFFCURVE",
"577 189 CURVE"
);
}
);
width = 645;
},
{
layerId = "3129A168-24FD-451B-9986-F27775A960CA";
paths = (
{
closed = 1;
nodes = (
"556 270 OFFCURVE",
"489 343 OFFCURVE",
"401 361 CURVE",
"405 349 LINE",
"470 374 OFFCURVE",
"529 422 OFFCURVE",
"541 499 CURVE",
"561 620 OFFCURVE",
"485 716 OFFCURVE",
"361 716 CURVE",
"218 716 OFFCURVE",
"116 581 OFFCURVE",
"86 414 CURVE",
"13 0 LINE",
"69 0 LINE",
"142 410 LINE",
"166 549 OFFCURVE",
"243 665 OFFCURVE",
"360 665 CURVE",
"450 665 OFFCURVE",
"502 592 OFFCURVE",
"487 507 CURVE",
"472 423 OFFCURVE",
"376 367 OFFCURVE",
"273 367 CURVE",
"266 316 LINE",
"323 316 LINE",
"415 316 OFFCURVE",
"501 279 OFFCURVE",
"486 189 CURVE",
"469 93 OFFCURVE",
"364 51 OFFCURVE",
"272 51 CURVE",
"207 51 LINE",
"200 0 LINE",
"208 0 OFFCURVE",
"241 0 OFFCURVE",
"269 0 CURVE",
"390 0 OFFCURVE",
"519 61 OFFCURVE",
"540 181 CURVE"
);
}
);
width = 630;
}
);
unicode = 00DF;
},
{
glyphname = t;
lastChange = "2019-03-26 09:42:26 +0000";
layers = (
{
anchors = (
{
name = bottom;
position = "{224, 9}";
},
{
name = center;
position = "{190, 250}";
},
{
name = top;
position = "{234, 500}";
},
{
name = topright;
position = "{421, 500}";
}
);
background = {
paths = (
{
closed = 1;
nodes = (
"254 158 LINE",
"254 662 LINE",
"108 620 LINE",
"108 158 LINE"
);
},
{
closed = 1;
nodes = (
"317 126 LINE",
"282 126 OFFCURVE",
"254 140 OFFCURVE",
"254 158 CURVE",
"108 158 LINE",
"108 63 OFFCURVE",
"202 -15 OFFCURVE",
"317 -15 CURVE"
);
},
{
closed = 1;
nodes = (
"385 -15 LINE",
"355 126 LINE",
"317 126 LINE",
"317 -15 LINE"
);
},
{
closed = 1;
nodes = (
"254 359 LINE",
"359 379 LINE",
"359 500 LINE",
"30 500 LINE",
"30 379 LINE",
"108 359 LINE"
);
}
);
};
guideLines = (
{
position = "{111, 359}";
},
{
position = "{257, 359}";
}
);
layerId = "631A315E-0C3F-4988-8BF6-333737037850";
paths = (
{
closed = 1;
nodes = (
"320 -10 LINE",
"314 136 LINE",
"273 136 LINE SMOOTH",
"240 136 OFFCURVE",
"220 149 OFFCURVE",
"224 171 CURVE SMOOTH",
"258 359 LINE",
"364 379 LINE",
"385 500 LINE",
"282 500 LINE",
"311 662 LINE",
"152 619 LINE",
"131 500 LINE",
"56 500 LINE",
"35 379 LINE",
"107 359 LINE",
"75 181 LINE SMOOTH",
"57 79 OFFCURVE",
"141 -10 OFFCURVE",
"257 -10 CURVE SMOOTH"
);
}
);
width = 426;
},
{
anchors = (
{
name = bottom;
position = "{197, 0}";
},
{
name = center;
position = "{161, 245}";
},
{
name = top;
position = "{205, 490}";
},
{
name = topright;
position = "{354, 490}";
}
);
layerId = "3129A168-24FD-451B-9986-F27775A960CA";
paths = (
{
closed = 1;
nodes = (
"254 -15 LINE",
"252 36 LINE",
"242 36 LINE SMOOTH",
"183 36 OFFCURVE",
"142 69 OFFCURVE",
"150 111 CURVE SMOOTH",
"208 439 LINE",
"326 452 LINE",
"333 490 LINE",
"217 490 LINE",
"244 644 LINE",
"185 628 LINE",
"161 490 LINE",
"65 490 LINE",
"58 452 LINE",
"152 439 LINE",
"95 115 LINE SMOOTH",
"82 45 OFFCURVE",
"148 -15 OFFCURVE",
"237 -15 CURVE SMOOTH"
);
}
);
width = 376;
}
);
leftMetricsKey = "=f";
unicode = 0074;
},
{
glyphname = tcaron;
lastChange = "2018-12-19 14:48:38 +0000";
layers = (
{
layerId = "631A315E-0C3F-4988-8BF6-333737037850";
paths = (
{
closed = 1;
nodes = (
"317 141 LINE SMOOTH",
"282 141 OFFCURVE",
"254 155 OFFCURVE",
"254 173 CURVE SMOOTH",
"254 359 LINE",
"359 379 LINE",
"359 500 LINE",
"254 500 LINE",
"254 683 LINE",
"108 683 LINE",
"108 500 LINE",
"30 500 LINE",
"30 379 LINE",
"108 359 LINE",
"108 173 LINE SMOOTH",
"108 78 OFFCURVE",
"202 0 OFFCURVE",
"317 0 CURVE SMOOTH",
"385 0 LINE",
"355 141 LINE"
);
},
{
closed = 1;
nodes = (
"283 579 LINE",
"387 579 LINE",
"478 730 LINE",
"338 730 LINE"
);
}
);
width = 480;
},
{
layerId = "3129A168-24FD-451B-9986-F27775A960CA";
paths = (
{
closed = 1;
nodes = (
"289 36 LINE SMOOTH",
"230 36 OFFCURVE",
"182 71 OFFCURVE",
"182 113 CURVE SMOOTH",
"182 439 LINE",
"298 452 LINE",
"298 490 LINE",
"182 490 LINE",
"182 700 LINE",
"126 700 LINE",
"126 490 LINE",
"30 490 LINE",
"30 452 LINE",
"126 439 LINE",
"126 113 LINE SMOOTH",
"126 43 OFFCURVE",
"200 -15 OFFCURVE",
"289 -15 CURVE SMOOTH",
"309 -15 LINE",
"298 36 LINE"
);
},
{
closed = 1;
nodes = (
"220 556 LINE",
"269 556 LINE",
"340 707 LINE",
"275 707 LINE"
);
}
);
width = 370;
}
);
unicode = 0165;
},
{
glyphname = u;
lastChange = "2019-03-25 14:21:09 +0000";
layers = (
{
anchors = (
{
name = bottom;
position = "{249, 0}";
},
{
name = ogonek;
position = "{555, 10}";
},
{
name = top;
position = "{337, 500}";
},
{
name = topright;
position = "{612, 500}";
}
);
background = {
paths = (
{
closed = 1;
nodes = (
"352 -15 OFFCURVE",
"388 -4 OFFCURVE",
"420 17 CURVE",
"420 0 LINE",
"576 0 LINE",
"576 500 LINE",
"420 500 LINE",
"420 187 LINE",
"397 155 OFFCURVE",
"358 136 OFFCURVE",
"316 136 CURVE SMOOTH",
"256 136 OFFCURVE",
"207 187 OFFCURVE",
"207 250 CURVE SMOOTH",
"207 500 LINE",
"51 500 LINE",
"51 250 LINE SMOOTH",
"51 104 OFFCURVE",
"170 -15 OFFCURVE",
"316 -15 CURVE SMOOTH"
);
}
);
};
layerId = "631A315E-0C3F-4988-8BF6-333737037850";
paths = (
{
closed = 1;
nodes = (
"295 -8 OFFCURVE",
"351 43 OFFCURVE",
"406 98 CURVE",
"368 84 LINE",
"353 0 LINE",
"509 0 LINE",
"597 500 LINE",
"441 500 LINE",
"388 205 LINE",
"367 164 OFFCURVE",
"314 115 OFFCURVE",
"246 115 CURVE SMOOTH",
"195 115 OFFCURVE",
"170 142 OFFCURVE",
"188 245 CURVE SMOOTH",
"233 500 LINE",
"77 500 LINE",
"31 235 LINE SMOOTH",
"1 64 OFFCURVE",
"56 -8 OFFCURVE",
"198 -8 CURVE SMOOTH"
);
}
);
width = 605;
},
{
anchors = (
{
name = bottom;
position = "{240, 0}";
},
{
name = ogonek;
position = "{511, 23}";
},
{
name = top;
position = "{327, 490}";
},
{
name = topright;
position = "{572, 490}";
}
);
layerId = "3129A168-24FD-451B-9986-F27775A960CA";
paths = (
{
closed = 1;
nodes = (
"323 -15 OFFCURVE",
"400 38 OFFCURVE",
"440 97 CURVE",
"424 114 LINE",
"404 0 LINE",
"460 0 LINE",
"547 490 LINE",
"491 490 LINE",
"435 173 LINE",
"427 129 OFFCURVE",
"347 40 OFFCURVE",
"227 40 CURVE SMOOTH",
"157 40 OFFCURVE",
"79 71 OFFCURVE",
"103 208 CURVE SMOOTH",
"153 490 LINE",
"97 490 LINE",
"48 212 LINE SMOOTH",
"18 41 OFFCURVE",
"115 -15 OFFCURVE",
"220 -15 CURVE SMOOTH"
);
}
);
width = 569;
}
);
unicode = 0075;
},
{
glyphname = v;
lastChange = "2018-12-19 14:48:38 +0000";
layers = (
{
anchors = (
{
name = bottom;
position = "{233, 0}";
},
{
name = top;
position = "{321, 500}";
}
);
background = {
paths = (
{
closed = 1;
nodes = (
"549 412 LINE",
"549 499 LINE",
"426 499 LINE",
"283 128 LINE",
"306 128 LINE",
"163 499 LINE",
"40 499 LINE",
"40 412 LINE",
"202 -1 LINE",
"387 -1 LINE"
);
}
);
};
layerId = "631A315E-0C3F-4988-8BF6-333737037850";
paths = (
{
closed = 1;
nodes = (
"329 0 LINE",
"576 436 LINE",
"585 500 LINE",
"455 500 LINE",
"240 99 LINE",
"264 99 LINE",
"191 500 LINE",
"53 500 LINE",
"44 436 LINE",
"136 0 LINE"
);
}
);
width = 589;
},
{
anchors = (
{
name = bottom;
position = "{207, 0}";
},
{
name = top;
position = "{294, 490}";
}
);
guideLines = (
{
angle = 68.1569;
position = "{189, 0}";
}
);
layerId = "3129A168-24FD-451B-9986-F27775A960CA";
paths = (
{
closed = 1;
nodes = (
"246 0 LINE",
"519 474 LINE",
"522 490 LINE",
"470 490 LINE",
"192 9 LINE",
"225 9 LINE",
"117 490 LINE",
"65 490 LINE",
"62 474 LINE",
"169 0 LINE"
);
}
);
width = 537;
}
);
leftKerningGroup = v;
rightKerningGroup = v;
unicode = 0076;
},
{
glyphname = w;
lastChange = "2019-03-26 09:42:46 +0000";
layers = (
{
anchors = (
{
name = bottom;
position = "{361, 0}";
},
{
name = top;
position = "{449, 500}";
}
);
background = {
paths = (
{
closed = 1;
nodes = (
"274 129 LINE",
"160 500 LINE",
"29 500 LINE",
"29 436 LINE",
"168 0 LINE",
"350 0 LINE",
"488 436 LINE",
"488 500 LINE",
"357 500 LINE",
"245 129 LINE"
);
},
{
closed = 1;
nodes = (
"602 129 LINE",
"488 500 LINE",
"357 500 LINE",
"357 436 LINE",
"496 0 LINE",
"678 0 LINE",
"816 436 LINE",
"816 500 LINE",
"685 500 LINE",
"573 129 LINE"
);
}
);
};
guideLines = (
{
position = "{176, 134}";
}
);
layerId = "631A315E-0C3F-4988-8BF6-333737037850";
paths = (
{
closed = 1;
nodes = (
"294 0 LINE",
"427 345 LINE",
"402 345 LINE",
"413 0 LINE",
"612 0 LINE",
"816 436 LINE",
"826 500 LINE",
"699 500 LINE",
"527 91 LINE",
"547 91 LINE",
"517 500 LINE",
"378 500 LINE",
"205 91 LINE",
"226 91 LINE",
"196 500 LINE",
"58 500 LINE",
"48 436 LINE",
"101 0 LINE"
);
}
);
width = 834;
},
{
anchors = (
{
name = bottom;
position = "{330, 0}";
},
{
name = top;
position = "{417, 490}";
}
);
guideLines = (
{
position = "{199, 54}";
}
);
layerId = "3129A168-24FD-451B-9986-F27775A960CA";
paths = (
{
closed = 1;
nodes = (
"207 0 LINE",
"426 460 LINE",
"398 460 LINE",
"454 0 LINE",
"530 0 LINE",
"763 474 LINE",
"766 490 LINE",
"714 490 LINE",
"480 9 LINE",
"511 9 LINE",
"446 490 LINE",
"390 490 LINE",
"156 9 LINE",
"186 9 LINE",
"121 490 LINE",
"67 490 LINE",
"64 474 LINE",
"131 0 LINE"
);
}
);
width = 783;
}
);
unicode = 0077;
},
{
glyphname = x;
lastChange = "2018-12-19 14:48:38 +0000";
layers = (
{
anchors = (
{
name = bottom;
position = "{223, 0}";
},
{
name = top;
position = "{311, 500}";
}
);
background = {
paths = (
{
closed = 1;
nodes = (
"399 0 LINE",
"514 0 LINE",
"514 87 LINE",
"371 276 LINE",
"371 224 LINE",
"514 413 LINE",
"514 500 LINE",
"399 500 LINE",
"266 324 LINE",
"304 324 LINE",
"171 500 LINE",
"56 500 LINE",
"56 413 LINE",
"199 224 LINE",
"199 276 LINE",
"56 87 LINE",
"56 0 LINE",
"171 0 LINE",
"304 176 LINE",
"266 176 LINE"
);
}
);
};
guideLines = (
{
angle = -52.9223;
position = "{435, 69}";
}
);
layerId = "631A315E-0C3F-4988-8BF6-333737037850";
paths = (
{
closed = 1;
nodes = (
"111 0 LINE",
"279 196 LINE",
"241 196 LINE",
"339 0 LINE",
"472 0 LINE",
"483 69 LINE",
"345 290 LINE",
"334 210 LINE",
"550 431 LINE",
"560 500 LINE",
"424 500 LINE",
"256 304 LINE",
"294 304 LINE",
"196 500 LINE",
"62 500 LINE",
"52 431 LINE",
"190 210 LINE",
"200 290 LINE",
"-15 69 LINE",
"-26 0 LINE"
);
}
);
width = 570;
},
{
anchors = (
{
name = bottom;
position = "{185, 0}";
},
{
name = top;
position = "{272, 490}";
}
);
guideLines = (
{
angle = -52.878;
position = "{333, 19}";
},
{
position = "{-76, 19}";
},
{
angle = 52.8777;
position = "{-73, 19}";
},
{
angle = -52.878;
position = "{271, 0}";
}
);
layerId = "3129A168-24FD-451B-9986-F27775A960CA";
paths = (
{
closed = 1;
nodes = (
"39 0 LINE",
"255 235 LINE",
"209 235 LINE",
"343 0 LINE",
"397 0 LINE",
"400 19 LINE",
"243 281 LINE",
"232 209 LINE",
"481 471 LINE",
"484 490 LINE",
"428 490 LINE",
"212 255 LINE",
"258 255 LINE",
"124 490 LINE",
"70 490 LINE",
"67 471 LINE",
"224 209 LINE",
"235 281 LINE",
"-14 19 LINE",
"-17 0 LINE"
);
}
);
width = 504;
}
);
unicode = 0078;
},
{
glyphname = y;
lastChange = "2019-03-25 14:58:29 +0000";
layers = (
{
anchors = (
{
name = bottom;
position = "{259, 0}";
},
{
name = top;
position = "{347, 500}";
}
);
background = {
paths = (
{
closed = 1;
nodes = (
"595 412 LINE",
"595 499 LINE",
"474 499 LINE",
"288 118 LINE",
"341 88 LINE",
"167 499 LINE",
"43 499 LINE",
"43 412 LINE",
"227 0 LINE",
"393 -1 LINE"
);
},
{
closed = 1;
nodes = (
"101 -248 LINE",
"272 -248 LINE",
"393 -1 LINE",
"227 0 LINE"
);
}
);
};
guideLines = (
{
angle = -65.9035;
position = "{210, 500}";
},
{
angle = 245.5758;
position = "{512, 500}";
},
{
angle = 244.3889;
position = "{630, 436}";
}
);
layerId = "631A315E-0C3F-4988-8BF6-333737037850";
paths = (
{
closed = 1;
nodes = (
"184 -231 LINE",
"621 436 LINE",
"630 500 LINE",
"499 500 LINE",
"254 99 LINE",
"286 99 LINE",
"187 500 LINE",
"47 500 LINE",
"38 436 LINE",
"177 -41 LINE",
"194 41 LINE",
"14 -230 LINE"
);
}
);
width = 619;
},
{
anchors = (
{
name = bottom;
position = "{212, 0}";
},
{
name = top;
position = "{299, 490}";
}
);
guideLines = (
{
angle = 246.1048;
position = "{518, 490}";
},
{
angle = -66.1048;
position = "{127, 490}";
},
{
angle = -66.1048;
position = "{69, 474}";
}
);
layerId = "3129A168-24FD-451B-9986-F27775A960CA";
paths = (
{
closed = 1;
nodes = (
"114 -222 LINE",
"544 474 LINE",
"547 490 LINE",
"495 490 LINE",
"201 7 LINE",
"229 7 LINE",
"102 490 LINE",
"50 490 LINE",
"48 474 LINE",
"190 -60 LINE",
"208 22 LINE",
"52 -222 LINE"
);
}
);
width = 552;
}
);
unicode = 0079;
},
{
glyphname = z;
lastChange = "2019-03-26 07:52:11 +0000";
layers = (
{
anchors = (
{
name = bottom;
position = "{200, 0}";
},
{
name = top;
position = "{288, 500}";
}
);
layerId = "631A315E-0C3F-4988-8BF6-333737037850";
paths = (
{
closed = 1;
nodes = (
"400 0 LINE",
"423 130 LINE",
"221 151 LINE",
"476 349 LINE",
"501 500 LINE",
"99 500 LINE",
"77 370 LINE",
"277 349 LINE",
"23 151 LINE",
"-2 0 LINE"
);
}
);
width = 523;
},
{
anchors = (
{
name = bottom;
position = "{195, 0}";
},
{
name = top;
position = "{282, 490}";
}
);
background = {
paths = (
{
closed = 1;
nodes = (
"45 141 LINE",
"229 141 LINE",
"460 359 LINE",
"276 359 LINE"
);
},
{
closed = 1;
nodes = (
"58 380 LINE",
"276 359 LINE",
"460 359 LINE",
"460 500 LINE",
"58 500 LINE"
);
},
{
closed = 1;
nodes = (
"447 120 LINE",
"229 141 LINE",
"45 141 LINE",
"45 0 LINE",
"447 0 LINE"
);
}
);
};
guideLines = (
{
angle = 49.8944;
position = "{476, 428}";
}
);
layerId = "3129A168-24FD-451B-9986-F27775A960CA";
paths = (
{
closed = 1;
nodes = (
"374 0 LINE",
"382 45 LINE",
"78 51 LINE",
"463 432 LINE",
"473 490 LINE",
"102 490 LINE",
"94 445 LINE",
"398 439 LINE",
"13 58 LINE",
"3 0 LINE"
);
}
);
width = 513;
}
);
unicode = 007A;
},
{
glyphname = a.sc;
lastChange = "2019-03-21 12:39:06 +0000";
layers = (
{
anchors = (
{
name = bottom;
position = "{294, 0}";
},
{
name = ogonek;
position = "{649, 9}";
},
{
name = top;
position = "{399, 595}";
}
);
background = {
paths = (
{
closed = 1;
nodes = (
"81 122 LINE",
"81 0 LINE",
"208 0 LINE",
"478 700 LINE",
"307 700 LINE"
);
},
{
closed = 1;
nodes = (
"632 144 LINE",
"632 283 LINE",
"172 283 LINE",
"172 144 LINE"
);
},
{
closed = 1;
nodes = (
"302 122 LINE",
"488 122 LINE",
"538 144 LINE",
"252 144 LINE"
);
},
{
closed = 1;
nodes = (
"307 700 LINE",
"577 0 LINE",
"704 0 LINE",
"704 122 LINE",
"478 700 LINE"
);
},
{
closed = 1;
nodes = (
"307 700 LINE",
"81 122 LINE",
"81 0 LINE",
"208 0 LINE",
"262 139 LINE",
"300 122 LINE",
"486 122 LINE",
"524 139 LINE",
"577 0 LINE",
"704 0 LINE",
"704 122 LINE",
"478 700 LINE"
);
},
{
closed = 1;
nodes = (
"318 283 LINE",
"393 478 LINE",
"468 283 LINE"
);
}
);
};
layerId = "631A315E-0C3F-4988-8BF6-333737037850";
paths = (
{
closed = 1;
nodes = (
"127 0 LINE",
"195 113 LINE",
"231 97 LINE",
"393 97 LINE",
"437 113 LINE",
"465 0 LINE",
"597 0 LINE",
"611 86 LINE",
"491 595 LINE",
"305 595 LINE",
"5 86 LINE",
"-9 0 LINE"
);
},
{
closed = 1;
nodes = (
"368 402 LINE",
"409 251 LINE",
"271 251 LINE"
);
}
);
userData = {
RMXScaler = {
adjustSpace = 5;
height = 85;
weight = -8;
width = 90;
};
};
width = 712;
},
{
anchors = (
{
name = bottom;
position = "{254, 0}";
},
{
name = ogonek;
position = "{484, 8}";
},
{
name = top;
position = "{353, 560}";
}
);
layerId = "3129A168-24FD-451B-9986-F27775A960CA";
paths = (
{
closed = 1;
nodes = (
"49 0 LINE",
"139 150 LINE",
"171 128 LINE",
"384 128 LINE",
"426 150 LINE",
"462 0 LINE",
"509 0 LINE",
"513 24 LINE",
"387 560 LINE",
"318 560 LINE",
"4 24 LINE",
"0 0 LINE"
);
},
{
closed = 1;
nodes = (
"344 502 LINE",
"421 176 LINE",
"152 176 LINE"
);
}
);
userData = {
RMXScaler = {
height = 80;
weight = -5;
width = 84;
};
};
width = 633;
}
);
leftKerningGroup = a.sc;
rightKerningGroup = a.sc;
userData = {
RMXScaler = {
source = A;
};
};
},
{
glyphname = aring.sc;
lastChange = "2019-03-21 12:39:40 +0000";
layers = (
{
layerId = "631A315E-0C3F-4988-8BF6-333737037850";
paths = (
{
closed = 1;
nodes = (
"137 0 LINE",
"203 109 LINE",
"231 97 LINE",
"393 97 LINE",
"429 109 LINE",
"455 0 LINE",
"597 0 LINE",
"606 58 LINE",
"481 595 LINE",
"315 595 LINE",
"0 58 LINE",
"-9 0 LINE"
);
},
{
closed = 1;
nodes = (
"382 409 LINE",
"354 409 LINE",
"399 251 LINE",
"281 251 LINE"
);
},
{
closed = 1;
nodes = (
"473 632 OFFCURVE",
"524 676 OFFCURVE",
"534 730 CURVE SMOOTH",
"545 795 OFFCURVE",
"501 848 OFFCURVE",
"435 848 CURVE SMOOTH",
"378 848 OFFCURVE",
"325 805 OFFCURVE",
"316 752 CURVE SMOOTH",
"304 686 OFFCURVE",
"350 632 OFFCURVE",
"416 632 CURVE SMOOTH"
);
},
{
closed = 1;
nodes = (
"399 712 OFFCURVE",
"391 720 OFFCURVE",
"393 730 CURVE SMOOTH",
"396 750 OFFCURVE",
"419 769 OFFCURVE",
"441 769 CURVE SMOOTH",
"452 769 OFFCURVE",
"459 760 OFFCURVE",
"458 752 CURVE SMOOTH",
"454 730 OFFCURVE",
"432 712 OFFCURVE",
"411 712 CURVE SMOOTH"
);
}
);
userData = {
RMXScaler = {
adjustSpace = 5;
height = 85;
weight = -8;
width = 90;
};
};
width = 707;
},
{
layerId = "3129A168-24FD-451B-9986-F27775A960CA";
paths = (
{
closed = 1;
nodes = (
"49 0 LINE",
"140 150 LINE",
"171 128 LINE",
"384 128 LINE",
"426 150 LINE",
"462 0 LINE",
"509 0 LINE",
"513 23 LINE",
"386 560 LINE",
"318 560 LINE",
"4 23 LINE",
"0 0 LINE"
);
},
{
closed = 1;
nodes = (
"370 544 LINE",
"333 544 LINE",
"420 176 LINE",
"153 176 LINE"
);
},
{
closed = 1;
nodes = (
"402 595 OFFCURVE",
"438 625 OFFCURVE",
"445 662 CURVE SMOOTH",
"452 703 OFFCURVE",
"423 737 OFFCURVE",
"381 737 CURVE SMOOTH",
"343 737 OFFCURVE",
"306 707 OFFCURVE",
"299 670 CURVE SMOOTH",
"292 629 OFFCURVE",
"322 595 OFFCURVE",
"364 595 CURVE SMOOTH"
);
},
{
closed = 1;
nodes = (
"346 634 OFFCURVE",
"335 646 OFFCURVE",
"338 662 CURVE SMOOTH",
"342 682 OFFCURVE",
"361 698 OFFCURVE",
"382 698 CURVE SMOOTH",
"398 698 OFFCURVE",
"409 686 OFFCURVE",
"406 670 CURVE SMOOTH",
"403 650 OFFCURVE",
"383 634 OFFCURVE",
"363 634 CURVE SMOOTH"
);
}
);
userData = {
RMXScaler = {
height = 80;
weight = -5;
width = 84;
};
};
width = 633;
}
);
leftKerningGroup = a.sc;
leftMetricsKey = a.sc;
rightKerningGroup = a.sc;
rightMetricsKey = a.sc;
userData = {
RMXScaler = {
source = Aring;
};
};
},
{
glyphname = ae.sc;
lastChange = "2019-03-21 12:39:06 +0000";
layers = (
{
guideLines = (
{
position = "{503, 478}";
},
{
angle = 61.4104;
position = "{8, 122}";
},
{
position = "{-13, 61}";
},
{
angle = 62.2684;
position = "{-47, 61}";
}
);
layerId = "631A315E-0C3F-4988-8BF6-333737037850";
paths = (
{
closed = 1;
nodes = (
"136 0 LINE",
"224 115 LINE",
"264 97 LINE",
"328 97 LINE",
"377 115 LINE",
"356 0 LINE",
"780 0 LINE",
"807 153 LINE",
"540 153 LINE",
"552 221 LINE",
"702 240 LINE",
"722 356 LINE",
"579 375 LINE",
"591 442 LINE",
"858 442 LINE",
"885 595 LINE",
"395 595 LINE",
"0 57 LINE",
"-9 0 LINE"
);
},
{
closed = 1;
nodes = (
"426 387 LINE",
"400 251 LINE",
"317 251 LINE"
);
}
);
userData = {
RMXScaler = {
adjustSpace = 5;
height = 85;
weight = -8;
width = 90;
};
};
width = 912;
},
{
guideLines = (
{
angle = 61.9723;
position = "{-58, 0}";
},
{
angle = 90;
position = "{637, 700}";
},
{
angle = 61.9723;
position = "{-97, 25}";
},
{
position = "{145, 192}";
}
);
layerId = "3129A168-24FD-451B-9986-F27775A960CA";
paths = (
{
closed = 1;
nodes = (
"49 0 LINE",
"161 150 LINE",
"193 128 LINE",
"304 128 LINE",
"345 150 LINE",
"318 0 LINE",
"713 0 LINE",
"722 51 LINE",
"381 51 LINE",
"417 255 LINE",
"616 262 LINE",
"623 300 LINE",
"426 306 LINE",
"462 509 LINE",
"803 509 LINE",
"812 560 LINE",
"399 560 LINE",
"4 22 LINE",
"0 0 LINE"
);
},
{
closed = 1;
nodes = (
"403 479 LINE",
"349 176 LINE",
"177 176 LINE"
);
}
);
userData = {
RMXScaler = {
height = 80;
weight = -5;
width = 84;
};
};
width = 862;
}
);
leftMetricsKey = a.sc;
rightKerningGroup = e.sc;
rightMetricsKey = e.sc;
userData = {
RMXScaler = {
source = AE;
};
};
},
{
glyphname = b.sc;
lastChange = "2019-03-21 12:40:08 +0000";
layers = (
{
anchors = (
{
name = bottom;
position = "{257, 0}";
},
{
name = top;
position = "{362, 595}";
}
);
background = {
paths = (
{
closed = 1;
nodes = (
"-497 0 LINE",
"-497 700 LINE",
"-663 700 LINE",
"-663 0 LINE"
);
},
{
closed = 1;
nodes = (
"-337 544 OFFCURVE",
"-315 520 OFFCURVE",
"-314 490 CURVE SMOOTH",
"-313 463 OFFCURVE",
"-337 441 OFFCURVE",
"-367 441 CURVE",
"-378 312 LINE",
"-257 312 OFFCURVE",
"-158 392 OFFCURVE",
"-158 490 CURVE SMOOTH",
"-158 606 OFFCURVE",
"-252 700 OFFCURVE",
"-368 700 CURVE",
"-506 700 LINE",
"-506 544 LINE",
"-363 544 LINE"
);
},
{
closed = 1;
nodes = (
"-294 283 OFFCURVE",
"-269 255 OFFCURVE",
"-269 220 CURVE SMOOTH",
"-269 186 OFFCURVE",
"-294 158 OFFCURVE",
"-325 158 CURVE",
"-506 158 LINE",
"-506 0 LINE",
"-328 0 LINE",
"-207 0 OFFCURVE",
"-108 99 OFFCURVE",
"-108 221 CURVE SMOOTH",
"-108 342 OFFCURVE",
"-225 441 OFFCURVE",
"-368 441 CURVE",
"-504 441 LINE",
"-504 283 LINE",
"-325 283 LINE"
);
},
{
closed = 1;
nodes = (
"261 0 LINE",
"261 700 LINE",
"95 700 LINE",
"95 0 LINE"
);
},
{
closed = 1;
nodes = (
"440 544 OFFCURVE",
"462 520 OFFCURVE",
"463 490 CURVE SMOOTH",
"464 459 OFFCURVE",
"455 434 OFFCURVE",
"414 434 CURVE",
"379 305 LINE",
"511 305 OFFCURVE",
"619 388 OFFCURVE",
"619 490 CURVE SMOOTH",
"619 606 OFFCURVE",
"525 700 OFFCURVE",
"409 700 CURVE",
"251 700 LINE",
"251 544 LINE",
"414 544 LINE"
);
},
{
closed = 1;
nodes = (
"463 276 OFFCURVE",
"488 248 OFFCURVE",
"488 213 CURVE SMOOTH",
"488 183 OFFCURVE",
"463 158 OFFCURVE",
"432 158 CURVE",
"251 158 LINE",
"251 0 LINE",
"429 0 LINE",
"550 0 OFFCURVE",
"649 96 OFFCURVE",
"649 214 CURVE SMOOTH",
"649 335 OFFCURVE",
"532 434 OFFCURVE",
"389 434 CURVE",
"253 434 LINE",
"253 276 LINE",
"432 276 LINE"
);
}
);
};
guideLines = (
{
angle = 90;
position = "{482, 544}";
},
{
angle = 90;
position = "{605, 221}";
},
{
angle = 270;
position = "{54, 234}";
},
{
position = "{323, 362}";
}
);
layerId = "631A315E-0C3F-4988-8BF6-333737037850";
paths = (
{
closed = 1;
nodes = (
"337 0 LINE SMOOTH",
"445 0 OFFCURVE",
"543 77 OFFCURVE",
"560 172 CURVE SMOOTH",
"571 239 OFFCURVE",
"547 280 OFFCURVE",
"512 310 CURVE",
"550 340 OFFCURVE",
"569 372 OFFCURVE",
"574 400 CURVE SMOOTH",
"593 508 OFFCURVE",
"517 595 OFFCURVE",
"413 595 CURVE SMOOTH",
"113 595 LINE",
"8 0 LINE"
);
},
{
closed = 1;
nodes = (
"206 233 LINE",
"381 233 LINE SMOOTH",
"404 233 OFFCURVE",
"415 220 OFFCURVE",
"412 203 CURVE SMOOTH",
"408 180 OFFCURVE",
"380 150 OFFCURVE",
"357 150 CURVE SMOOTH",
"192 150 LINE"
);
},
{
closed = 1;
nodes = (
"244 447 LINE",
"401 447 LINE SMOOTH",
"422 447 OFFCURVE",
"432 436 OFFCURVE",
"430 422 CURVE SMOOTH",
"424 390 OFFCURVE",
"397 363 OFFCURVE",
"376 363 CURVE SMOOTH",
"229 363 LINE"
);
}
);
userData = {
RMXScaler = {
adjustSpace = 5;
height = 85;
weight = -8;
width = 90;
};
};
width = 632;
},
{
anchors = (
{
name = bottom;
position = "{238, 0}";
},
{
name = top;
position = "{337, 560}";
}
);
background = {
paths = (
{
closed = 1;
nodes = (
"417 544 OFFCURVE",
"439 520 OFFCURVE",
"439 490 CURVE SMOOTH",
"439 454 OFFCURVE",
"417 424 OFFCURVE",
"390 424 CURVE",
"355 305 LINE",
"487 305 OFFCURVE",
"595 388 OFFCURVE",
"595 490 CURVE SMOOTH",
"595 606 OFFCURVE",
"501 700 OFFCURVE",
"385 700 CURVE",
"207 700 LINE",
"207 544 LINE",
"390 544 LINE"
);
}
);
};
guideLines = (
{
angle = 90;
position = "{150, -136}";
}
);
layerId = "3129A168-24FD-451B-9986-F27775A960CA";
paths = (
{
closed = 1;
nodes = (
"267 0 LINE SMOOTH",
"374 0 OFFCURVE",
"473 72 OFFCURVE",
"490 160 CURVE SMOOTH",
"502 223 OFFCURVE",
"467 277 OFFCURVE",
"413 304 CURVE",
"462 330 OFFCURVE",
"497 371 OFFCURVE",
"506 415 CURVE SMOOTH",
"521 494 OFFCURVE",
"454 560 OFFCURVE",
"360 560 CURVE SMOOTH",
"124 560 LINE",
"25 0 LINE"
);
},
{
closed = 1;
nodes = (
"128 278 LINE",
"315 278 LINE SMOOTH",
"393 278 OFFCURVE",
"448 229 OFFCURVE",
"437 169 CURVE SMOOTH",
"426 104 OFFCURVE",
"350 50 OFFCURVE",
"272 50 CURVE SMOOTH",
"88 50 LINE"
);
},
{
closed = 1;
nodes = (
"169 510 LINE",
"355 510 LINE SMOOTH",
"418 510 OFFCURVE",
"461 471 OFFCURVE",
"453 423 CURVE SMOOTH",
"444 370 OFFCURVE",
"383 327 OFFCURVE",
"320 327 CURVE SMOOTH",
"137 327 LINE"
);
}
);
userData = {
RMXScaler = {
height = 80;
weight = -5;
width = 84;
};
};
width = 589;
}
);
leftMetricsKey = n.sc;
rightKerningGroup = o.sc;
rightMetricsKey = o.sc;
userData = {
RMXScaler = {
source = B;
};
};
},
{
glyphname = c.sc;
lastChange = "2019-03-21 12:40:06 +0000";
layers = (
{
anchors = (
{
name = bottom;
position = "{313, 0}";
},
{
name = top;
position = "{418, 595}";
}
);
background = {
paths = (
{
closed = 1;
nodes = (
"545 517 OFFCURVE",
"485 554 OFFCURVE",
"416 554 CURVE",
"306 554 OFFCURVE",
"216 462 OFFCURVE",
"216 350 CURVE",
"216 238 OFFCURVE",
"306 146 OFFCURVE",
"416 146 CURVE",
"498 146 OFFCURVE",
"568 197 OFFCURVE",
"598 269 CURVE",
"771 269 LINE",
"735 107 OFFCURVE",
"589 -15 OFFCURVE",
"416 -15 CURVE",
"214 -15 OFFCURVE",
"49 149 OFFCURVE",
"50 350 CURVE",
"51 551 OFFCURVE",
"216 715 OFFCURVE",
"416 715 CURVE",
"577 715 OFFCURVE",
"715 608 OFFCURVE",
"762 461 CURVE",
"581 461 LINE"
);
}
);
};
guideLines = (
{
position = "{662, 461}";
},
{
angle = -61.5809;
position = "{648, 269}";
},
{
angle = 90;
position = "{688, 701}";
},
{
angle = 61.4293;
position = "{706, 431}";
}
);
layerId = "631A315E-0C3F-4988-8BF6-333737037850";
paths = (
{
closed = 1;
nodes = (
"440 -13 OFFCURVE",
"555 46 OFFCURVE",
"627 139 CURVE",
"589 240 LINE",
"515 245 LINE",
"479 187 OFFCURVE",
"407 141 OFFCURVE",
"331 141 CURVE",
"240 141 OFFCURVE",
"180 206 OFFCURVE",
"194 287 CURVE",
"210 379 OFFCURVE",
"305 454 OFFCURVE",
"405 454 CURVE",
"472 454 OFFCURVE",
"524 418 OFFCURVE",
"539 360 CURVE",
"613 355 LINE",
"678 446 LINE",
"637 539 OFFCURVE",
"540 608 OFFCURVE",
"413 608 CURVE",
"237 608 OFFCURVE",
"69 474 OFFCURVE",
"41 309 CURVE",
"9 132 OFFCURVE",
"137 -13 OFFCURVE",
"323 -13 CURVE"
);
}
);
userData = {
RMXScaler = {
adjustSpace = 5;
height = 85;
weight = -8;
width = 90;
};
};
width = 733;
},
{
anchors = (
{
name = bottom;
position = "{289, 0}";
},
{
name = top;
position = "{388, 560}";
}
);
background = {
paths = (
{
closed = 1;
nodes = (
"691 42 OFFCURVE",
"763 141 CURVE",
"731 198 LINE",
"709 198 LINE",
"658 113 OFFCURVE",
"566 39 OFFCURVE",
"460 39 CURVE SMOOTH",
"299 39 OFFCURVE",
"150 191 OFFCURVE",
"150 350 CURVE SMOOTH",
"150 509 OFFCURVE",
"299 661 OFFCURVE",
"460 661 CURVE SMOOTH",
"566 661 OFFCURVE",
"658 587 OFFCURVE",
"709 502 CURVE",
"731 502 LINE",
"763 559 LINE",
"693 656 OFFCURVE",
"586 713 OFFCURVE",
"459 715 CURVE SMOOTH",
"262 718 OFFCURVE",
"91 547 OFFCURVE",
"91 350 CURVE SMOOTH",
"91 153 OFFCURVE",
"262 -18 OFFCURVE",
"459 -15 CURVE SMOOTH",
"583 -13 OFFCURVE"
);
}
);
};
guideLines = (
{
position = "{789, 502}";
},
{
position = "{629, 198}";
},
{
angle = -65.254;
position = "{657, 198}";
},
{
angle = 65.254;
position = "{817, 502}";
}
);
layerId = "3129A168-24FD-451B-9986-F27775A960CA";
paths = (
{
closed = 1;
nodes = (
"421 -12 OFFCURVE",
"526 42 OFFCURVE",
"595 125 CURVE",
"582 163 LINE",
"558 165 LINE",
"501 92 OFFCURVE",
"408 39 OFFCURVE",
"314 39 CURVE SMOOTH",
"180 39 OFFCURVE",
"84 148 OFFCURVE",
"107 275 CURVE SMOOTH",
"130 408 OFFCURVE",
"269 521 OFFCURVE",
"407 521 CURVE SMOOTH",
"496 521 OFFCURVE",
"569 472 OFFCURVE",
"601 399 CURVE",
"625 397 LINE",
"647 430 LINE",
"607 514 OFFCURVE",
"520 572 OFFCURVE",
"408 572 CURVE SMOOTH",
"241 572 OFFCURVE",
"82 442 OFFCURVE",
"54 283 CURVE SMOOTH",
"25 120 OFFCURVE",
"142 -12 OFFCURVE",
"313 -12 CURVE SMOOTH"
);
}
);
userData = {
RMXScaler = {
height = 80;
weight = -5;
width = 84;
};
};
width = 700;
}
);
leftKerningGroup = o.sc;
leftMetricsKey = o.sc;
rightKerningGroup = o.sc;
rightMetricsKey = o.sc;
userData = {
RMXScaler = {
source = C;
};
};
},
{
glyphname = d.sc;
lastChange = "2019-03-21 12:39:06 +0000";
layers = (
{
anchors = (
{
name = bottom;
position = "{283, 0}";
},
{
name = center;
position = "{161, 298}";
},
{
name = top;
position = "{349, 595}";
}
);
layerId = "631A315E-0C3F-4988-8BF6-333737037850";
paths = (
{
closed = 1;
nodes = (
"434 0 OFFCURVE",
"599 128 OFFCURVE",
"626 287 CURVE",
"655 457 OFFCURVE",
"527 595 OFFCURVE",
"348 595 CURVE",
"331 442 LINE",
"424 442 OFFCURVE",
"485 382 OFFCURVE",
"473 309 CURVE",
"459 223 OFFCURVE",
"364 153 OFFCURVE",
"270 153 CURVE",
"253 0 LINE"
);
},
{
closed = 1;
nodes = (
"248 0 LINE",
"275 153 LINE",
"94 153 LINE",
"67 0 LINE"
);
},
{
closed = 1;
nodes = (
"165 0 LINE",
"270 595 LINE",
"113 595 LINE",
"8 0 LINE"
);
},
{
closed = 1;
nodes = (
"326 442 LINE",
"353 595 LINE",
"172 595 LINE",
"145 442 LINE"
);
}
);
userData = {
RMXScaler = {
adjustSpace = 5;
height = 85;
weight = -8;
width = 90;
};
};
width = 685;
},
{
anchors = (
{
name = bottom;
position = "{275, 0}";
},
{
name = center;
position = "{317, 280}";
},
{
name = top;
position = "{372, 560}";
}
);
background = {
paths = (
{
closed = 1;
nodes = (
"516 629 OFFCURVE",
"649 503 OFFCURVE",
"649 348 CURVE SMOOTH",
"649 196 OFFCURVE",
"516 71 OFFCURVE",
"353 71 CURVE SMOOTH",
"174 71 LINE",
"174 629 LINE",
"353 629 LINE SMOOTH"
);
},
{
closed = 1;
nodes = (
"558 0 OFFCURVE",
"725 157 OFFCURVE",
"725 348 CURVE SMOOTH",
"725 542 OFFCURVE",
"558 700 OFFCURVE",
"353 700 CURVE SMOOTH",
"98 700 LINE",
"98 0 LINE",
"353 0 LINE SMOOTH"
);
}
);
};
layerId = "3129A168-24FD-451B-9986-F27775A960CA";
paths = (
{
closed = 1;
nodes = (
"404 0 OFFCURVE",
"562 124 OFFCURVE",
"589 275 CURVE SMOOTH",
"616 432 OFFCURVE",
"499 560 OFFCURVE",
"331 560 CURVE",
"326 509 LINE",
"465 509 OFFCURVE",
"557 408 OFFCURVE",
"535 283 CURVE SMOOTH",
"513 155 OFFCURVE",
"380 51 OFFCURVE",
"241 51 CURVE",
"236 0 LINE"
);
},
{
closed = 1;
nodes = (
"234 0 LINE",
"243 51 LINE",
"84 51 LINE",
"75 0 LINE"
);
},
{
closed = 1;
nodes = (
"79 0 LINE",
"178 560 LINE",
"124 560 LINE",
"25 0 LINE"
);
},
{
closed = 1;
nodes = (
"324 509 LINE",
"333 560 LINE",
"174 560 LINE",
"165 509 LINE"
);
}
);
userData = {
RMXScaler = {
height = 80;
weight = -5;
width = 84;
};
};
width = 668;
}
);
leftMetricsKey = n.sc;
rightKerningGroup = o.sc;
rightMetricsKey = o.sc;
userData = {
RMXScaler = {
source = D;
};
};
},
{
glyphname = e.sc;
lastChange = "2019-03-21 12:39:06 +0000";
layers = (
{
anchors = (
{
name = bottom;
position = "{231, 0}";
},
{
name = ogonek;
position = "{497, 6}";
},
{
name = top;
position = "{327, 597}";
},
{
name = topleft;
position = "{77, 595}";
}
);
background = {
paths = (
{
closed = 1;
nodes = (
"95 0 LINE",
"261 0 LINE",
"261 700 LINE",
"95 700 LINE"
);
},
{
closed = 1;
nodes = (
"261 539 LINE",
"566 539 LINE",
"566 700 LINE",
"261 700 LINE"
);
},
{
closed = 1;
nodes = (
"261 0 LINE",
"566 0 LINE",
"566 161 LINE",
"261 161 LINE"
);
},
{
closed = 1;
nodes = (
"261 270 LINE",
"429 290 LINE",
"429 411 LINE",
"261 431 LINE"
);
}
);
};
guideLines = (
{
position = "{302, 198}";
}
);
layerId = "631A315E-0C3F-4988-8BF6-333737037850";
paths = (
{
closed = 1;
nodes = (
"451 0 LINE",
"478 153 LINE",
"192 153 LINE",
"204 221 LINE",
"374 240 LINE",
"394 356 LINE",
"231 375 LINE",
"243 442 LINE",
"529 442 LINE",
"556 595 LINE",
"113 595 LINE",
"8 0 LINE"
);
}
);
userData = {
RMXScaler = {
adjustSpace = 5;
height = 85;
weight = -8;
width = 90;
};
};
width = 583;
},
{
anchors = (
{
name = bottom;
position = "{215, 0}";
},
{
name = ogonek;
position = "{459, 18}";
},
{
name = top;
position = "{313, 560}";
},
{
name = topleft;
position = "{90, 560}";
}
);
background = {
paths = (
{
closed = 1;
nodes = (
"575 0 LINE",
"575 71 LINE",
"164 71 LINE",
"164 312 LINE",
"403 327 LINE",
"403 375 LINE",
"164 390 LINE",
"164 629 LINE",
"575 629 LINE",
"575 700 LINE",
"88 700 LINE",
"88 0 LINE"
);
}
);
};
layerId = "3129A168-24FD-451B-9986-F27775A960CA";
paths = (
{
closed = 1;
nodes = (
"421 0 LINE",
"430 51 LINE",
"88 51 LINE",
"124 255 LINE",
"324 262 LINE",
"331 300 LINE",
"133 306 LINE",
"169 509 LINE",
"511 509 LINE",
"520 560 LINE",
"124 560 LINE",
"25 0 LINE"
);
}
);
userData = {
RMXScaler = {
height = 80;
weight = -5;
width = 84;
};
};
width = 570;
}
);
leftMetricsKey = n.sc;
rightKerningGroup = e.sc;
rightMetricsKey = n.sc;
userData = {
RMXScaler = {
source = E;
};
};
},
{
glyphname = f.sc;
lastChange = "2019-03-21 12:40:05 +0000";
layers = (
{
anchors = (
{
name = bottom;
position = "{231, 0}";
},
{
name = top;
position = "{336, 595}";
}
);
layerId = "631A315E-0C3F-4988-8BF6-333737037850";
paths = (
{
closed = 1;
nodes = (
"165 0 LINE",
"270 595 LINE",
"113 595 LINE",
"8 0 LINE"
);
},
{
closed = 1;
nodes = (
"374 240 LINE",
"394 356 LINE",
"231 375 LINE",
"204 221 LINE"
);
},
{
closed = 1;
nodes = (
"529 442 LINE",
"556 595 LINE",
"270 595 LINE",
"243 442 LINE"
);
}
);
userData = {
RMXScaler = {
adjustSpace = 5;
height = 85;
weight = -8;
width = 90;
};
};
width = 583;
},
{
anchors = (
{
name = bottom;
position = "{215, 0}";
},
{
name = top;
position = "{314, 560}";
}
);
layerId = "3129A168-24FD-451B-9986-F27775A960CA";
paths = (
{
closed = 1;
nodes = (
"79 0 LINE",
"178 560 LINE",
"124 560 LINE",
"25 0 LINE"
);
},
{
closed = 1;
nodes = (
"325 262 LINE",
"331 300 LINE",
"133 306 LINE",
"124 255 LINE"
);
},
{
closed = 1;
nodes = (
"512 509 LINE",
"520 560 LINE",
"178 560 LINE",
"169 509 LINE"
);
}
);
userData = {
RMXScaler = {
height = 80;
weight = -5;
width = 84;
};
};
width = 571;
}
);
leftMetricsKey = n.sc;
rightMetricsKey = n.sc;
userData = {
RMXScaler = {
source = F;
};
};
},
{
glyphname = g.sc;
lastChange = "2019-03-21 12:40:04 +0000";
layers = (
{
anchors = (
{
name = bottom;
position = "{308, 0}";
},
{
name = top;
position = "{413, 595}";
}
);
background = {
paths = (
{
closed = 1;
nodes = (
"672 238 LINE",
"672 399 LINE",
"367 399 LINE",
"367 238 LINE"
);
},
{
closed = 1;
nodes = (
"611 382 OFFCURVE",
"614 360 OFFCURVE",
"614 350 CURVE",
"615 238 OFFCURVE",
"526 146 OFFCURVE",
"416 146 CURVE",
"306 146 OFFCURVE",
"216 238 OFFCURVE",
"216 350 CURVE",
"216 462 OFFCURVE",
"306 554 OFFCURVE",
"416 554 CURVE",
"474 554 OFFCURVE",
"548 512 OFFCURVE",
"581 461 CURVE",
"762 461 LINE",
"717 601 OFFCURVE",
"561 715 OFFCURVE",
"416 715 CURVE",
"216 715 OFFCURVE",
"51 551 OFFCURVE",
"50 350 CURVE",
"49 149 OFFCURVE",
"214 -15 OFFCURVE",
"416 -15 CURVE",
"617 -15 OFFCURVE",
"781 149 OFFCURVE",
"780 350 CURVE",
"780 364 OFFCURVE",
"779 386 OFFCURVE",
"777 399 CURVE",
"608 399 LINE"
);
}
);
};
guideLines = (
{
position = "{634, 461}";
},
{
position = "{614, 399}";
},
{
angle = -61.429;
position = "{701, 399}";
},
{
angle = 61.4293;
position = "{723, 461}";
}
);
layerId = "631A315E-0C3F-4988-8BF6-333737037850";
paths = (
{
closed = 1;
nodes = (
"467 -13 OFFCURVE",
"604 75 OFFCURVE",
"667 201 CURVE",
"613 347 LINE",
"328 347 LINE",
"301 193 LINE",
"487 197 LINE",
"448 164 OFFCURVE",
"392 141 OFFCURVE",
"331 141 CURVE SMOOTH",
"240 141 OFFCURVE",
"180 206 OFFCURVE",
"194 287 CURVE SMOOTH",
"210 379 OFFCURVE",
"305 454 OFFCURVE",
"405 454 CURVE SMOOTH",
"450 454 OFFCURVE",
"508 424 OFFCURVE",
"529 384 CURVE",
"625 380 LINE",
"672 448 LINE",
"626 538 OFFCURVE",
"523 608 OFFCURVE",
"413 608 CURVE SMOOTH",
"238 608 OFFCURVE",
"71 474 OFFCURVE",
"41 309 CURVE SMOOTH",
"9 132 OFFCURVE",
"136 -13 OFFCURVE",
"323 -13 CURVE SMOOTH"
);
}
);
userData = {
RMXScaler = {
adjustSpace = 5;
height = 85;
weight = -8;
width = 90;
};
};
width = 727;
},
{
anchors = (
{
name = bottom;
position = "{308, 0}";
},
{
name = top;
position = "{407, 560}";
}
);
background = {
paths = (
{
closed = 1;
nodes = (
"734 188 OFFCURVE",
"604 56 OFFCURVE",
"446 56 CURVE SMOOTH",
"286 56 OFFCURVE",
"156 188 OFFCURVE",
"156 350 CURVE SMOOTH",
"156 512 OFFCURVE",
"286 644 OFFCURVE",
"446 644 CURVE SMOOTH",
"534 644 OFFCURVE",
"614 602 OFFCURVE",
"667 537 CURVE",
"725 537 LINE",
"740 564 LINE",
"674 656 OFFCURVE",
"566 715 OFFCURVE",
"446 715 CURVE SMOOTH",
"245 715 OFFCURVE",
"80 550 OFFCURVE",
"80 348 CURVE SMOOTH",
"80 148 OFFCURVE",
"245 -15 OFFCURVE",
"446 -15 CURVE SMOOTH",
"615 -15 OFFCURVE",
"759 103 OFFCURVE",
"799 260 CURVE",
"750 349 LINE",
"734 349 LINE"
);
},
{
closed = 1;
nodes = (
"449 278 LINE",
"750 278 LINE",
"750 349 LINE",
"449 349 LINE"
);
}
);
};
guideLines = (
{
position = "{766, 537}";
},
{
angle = 60.9234;
position = "{824, 537}";
},
{
position = "{411, 278}";
},
{
angle = 118.728;
position = "{765, 349}";
},
{
position = "{448, 349}";
}
);
layerId = "3129A168-24FD-451B-9986-F27775A960CA";
paths = (
{
closed = 1;
nodes = (
"460 -12 OFFCURVE",
"600 87 OFFCURVE",
"652 221 CURVE",
"627 283 LINE",
"362 283 LINE",
"353 232 LINE",
"599 234 LINE",
"558 127 OFFCURVE",
"436 39 OFFCURVE",
"314 39 CURVE SMOOTH",
"180 39 OFFCURVE",
"84 148 OFFCURVE",
"107 276 CURVE SMOOTH",
"130 408 OFFCURVE",
"269 521 OFFCURVE",
"407 521 CURVE SMOOTH",
"484 521 OFFCURVE",
"551 485 OFFCURVE",
"587 426 CURVE",
"621 424 LINE",
"638 447 LINE",
"594 522 OFFCURVE",
"511 572 OFFCURVE",
"408 572 CURVE SMOOTH",
"242 572 OFFCURVE",
"82 442 OFFCURVE",
"54 283 CURVE SMOOTH",
"26 121 OFFCURVE",
"142 -12 OFFCURVE",
"313 -12 CURVE SMOOTH"
);
}
);
userData = {
RMXScaler = {
height = 80;
weight = -5;
width = 84;
};
};
width = 740;
}
);
leftKerningGroup = o.sc;
leftMetricsKey = o.sc;
rightKerningGroup = o.sc;
rightMetricsKey = o.sc;
userData = {
RMXScaler = {
source = G;
};
};
},
{
glyphname = h.sc;
lastChange = "2019-03-21 12:39:06 +0000";
layers = (
{
anchors = (
{
name = bottom;
position = "{291, 0}";
},
{
name = center;
position = "{344, 298}";
},
{
name = top;
position = "{396, 595}";
},
{
name = topleft;
position = "{61, 595}";
}
);
guideLines = (
{
angle = -23.7495;
position = "{215, 276}";
}
);
layerId = "631A315E-0C3F-4988-8BF6-333737037850";
paths = (
{
closed = 1;
nodes = (
"165 0 LINE",
"205 223 LINE",
"247 207 LINE",
"409 207 LINE",
"456 223 LINE",
"416 0 LINE",
"573 0 LINE",
"678 595 LINE",
"521 595 LINE",
"480 360 LINE",
"229 360 LINE",
"270 595 LINE",
"113 595 LINE",
"8 0 LINE"
);
}
);
userData = {
RMXScaler = {
adjustSpace = 5;
height = 85;
weight = -8;
width = 90;
};
};
width = 705;
},
{
anchors = (
{
name = bottom;
position = "{235, 0}";
},
{
name = center;
position = "{285, 280}";
},
{
name = top;
position = "{334, 560}";
},
{
name = topleft;
position = "{100, 560}";
}
);
guideLines = (
{
position = "{159, 339}";
},
{
angle = 23.749;
position = "{534, 339}";
}
);
layerId = "3129A168-24FD-451B-9986-F27775A960CA";
paths = (
{
closed = 1;
nodes = (
"79 0 LINE",
"127 267 LINE",
"171 247 LINE",
"388 247 LINE",
"439 267 LINE",
"391 0 LINE",
"445 0 LINE",
"544 560 LINE",
"490 560 LINE",
"444 298 LINE",
"132 298 LINE",
"178 560 LINE",
"124 560 LINE",
"25 0 LINE"
);
}
);
userData = {
RMXScaler = {
height = 80;
weight = -5;
width = 84;
};
};
width = 594;
}
);
leftKerningGroup = n.sc;
leftMetricsKey = n.sc;
rightKerningGroup = n.sc;
rightMetricsKey = n.sc;
userData = {
RMXScaler = {
source = H;
};
};
},
{
glyphname = i.sc;
lastChange = "2019-03-21 12:39:06 +0000";
layers = (
{
anchors = (
{
name = bottom;
position = "{87, 0}";
},
{
name = ogonek;
position = "{211, 9}";
},
{
name = top;
position = "{192, 595}";
},
{
name = topleft;
position = "{77, 595}";
}
);
guideLines = (
{
angle = 90;
position = "{281, 700}";
}
);
layerId = "631A315E-0C3F-4988-8BF6-333737037850";
paths = (
{
closed = 1;
nodes = (
"165 0 LINE",
"270 595 LINE",
"113 595 LINE",
"8 0 LINE"
);
}
);
userData = {
RMXScaler = {
adjustSpace = 5;
height = 85;
weight = -8;
width = 90;
};
};
width = 297;
},
{
anchors = (
{
name = bottom;
position = "{53, 0}";
},
{
name = ogonek;
position = "{117, 8}";
},
{
name = top;
position = "{152, 560}";
},
{
name = topleft;
position = "{90, 560}";
}
);
layerId = "3129A168-24FD-451B-9986-F27775A960CA";
paths = (
{
closed = 1;
nodes = (
"79 0 LINE",
"178 560 LINE",
"124 560 LINE",
"25 0 LINE"
);
}
);
userData = {
RMXScaler = {
height = 80;
weight = -5;
width = 84;
};
};
width = 228;
}
);
leftKerningGroup = n.sc;
leftMetricsKey = n.sc;
rightKerningGroup = n.sc;
rightMetricsKey = n.sc;
userData = {
RMXScaler = {
source = I;
};
};
},
{
glyphname = j.sc;
lastChange = "2019-03-21 12:39:06 +0000";
layers = (
{
anchors = (
{
name = bottom;
position = "{211, 0}";
},
{
name = top;
position = "{316, 595}";
}
);
background = {
paths = (
{
closed = 1;
nodes = (
"349 267 LINE",
"349 200 OFFCURVE",
"295 146 OFFCURVE",
"230 146 CURVE",
"163 146 OFFCURVE",
"109 200 OFFCURVE",
"109 267 CURVE",
"-57 267 LINE",
"-58 112 OFFCURVE",
"71 -15 OFFCURVE",
"230 -15 CURVE",
"388 -15 OFFCURVE",
"516 112 OFFCURVE",
"515 267 CURVE"
);
}
);
};
guideLines = (
{
angle = -90;
position = "{-23, 128}";
},
{
position = "{-104, 172}";
}
);
layerId = "631A315E-0C3F-4988-8BF6-333737037850";
paths = (
{
closed = 1;
nodes = (
"301 -13 OFFCURVE",
"431 92 OFFCURVE",
"454 225 CURVE",
"519 595 LINE",
"362 595 LINE",
"299 235 LINE SMOOTH",
"290 185 OFFCURVE",
"230 141 OFFCURVE",
"170 141 CURVE SMOOTH",
"155 141 OFFCURVE",
"125 148 OFFCURVE",
"111 158 CURVE",
"14 120 LINE",
"5 43 LINE",
"38 15 OFFCURVE",
"108 -13 OFFCURVE",
"162 -13 CURVE SMOOTH"
);
}
);
userData = {
RMXScaler = {
adjustSpace = 5;
height = 85;
weight = -8;
width = 90;
};
};
width = 544;
},
{
anchors = (
{
name = bottom;
position = "{142, 0}";
},
{
name = top;
position = "{241, 560}";
}
);
background = {
paths = (
{
closed = 1;
nodes = (
"302 -20 OFFCURVE",
"415 111 OFFCURVE",
"415 256 CURVE SMOOTH",
"415 701 LINE",
"339 701 LINE",
"339 256 LINE SMOOTH",
"339 151 OFFCURVE",
"274 57 OFFCURVE",
"175 57 CURVE SMOOTH",
"153 57 OFFCURVE",
"122 65 OFFCURVE",
"96 80 CURVE",
"50 56 LINE",
"50 28 LINE",
"81 7 OFFCURVE",
"132 -12 OFFCURVE",
"176 -14 CURVE SMOOTH"
);
}
);
};
guideLines = (
{
angle = 207.5528;
position = "{-47, 80}";
},
{
angle = 90;
position = "{-106, 56}";
}
);
layerId = "3129A168-24FD-451B-9986-F27775A960CA";
paths = (
{
closed = 1;
nodes = (
"202 -12 OFFCURVE",
"306 81 OFFCURVE",
"326 197 CURVE SMOOTH",
"390 559 LINE",
"335 559 LINE",
"272 201 LINE SMOOTH",
"256 113 OFFCURVE",
"176 39 OFFCURVE",
"97 39 CURVE SMOOTH",
"70 39 OFFCURVE",
"44 48 OFFCURVE",
"25 65 CURVE",
"-7 50 LINE",
"-10 25 LINE",
"17 3 OFFCURVE",
"53 -12 OFFCURVE",
"95 -12 CURVE SMOOTH"
);
}
);
userData = {
RMXScaler = {
height = 80;
weight = -5;
width = 84;
};
};
width = 412;
}
);
userData = {
RMXScaler = {
source = J;
};
};
},
{
glyphname = k.sc;
lastChange = "2019-03-21 12:39:06 +0000";
layers = (
{
anchors = (
{
name = bottom;
position = "{255, 0}";
},
{
name = top;
position = "{360, 595}";
}
);
background = {
paths = (
{
closed = 1;
nodes = (
"241 0 LINE",
"241 700 LINE",
"75 700 LINE",
"75 0 LINE"
);
},
{
closed = 1;
nodes = (
"616 0 LINE",
"616 112 LINE",
"387 400 LINE",
"260 282 LINE",
"484 0 LINE"
);
},
{
closed = 1;
nodes = (
"146 350 LINE",
"146 118 LINE",
"586 589 LINE",
"586 701 LINE",
"474 701 LINE"
);
}
);
};
guideLines = (
{
angle = 226.9401;
position = "{670, 589}";
},
{
angle = 226.9401;
position = "{598, 701}";
},
{
angle = -51.5104;
position = "{196, 282}";
},
{
angle = -51.5104;
position = "{405, 400}";
}
);
layerId = "631A315E-0C3F-4988-8BF6-333737037850";
paths = (
{
closed = 1;
nodes = (
"165 0 LINE",
"199 184 LINE",
"240 212 LINE",
"387 0 LINE",
"519 0 LINE",
"533 86 LINE",
"365 327 LINE",
"583 506 LINE",
"597 596 LINE",
"470 596 LINE",
"235 406 LINE",
"270 595 LINE",
"113 595 LINE",
"8 0 LINE"
);
}
);
userData = {
RMXScaler = {
adjustSpace = 5;
height = 85;
weight = -8;
width = 90;
};
};
width = 640;
},
{
anchors = (
{
name = bottom;
position = "{224, 0}";
},
{
name = top;
position = "{323, 560}";
}
);
guideLines = (
{
angle = 49.1327;
position = "{106, 241}";
},
{
angle = -53.5836;
position = "{336, 0}";
}
);
layerId = "3129A168-24FD-451B-9986-F27775A960CA";
paths = (
{
closed = 1;
nodes = (
"79 0 LINE",
"114 191 LINE",
"208 276 LINE",
"376 0 LINE",
"430 0 LINE",
"432 16 LINE",
"250 318 LINE",
"500 546 LINE",
"502 560 LINE",
"443 560 LINE",
"127 272 LINE",
"178 560 LINE",
"124 560 LINE",
"25 0 LINE"
);
}
);
userData = {
RMXScaler = {
height = 80;
weight = -5;
width = 84;
};
};
width = 542;
}
);
leftKerningGroup = n.sc;
leftMetricsKey = n.sc;
userData = {
RMXScaler = {
source = K;
};
};
},
{
glyphname = l.sc;
lastChange = "2019-03-21 12:39:06 +0000";
layers = (
{
anchors = (
{
name = bottom;
position = "{225, 0}";
},
{
name = center;
position = "{152, 298}";
},
{
name = top;
position = "{330, 595}";
},
{
name = topright;
position = "{581, 595}";
}
);
layerId = "631A315E-0C3F-4988-8BF6-333737037850";
paths = (
{
closed = 1;
nodes = (
"440 0 LINE",
"467 154 LINE",
"192 154 LINE",
"270 595 LINE",
"113 595 LINE",
"8 0 LINE"
);
}
);
userData = {
RMXScaler = {
adjustSpace = 5;
height = 85;
weight = -8;
width = 90;
};
};
width = 561;
},
{
anchors = (
{
name = bottom;
position = "{178, 0}";
},
{
name = center;
position = "{102, 280}";
},
{
name = top;
position = "{277, 560}";
},
{
name = topright;
position = "{470, 560}";
}
);
layerId = "3129A168-24FD-451B-9986-F27775A960CA";
paths = (
{
closed = 1;
nodes = (
"338 0 LINE",
"347 48 LINE",
"88 48 LINE",
"178 560 LINE",
"124 560 LINE",
"25 0 LINE"
);
}
);
userData = {
RMXScaler = {
height = 80;
weight = -5;
width = 84;
};
};
width = 450;
}
);
leftKerningGroup = n.sc;
leftMetricsKey = n.sc;
userData = {
RMXScaler = {
source = L;
};
};
},
{
glyphname = m.sc;
lastChange = "2019-03-21 12:39:06 +0000";
layers = (
{
anchors = (
{
name = bottom;
position = "{351, 0}";
},
{
name = top;
position = "{456, 595}";
}
);
background = {
paths = (
{
closed = 1;
nodes = (
"508 153 LINE",
"765 578 LINE",
"765 700 LINE",
"657 700 LINE",
"454 334 LINE",
"251 700 LINE",
"143 700 LINE",
"143 578 LINE",
"400 153 LINE"
);
},
{
closed = 1;
nodes = (
"241 0 LINE",
"241 700 LINE",
"75 700 LINE",
"75 0 LINE"
);
},
{
closed = 1;
nodes = (
"833 0 LINE",
"833 700 LINE",
"667 700 LINE",
"667 0 LINE"
);
}
);
};
layerId = "631A315E-0C3F-4988-8BF6-333737037850";
paths = (
{
closed = 1;
nodes = (
"165 0 LINE",
"223 318 LINE",
"324 121 LINE",
"424 121 LINE",
"595 318 LINE",
"537 0 LINE",
"694 0 LINE",
"799 595 LINE",
"633 595 LINE",
"380 292 LINE",
"422 292 LINE",
"275 595 LINE",
"113 595 LINE",
"8 0 LINE"
);
}
);
userData = {
RMXScaler = {
adjustSpace = 5;
height = 85;
weight = -8;
width = 90;
};
};
width = 826;
},
{
anchors = (
{
name = bottom;
position = "{322, 0}";
},
{
name = top;
position = "{421, 560}";
}
);
guideLines = (
{
angle = 121.0408;
position = "{386, 700}";
},
{
angle = 58.9592;
position = "{898, 700}";
},
{
angle = 121.0408;
position = "{352, 209}";
},
{
angle = 58.9592;
position = "{412, 209}";
}
);
layerId = "3129A168-24FD-451B-9986-F27775A960CA";
paths = (
{
closed = 1;
nodes = (
"79 0 LINE",
"168 501 LINE",
"326 163 LINE",
"378 163 LINE",
"653 501 LINE",
"564 0 LINE",
"619 0 LINE",
"718 560 LINE",
"633 560 LINE",
"337 195 LINE",
"374 195 LINE",
"206 560 LINE",
"124 560 LINE",
"25 0 LINE"
);
}
);
userData = {
RMXScaler = {
height = 80;
weight = -5;
width = 84;
};
};
width = 768;
}
);
leftKerningGroup = n.sc;
leftMetricsKey = n.sc;
rightKerningGroup = n.sc;
rightMetricsKey = n.sc;
userData = {
RMXScaler = {
source = M;
};
};
},
{
glyphname = n.sc;
lastChange = "2019-03-21 12:39:06 +0000";
layers = (
{
anchors = (
{
name = bottom;
position = "{302, 0}";
},
{
name = top;
position = "{368, 595}";
}
);
guideLines = (
{
angle = 126.1848;
position = "{434, 0}";
}
);
layerId = "631A315E-0C3F-4988-8BF6-333737037850";
paths = (
{
closed = 1;
nodes = (
"165 0 LINE",
"226 335 LINE",
"442 0 LINE",
"595 0 LINE",
"700 595 LINE",
"543 595 LINE",
"482 260 LINE",
"266 595 LINE",
"113 595 LINE",
"8 0 LINE"
);
}
);
userData = {
RMXScaler = {
adjustSpace = 5;
height = 85;
weight = -8;
width = 90;
};
};
width = 727;
},
{
anchors = (
{
name = bottom;
position = "{275, 0}";
},
{
name = top;
position = "{372, 560}";
}
);
guideLines = (
{
angle = -55.1228;
position = "{379, 700}";
}
);
layerId = "3129A168-24FD-451B-9986-F27775A960CA";
paths = (
{
closed = 1;
nodes = (
"79 0 LINE",
"168 498 LINE",
"448 0 LINE",
"525 0 LINE",
"624 560 LINE",
"569 560 LINE",
"480 62 LINE",
"201 560 LINE",
"124 560 LINE",
"25 0 LINE"
);
}
);
userData = {
RMXScaler = {
height = 80;
weight = -5;
width = 84;
};
};
width = 674;
}
);
leftKerningGroup = n.sc;
rightKerningGroup = n.sc;
userData = {
RMXScaler = {
source = N;
};
};
},
{
glyphname = o.sc;
lastChange = "2019-03-21 12:39:06 +0000";
layers = (
{
anchors = (
{
name = bottom;
position = "{315, 0}";
},
{
name = center;
position = "{368, 298}";
},
{
name = ogonek;
position = "{608, 9}";
},
{
name = top;
position = "{420, 595}";
},
{
name = topleft;
position = "{73, 595}";
},
{
name = topright;
position = "{766, 595}";
}
);
guideLines = (
{
position = "{1607, 113}";
},
{
angle = 90;
position = "{1468, 112}";
},
{
angle = 90;
position = "{544, 713}";
}
);
layerId = "631A315E-0C3F-4988-8BF6-333737037850";
paths = (
{
closed = 1;
nodes = (
"499 -13 OFFCURVE",
"666 122 OFFCURVE",
"694 287 CURVE",
"724 464 OFFCURVE",
"597 608 OFFCURVE",
"413 608 CURVE",
"238 608 OFFCURVE",
"71 474 OFFCURVE",
"41 309 CURVE",
"9 132 OFFCURVE",
"137 -13 OFFCURVE",
"323 -13 CURVE"
);
},
{
closed = 1;
nodes = (
"240 141 OFFCURVE",
"180 206 OFFCURVE",
"194 287 CURVE",
"210 379 OFFCURVE",
"305 454 OFFCURVE",
"405 454 CURVE",
"493 454 OFFCURVE",
"554 389 OFFCURVE",
"541 309 CURVE",
"526 216 OFFCURVE",
"430 141 OFFCURVE",
"331 141 CURVE"
);
}
);
userData = {
RMXScaler = {
adjustSpace = 5;
height = 85;
weight = -8;
width = 90;
};
};
width = 753;
},
{
anchors = (
{
name = bottom;
position = "{311, 0}";
},
{
name = center;
position = "{360, 280}";
},
{
name = ogonek;
position = "{585, 8}";
},
{
name = top;
position = "{410, 560}";
},
{
name = topleft;
position = "{86, 560}";
},
{
name = topright;
position = "{733, 560}";
}
);
layerId = "3129A168-24FD-451B-9986-F27775A960CA";
paths = (
{
closed = 1;
nodes = (
"479 -12 OFFCURVE",
"638 116 OFFCURVE",
"666 275 CURVE SMOOTH",
"695 439 OFFCURVE",
"578 572 OFFCURVE",
"408 572 CURVE SMOOTH",
"242 572 OFFCURVE",
"82 442 OFFCURVE",
"54 283 CURVE SMOOTH",
"26 121 OFFCURVE",
"142 -12 OFFCURVE",
"313 -12 CURVE SMOOTH"
);
},
{
closed = 1;
nodes = (
"180 39 OFFCURVE",
"84 148 OFFCURVE",
"107 276 CURVE SMOOTH",
"130 408 OFFCURVE",
"269 521 OFFCURVE",
"407 521 CURVE SMOOTH",
"541 521 OFFCURVE",
"636 411 OFFCURVE",
"613 283 CURVE SMOOTH",
"590 152 OFFCURVE",
"452 39 OFFCURVE",
"314 39 CURVE SMOOTH"
);
}
);
userData = {
RMXScaler = {
height = 80;
weight = -5;
width = 84;
};
};
width = 745;
}
);
leftKerningGroup = o.sc;
rightKerningGroup = o.sc;
userData = {
RMXScaler = {
source = O;
};
};
},
{
glyphname = oslash.sc;
lastChange = "2019-03-21 13:38:04 +0000";
layers = (
{
layerId = "631A315E-0C3F-4988-8BF6-333737037850";
paths = (
{
closed = 1;
nodes = (
"518 -15 OFFCURVE",
"686 119 OFFCURVE",
"718 297 CURVE SMOOTH",
"749 474 OFFCURVE",
"627 608 OFFCURVE",
"450 608 CURVE SMOOTH",
"273 608 OFFCURVE",
"105 473 OFFCURVE",
"74 297 CURVE SMOOTH",
"42 120 OFFCURVE",
"164 -15 OFFCURVE",
"341 -15 CURVE SMOOTH"
);
},
{
closed = 1;
nodes = (
"271 132 OFFCURVE",
"219 197 OFFCURVE",
"236 296 CURVE SMOOTH",
"254 394 OFFCURVE",
"328 460 OFFCURVE",
"425 460 CURVE SMOOTH",
"521 460 OFFCURVE",
"571 394 OFFCURVE",
"553 296 CURVE SMOOTH",
"536 197 OFFCURVE",
"464 132 OFFCURVE",
"368 132 CURVE SMOOTH"
);
},
{
closed = 1;
nodes = (
"750 558 LINE",
"757 600 LINE",
"633 600 LINE",
"44 42 LINE",
"36 0 LINE",
"160 0 LINE"
);
}
);
userData = {
RMXScaler = {
adjustSpace = 5;
height = 85;
weight = -8;
width = 90;
};
};
width = 812;
},
{
layerId = "3129A168-24FD-451B-9986-F27775A960CA";
paths = (
{
closed = 1;
nodes = (
"455 -11 OFFCURVE",
"609 120 OFFCURVE",
"638 281 CURVE SMOOTH",
"666 442 OFFCURVE",
"559 572 OFFCURVE",
"400 572 CURVE SMOOTH",
"240 572 OFFCURVE",
"83 442 OFFCURVE",
"55 281 CURVE SMOOTH",
"27 121 OFFCURVE",
"134 -11 OFFCURVE",
"295 -11 CURVE SMOOTH"
);
},
{
closed = 1;
nodes = (
"169 40 OFFCURVE",
"85 146 OFFCURVE",
"109 281 CURVE SMOOTH",
"132 415 OFFCURVE",
"254 521 OFFCURVE",
"389 521 CURVE SMOOTH",
"523 521 OFFCURVE",
"608 416 OFFCURVE",
"584 281 CURVE SMOOTH",
"560 145 OFFCURVE",
"438 40 OFFCURVE",
"304 40 CURVE SMOOTH"
);
},
{
closed = 1;
nodes = (
"686 543 LINE",
"689 558 LINE",
"633 558 LINE",
"7 15 LINE",
"4 0 LINE",
"60 0 LINE"
);
}
);
userData = {
RMXScaler = {
height = 80;
weight = -5;
width = 84;
};
};
width = 718;
}
);
leftKerningGroup = o.sc;
leftMetricsKey = o.sc;
rightKerningGroup = o.sc;
rightMetricsKey = o.sc;
userData = {
RMXScaler = {
source = Oslash;
};
};
},
{
glyphname = p.sc;
lastChange = "2019-03-21 12:39:06 +0000";
layers = (
{
anchors = (
{
name = bottom;
position = "{252, 0}";
},
{
name = top;
position = "{357, 595}";
}
);
layerId = "631A315E-0C3F-4988-8BF6-333737037850";
paths = (
{
closed = 1;
nodes = (
"315 157 LINE SMOOTH",
"441 157 OFFCURVE",
"555 251 OFFCURVE",
"576 366 CURVE SMOOTH",
"598 492 OFFCURVE",
"506 595 OFFCURVE",
"378 595 CURVE SMOOTH",
"263 595 LINE",
"236 442 LINE",
"366 442 LINE SMOOTH",
"405 442 OFFCURVE",
"428 417 OFFCURVE",
"423 388 CURVE SMOOTH",
"415 346 OFFCURVE",
"372 311 OFFCURVE",
"333 311 CURVE SMOOTH",
"213 311 LINE",
"186 157 LINE"
);
},
{
closed = 1;
nodes = (
"165 0 LINE",
"270 595 LINE",
"113 595 LINE",
"8 0 LINE"
);
}
);
userData = {
RMXScaler = {
adjustSpace = 5;
height = 85;
weight = -8;
width = 90;
};
};
width = 628;
},
{
anchors = (
{
name = bottom;
position = "{214, 0}";
},
{
name = top;
position = "{313, 560}";
}
);
background = {
paths = (
{
closed = 1;
nodes = (
"106 700 LINE",
"106 0 LINE",
"182 0 LINE",
"182 223 LINE",
"325 223 LINE",
"460 223 OFFCURVE",
"570 331 OFFCURVE",
"569 462 CURVE SMOOTH",
"568 593 OFFCURVE",
"457 700 OFFCURVE",
"322 700 CURVE"
);
},
{
closed = 1;
nodes = (
"417 629 OFFCURVE",
"494 554 OFFCURVE",
"493 462 CURVE SMOOTH",
"492 370 OFFCURVE",
"416 294 OFFCURVE",
"325 294 CURVE",
"182 294 LINE",
"182 629 LINE",
"322 629 LINE"
);
},
{
closed = 1;
nodes = (
"406 191 LINE SMOOTH",
"545 191 OFFCURVE",
"659 306 OFFCURVE",
"659 446 CURVE SMOOTH",
"659 586 OFFCURVE",
"543 700 OFFCURVE",
"402 700 CURVE SMOOTH",
"262 700 LINE",
"262 539 LINE",
"407 539 LINE SMOOTH",
"454 539 OFFCURVE",
"493 497 OFFCURVE",
"493 446 CURVE SMOOTH",
"493 395 OFFCURVE",
"454 352 OFFCURVE",
"407 352 CURVE SMOOTH",
"262 352 LINE",
"262 191 LINE"
);
},
{
closed = 1;
nodes = (
"272 0 LINE",
"272 700 LINE",
"106 700 LINE",
"106 0 LINE"
);
}
);
};
layerId = "3129A168-24FD-451B-9986-F27775A960CA";
paths = (
{
closed = 1;
nodes = (
"265 176 LINE SMOOTH",
"375 176 OFFCURVE",
"479 261 OFFCURVE",
"499 364 CURVE SMOOTH",
"518 471 OFFCURVE",
"441 560 OFFCURVE",
"328 560 CURVE SMOOTH",
"156 560 LINE",
"147 509 LINE",
"323 509 LINE SMOOTH",
"405 509 OFFCURVE",
"459 448 OFFCURVE",
"446 372 CURVE SMOOTH",
"432 292 OFFCURVE",
"351 227 OFFCURVE",
"270 227 CURVE SMOOTH",
"89 227 LINE",
"80 176 LINE"
);
},
{
closed = 1;
nodes = (
"79 0 LINE",
"178 560 LINE",
"124 560 LINE",
"25 0 LINE"
);
}
);
userData = {
RMXScaler = {
height = 80;
weight = -5;
width = 84;
};
};
width = 542;
}
);
leftKerningGroup = n.sc;
leftMetricsKey = n.sc;
userData = {
RMXScaler = {
source = P;
};
};
},
{
glyphname = q.sc;
lastChange = "2019-03-21 12:40:03 +0000";
layers = (
{
anchors = (
{
name = bottom;
position = "{315, 0}";
},
{
name = top;
position = "{420, 595}";
}
);
guideLines = (
{
angle = -61.429;
position = "{378, 282}";
},
{
angle = -61.429;
position = "{579, 282}";
}
);
layerId = "631A315E-0C3F-4988-8BF6-333737037850";
paths = (
{
closed = 1;
nodes = (
"499 -13 OFFCURVE",
"666 122 OFFCURVE",
"694 287 CURVE",
"724 464 OFFCURVE",
"597 608 OFFCURVE",
"413 608 CURVE",
"238 608 OFFCURVE",
"71 474 OFFCURVE",
"41 309 CURVE",
"9 132 OFFCURVE",
"137 -13 OFFCURVE",
"323 -13 CURVE"
);
},
{
closed = 1;
nodes = (
"555 -46 LINE",
"573 64 LINE",
"466 232 LINE",
"280 232 LINE",
"424 -46 LINE"
);
},
{
closed = 1;
nodes = (
"240 141 OFFCURVE",
"180 206 OFFCURVE",
"194 287 CURVE",
"210 379 OFFCURVE",
"305 454 OFFCURVE",
"405 454 CURVE",
"493 454 OFFCURVE",
"554 389 OFFCURVE",
"541 309 CURVE",
"526 216 OFFCURVE",
"430 141 OFFCURVE",
"331 141 CURVE"
);
}
);
userData = {
RMXScaler = {
adjustSpace = 5;
height = 85;
weight = -8;
width = 90;
};
};
width = 753;
},
{
anchors = (
{
name = bottom;
position = "{310, 0}";
},
{
name = top;
position = "{409, 560}";
}
);
guideLines = (
{
angle = 125.6939;
position = "{569, -15}";
}
);
layerId = "3129A168-24FD-451B-9986-F27775A960CA";
paths = (
{
closed = 1;
nodes = (
"479 -12 OFFCURVE",
"638 116 OFFCURVE",
"666 275 CURVE SMOOTH",
"695 439 OFFCURVE",
"578 572 OFFCURVE",
"408 572 CURVE SMOOTH",
"242 572 OFFCURVE",
"82 442 OFFCURVE",
"54 283 CURVE SMOOTH",
"26 121 OFFCURVE",
"142 -12 OFFCURVE",
"313 -12 CURVE SMOOTH"
);
},
{
closed = 1;
nodes = (
"570 -31 LINE",
"573 -7 LINE",
"466 178 LINE",
"401 178 LINE",
"520 -31 LINE"
);
},
{
closed = 1;
nodes = (
"180 39 OFFCURVE",
"84 148 OFFCURVE",
"107 276 CURVE SMOOTH",
"130 408 OFFCURVE",
"269 521 OFFCURVE",
"407 521 CURVE SMOOTH",
"541 521 OFFCURVE",
"636 411 OFFCURVE",
"613 283 CURVE SMOOTH",
"590 152 OFFCURVE",
"452 39 OFFCURVE",
"314 39 CURVE SMOOTH"
);
}
);
userData = {
RMXScaler = {
height = 80;
weight = -5;
width = 84;
};
};
width = 745;
}
);
leftKerningGroup = o.sc;
leftMetricsKey = o.sc;
rightKerningGroup = o.sc;
rightMetricsKey = o.sc;
userData = {
RMXScaler = {
source = Q;
};
};
},
{
glyphname = r.sc;
lastChange = "2019-03-21 12:39:06 +0000";
layers = (
{
anchors = (
{
name = bottom;
position = "{260, 0}";
},
{
name = top;
position = "{365, 595}";
}
);
background = {
paths = (
{
closed = 1;
nodes = (
"375 191 LINE SMOOTH",
"514 191 OFFCURVE",
"628 306 OFFCURVE",
"628 446 CURVE SMOOTH",
"628 586 OFFCURVE",
"512 700 OFFCURVE",
"371 700 CURVE SMOOTH",
"231 700 LINE",
"231 539 LINE",
"376 539 LINE SMOOTH",
"423 539 OFFCURVE",
"462 497 OFFCURVE",
"462 446 CURVE SMOOTH",
"462 395 OFFCURVE",
"423 352 OFFCURVE",
"376 352 CURVE SMOOTH",
"231 352 LINE",
"231 191 LINE"
);
},
{
closed = 1;
nodes = (
"241 0 LINE",
"241 700 LINE",
"75 700 LINE",
"75 0 LINE"
);
},
{
closed = 1;
nodes = (
"626 0 LINE",
"626 112 LINE",
"491 282 LINE",
"290 282 LINE",
"514 0 LINE"
);
},
{
closed = 0;
nodes = (
"308 247 LINE",
"495 0 LINE",
"633 0 LINE",
"633 96 LINE",
"413 386 LINE"
);
}
);
};
guideLines = (
{
angle = 90;
position = "{662, 446}";
},
{
angle = 127.0938;
position = "{541, 89}";
},
{
position = "{-73, 89}";
}
);
layerId = "631A315E-0C3F-4988-8BF6-333737037850";
paths = (
{
closed = 1;
nodes = (
"315 157 LINE SMOOTH",
"441 157 OFFCURVE",
"555 251 OFFCURVE",
"576 366 CURVE SMOOTH",
"598 492 OFFCURVE",
"506 595 OFFCURVE",
"378 595 CURVE SMOOTH",
"263 595 LINE",
"236 442 LINE",
"366 442 LINE SMOOTH",
"405 442 OFFCURVE",
"428 417 OFFCURVE",
"423 388 CURVE SMOOTH",
"415 346 OFFCURVE",
"372 311 OFFCURVE",
"333 311 CURVE SMOOTH",
"213 311 LINE",
"186 157 LINE"
);
},
{
closed = 1;
nodes = (
"165 0 LINE",
"270 595 LINE",
"113 595 LINE",
"8 0 LINE"
);
},
{
closed = 1;
nodes = (
"517 0 LINE",
"530 85 LINE",
"418 259 LINE",
"255 209 LINE",
"388 0 LINE"
);
}
);
userData = {
RMXScaler = {
adjustSpace = 5;
height = 85;
weight = -8;
width = 90;
};
};
width = 646;
},
{
anchors = (
{
name = bottom;
position = "{226, 0}";
},
{
name = top;
position = "{325, 560}";
}
);
background = {
paths = (
{
closed = 1;
nodes = (
"182 0 LINE",
"182 223 LINE",
"325 223 LINE",
"460 223 OFFCURVE",
"570 331 OFFCURVE",
"569 462 CURVE SMOOTH",
"568 593 OFFCURVE",
"457 700 OFFCURVE",
"322 700 CURVE",
"106 700 LINE",
"106 0 LINE"
);
},
{
closed = 1;
nodes = (
"577 0 LINE",
"577 36 LINE",
"432 259 LINE",
"346 252 LINE",
"510 0 LINE"
);
},
{
closed = 1;
nodes = (
"182 629 LINE",
"322 629 LINE",
"417 629 OFFCURVE",
"494 554 OFFCURVE",
"493 462 CURVE SMOOTH",
"492 370 OFFCURVE",
"416 294 OFFCURVE",
"325 294 CURVE",
"182 294 LINE"
);
}
);
};
guideLines = (
{
angle = 123.0329;
position = "{406, 26}";
},
{
angle = 90;
position = "{628, 462}";
}
);
layerId = "3129A168-24FD-451B-9986-F27775A960CA";
paths = (
{
closed = 1;
nodes = (
"268 176 LINE SMOOTH",
"377 176 OFFCURVE",
"479 261 OFFCURVE",
"499 364 CURVE SMOOTH",
"518 471 OFFCURVE",
"441 560 OFFCURVE",
"328 560 CURVE SMOOTH",
"156 560 LINE",
"147 509 LINE",
"323 509 LINE SMOOTH",
"405 509 OFFCURVE",
"459 448 OFFCURVE",
"446 372 CURVE SMOOTH",
"432 292 OFFCURVE",
"351 227 OFFCURVE",
"270 227 CURVE SMOOTH",
"89 227 LINE",
"80 176 LINE"
);
},
{
closed = 1;
nodes = (
"79 0 LINE",
"178 560 LINE",
"124 560 LINE",
"25 0 LINE"
);
},
{
closed = 1;
nodes = (
"425 0 LINE",
"429 25 LINE",
"334 210 LINE",
"273 201 LINE",
"377 0 LINE"
);
}
);
userData = {
RMXScaler = {
height = 80;
weight = -5;
width = 84;
};
};
width = 555;
}
);
leftKerningGroup = n.sc;
leftMetricsKey = n.sc;
userData = {
RMXScaler = {
source = R;
};
};
},
